{
copyright = "(C) 1999-2001, WolfBainX & Apostrophic Labs. All rights reserved. Visit www.apsotrophiclab.com or email info@apostrophiclab.com for more info.";
customParameters = (
{
name = description;
value = "\U00A9 1999-2001, WolfBainX & Apostrophic Labs. All rights reserved. Visit www.apsotrophiclab.com or email info@apostrophiclab.com for more info.";
},
{
name = vendorID;
value = APOS;
},
{
name = glyphOrder;
value = (
    ".notdef",
    ".null",
    nonmarkingreturn,
    space,
    dotaccent,
    ring,
    caron,
    dotlessi,
    fraction,
    fi,
    fl,
    Lslash,
    lslash,
    Zcaron,
    zcaron,
    exclam,
    quotedbl,
    numbersign,
    dollar,
    percent,
    ampersand,
    quotesingle,
    parenleft,
    parenright,
    asterisk,
    plus,
    comma,
    hyphen,
    period,
    slash,
    zero,
    one,
    two,
    three,
    four,
    five,
    six,
    seven,
    eight,
    nine,
    colon,
    semicolon,
    less,
    equal,
    greater,
    question,
    at,
    A,
    B,
    C,
    D,
    E,
    F,
    G,
    H,
    I,
    J,
    K,
    L,
    M,
    N,
    O,
    P,
    Q,
    R,
    S,
    T,
    U,
    V,
    W,
    X,
    Y,
    Z,
    bracketleft,
    backslash,
    bracketright,
    asciicircum,
    underscore,
    grave,
    a,
    b,
    c,
    d,
    e,
    f,
    g,
    h,
    i,
    j,
    k,
    l,
    m,
    n,
    o,
    p,
    q,
    r,
    s,
    t,
    u,
    v,
    w,
    x,
    y,
    z,
    braceleft,
    bar,
    braceright,
    asciitilde,
    quotesinglbase,
    florin,
    quotedblbase,
    ellipsis,
    dagger,
    daggerdbl,
    circumflex,
    perthousand,
    Scaron,
    guilsinglleft,
    OE,
    quoteleft,
    quoteright,
    quotedblleft,
    quotedblright,
    bullet,
    endash,
    emdash,
    tilde,
    trademark,
    scaron,
    guilsinglright,
    oe,
    Ydieresis,
    exclamdown,
    cent,
    sterling,
    currency,
    yen,
    brokenbar,
    section,
    dieresis,
    copyright,
    ordfeminine,

glyphs = (
{
glyphname = dotaccent;
layers = (
{
layerId = "A436FB16-7E3F-4A25-90BC-0079C9B35420";
name = Regular;
paths = (
{
closed = 1;
nodes = (
"44 867 OFFCURVE",
"78 827 OFFCURVE",
"119 830 CURVE",
"139 830 OFFCURVE",
"155 842 OFFCURVE",
"167 856 CURVE",
"178 870 OFFCURVE",
"184 887 OFFCURVE",
"187 899 CURVE SMOOTH",
"189 908 OFFCURVE",
"190 917 OFFCURVE",
"190 928 CURVE SMOOTH",
"190 959 OFFCURVE",
"174 993 OFFCURVE",
"139 1009 CURVE",
"112 1020 OFFCURVE",
"90 1013 OFFCURVE",
"74 997 CURVE SMOOTH",
"58 981 OFFCURVE",
"48 955 OFFCURVE",
"47 928 CURVE SMOOTH"
);
}
);
width = 221;
}
);
note = dotaccent;
unicode = 02D9;
},
{
glyphname = ring;
layers = (
{
layerId = "A436FB16-7E3F-4A25-90BC-0079C9B35420";
name = Regular;
paths = (
{
closed = 1;
nodes = (
"316 1045 OFFCURVE",
"296 1051 OFFCURVE",
"271 1054 CURVE",
"252 1057 OFFCURVE",
"230 1051 OFFCURVE",
"215 1042 CURVE",
"180 1019 OFFCURVE",
"157 985 OFFCURVE",
"146 949 CURVE SMOOTH",
"134 913 OFFCURVE",
"135 876 OFFCURVE",
"151 849 CURVE SMOOTH",
"158 837 OFFCURVE",
"171 827 OFFCURVE",
"183 822 CURVE",
"199 814 OFFCURVE",
"219 811 OFFCURVE",
"238 810 CURVE",
"265 807 OFFCURVE",
"287 812 OFFCURVE",
"305 824 CURVE",
"332 845 OFFCURVE",
"350 877 OFFCURVE",
"359 909 CURVE SMOOTH",
"367 941 OFFCURVE",
"369 973 OFFCURVE",
"362 1000 CURVE",
"357 1015 OFFCURVE",
"350 1025 OFFCURVE",
"333 1036 CURVE"
);
},
{
closed = 1;
nodes = (
"291 1008 OFFCURVE",
"295 996 OFFCURVE",
"296 978 CURVE",
"296 960 OFFCURVE",
"292 938 OFFCURVE",
"287 921 CURVE SMOOTH",
"274 876 OFFCURVE",
"248 842 OFFCURVE",
"228 849 CURVE",
"217 852 OFFCURVE",
"212 865 OFFCURVE",
"212 882 CURVE",
"211 898 OFFCURVE",
"214 920 OFFCURVE",
"221 937 CURVE SMOOTH",
"228 954 OFFCURVE",
"238 974 OFFCURVE",
"250 989 CURVE",
"261 1004 OFFCURVE",
"273 1012 OFFCURVE",
"282 1011 CURVE"
);
}
);
width = 463;
}
);
note = ring;
unicode = 02DA;
},
{
glyphname = caron;
layers = (
{
layerId = "A436FB16-7E3F-4A25-90BC-0079C9B35420";
name = Regular;
paths = (
{
closed = 1;
nodes = (
"122 1124 OFFCURVE",
"117 1117 OFFCURVE",
"120 1104 CURVE SMOOTH",
"125 1079 OFFCURVE",
"132 1046 OFFCURVE",
"140 1010 CURVE SMOOTH",
"147 974 OFFCURVE",
"154 936 OFFCURVE",
"158 903 CURVE SMOOTH",
"161 882 OFFCURVE",
"164 876 OFFCURVE",
"172 864 CURVE",
"177 859 OFFCURVE",
"182 854 OFFCURVE",
"187 850 CURVE SMOOTH",
"192 846 OFFCURVE",
"197 841 OFFCURVE",
"202 836 CURVE",
"213 828 OFFCURVE",
"219 827 OFFCURVE",
"230 842 CURVE",
"251 867 OFFCURVE",
"273 900 OFFCURVE",
"292 932 CURVE SMOOTH",
"311 963 OFFCURVE",
"328 993 OFFCURVE",
"339 1014 CURVE SMOOTH",
"351 1037 OFFCURVE",
"334 1058 OFFCURVE",
"327 1069 CURVE",
"319 1080 OFFCURVE",
"308 1094 OFFCURVE",
"303 1094 CURVE SMOOTH",
"299 1094 OFFCURVE",
"296 1091 OFFCURVE",
"293 1085 CURVE",
"272 1050 OFFCURVE",
"247 1010 OFFCURVE",
"218 969 CURVE",
"213 993 OFFCURVE",
"208 1016 OFFCURVE",
"204 1037 CURVE SMOOTH",
"196 1080 OFFCURVE",
"189 1112 OFFCURVE",
"168 1117 CURVE",
"155 1122 OFFCURVE",
"144 1123 OFFCURVE",
"133 1123 CURVE"
);
}
);
width = 447;
}
);
note = caron;
unicode = 02C7;
},
{
glyphname = dotlessi;
layers = (
{
layerId = "A436FB16-7E3F-4A25-90BC-0079C9B35420";
name = Regular;
paths = (
{
closed = 1;
nodes = (
"139 726 OFFCURVE",
"108 744 OFFCURVE",
"84 752 CURVE",
"60 761 OFFCURVE",
"50 756 OFFCURVE",
"43 727 CURVE",
"34 678 OFFCURVE",
"22 604 OFFCURVE",
"11 524 CURVE SMOOTH",
"-1 444 OFFCURVE",
"-12 356 OFFCURVE",
"-21 277 CURVE SMOOTH",
"-30 198 OFFCURVE",
"-37 128 OFFCURVE",
"-40 83 CURVE SMOOTH",
"-43 48 OFFCURVE",
"-38 32 OFFCURVE",
"-18 17 CURVE SMOOTH",
"1 2 OFFCURVE",
"22 -6 OFFCURVE",
"45 -15 CURVE",
"68 -23 OFFCURVE",
"73 -17 OFFCURVE",
"77 6 CURVE",
"85 65 OFFCURVE",
"95 139 OFFCURVE",
"107 218 CURVE SMOOTH",
"119 297 OFFCURVE",
"132 380 OFFCURVE",
"145 456 CURVE SMOOTH",
"157 531 OFFCURVE",
"169 600 OFFCURVE",
"180 649 CURVE",
"185 677 OFFCURVE",
"183 688 OFFCURVE",
"160 707 CURVE"
);
}
);
width = 208;
}
);
note = dotlessi;
unicode = 0131;
},
{
glyphname = fraction;
layers = (
{
layerId = "A436FB16-7E3F-4A25-90BC-0079C9B35420";
name = Regular;
paths = (
{
closed = 1;
nodes = (
"475 702 OFFCURVE",
"474 706 OFFCURVE",
"473 707 CURVE SMOOTH",
"472 708 OFFCURVE",
"471 709 OFFCURVE",
"470 709 CURVE SMOOTH",
"469 709 OFFCURVE",
"468 709 OFFCURVE",
"467 710 CURVE SMOOTH",
"466 711 OFFCURVE",
"463 714 OFFCURVE",
"460 719 CURVE SMOOTH",
"447 740 OFFCURVE",
"431 741 OFFCURVE",
"413 721 CURVE SMOOTH",
"380 685 OFFCURVE",
"329 621 OFFCURVE",
"273 546 CURVE SMOOTH",
"217 471 OFFCURVE",
"155 387 OFFCURVE",
"102 312 CURVE SMOOTH",
"49 237 OFFCURVE",
"3 173 OFFCURVE",
"-21 138 CURVE SMOOTH",
"-30 125 OFFCURVE",
"-36 113 OFFCURVE",
"-38 102 CURVE",
"-39 91 OFFCURVE",
"-39 81 OFFCURVE",
"-32 70 CURVE",
"-28 62 OFFCURVE",
"-28 66 OFFCURVE",
"-28 69 CURVE SMOOTH",
"-28 70 OFFCURVE",
"-27 71 OFFCURVE",
"-26 71 CURVE SMOOTH",
"-25 71 OFFCURVE",
"-23 69 OFFCURVE",
"-20 64 CURVE",
"-5 45 OFFCURVE",
"4 45 OFFCURVE",
"19 68 CURVE",
"51 111 OFFCURVE",
"101 176 OFFCURVE",
"157 248 CURVE SMOOTH",
"213 320 OFFCURVE",
"275 399 OFFCURVE",
"331 469 CURVE SMOOTH",
"387 539 OFFCURVE",
"437 600 OFFCURVE",
"468 636 CURVE SMOOTH",
"485 656 OFFCURVE",
"490 668 OFFCURVE",
"478 696 CURVE"
);
}
);
width = 563;
}
);
note = fraction;
unicode = 2215;
},
{
glyphname = fi;
layers = (
{
layerId = "A436FB16-7E3F-4A25-90BC-0079C9B35420";
name = Regular;
paths = (
{
closed = 1;
nodes = (
"3 7 OFFCURVE",
"27 -7 OFFCURVE",
"47 -12 CURVE SMOOTH",
"67 -17 OFFCURVE",
"84 -14 OFFCURVE",
"85 10 CURVE",
"96 82 OFFCURVE",
"110 175 OFFCURVE",
"127 271 CURVE",
"174 286 OFFCURVE",
"225 299 OFFCURVE",
"272 310 CURVE",
"295 314 OFFCURVE",
"300 322 OFFCURVE",
"293 349 CURVE",
"288 372 OFFCURVE",
"283 395 OFFCURVE",
"272 419 CURVE SMOOTH",
"253 459 OFFCURVE",
"215 446 OFFCURVE",
"191 443 CURVE",
"179 442 OFFCURVE",
"167 440 OFFCURVE",
"155 438 CURVE",
"162 469 OFFCURVE",
"167 498 OFFCURVE",
"172 526 CURVE SMOOTH",
"176 553 OFFCURVE",
"181 578 OFFCURVE",
"186 600 CURVE",
"207 604 OFFCURVE",
"243 611 OFFCURVE",
"283 619 CURVE SMOOTH",
"302 623 OFFCURVE",
"322 627 OFFCURVE",
"342 632 CURVE",
"362 636 OFFCURVE",
"381 640 OFFCURVE",
"398 643 CURVE",
"385 556 OFFCURVE",
"369 447 OFFCURVE",
"357 347 CURVE SMOOTH",
"345 246 OFFCURVE",
"335 152 OFFCURVE",
"332 96 CURVE SMOOTH",
"329 61 OFFCURVE",
"334 45 OFFCURVE",
"354 30 CURVE SMOOTH",
"373 15 OFFCURVE",
"394 7 OFFCURVE",
"417 -2 CURVE",
"440 -10 OFFCURVE",
"445 -4 OFFCURVE",
"449 19 CURVE",
"457 78 OFFCURVE",
"467 152 OFFCURVE",
"479 231 CURVE SMOOTH",
"491 310 OFFCURVE",
"504 393 OFFCURVE",
"517 469 CURVE SMOOTH",
"529 544 OFFCURVE",
"541 613 OFFCURVE",
"552 662 CURVE SMOOTH",
"560 694 OFFCURVE",
"543 730 OFFCURVE",
"515 756 CURVE SMOOTH",
"487 782 OFFCURVE",
"447 798 OFFCURVE",
"408 793 CURVE SMOOTH",
"363 786 OFFCURVE",
"285 774 OFFCURVE",
"212 761 CURVE SMOOTH",
"139 748 OFFCURVE",
"67 733 OFFCURVE",
"34 721 CURVE",
"35 669 OFFCURVE",
"29 594 OFFCURVE",
"20 511 CURVE SMOOTH",
"15 470 OFFCURVE",
"10 428 OFFCURVE",
"4 385 CURVE SMOOTH",
"-8 300 OFFCURVE",
"-19 221 OFFCURVE",
"-27 158 CURVE SMOOTH",
"-31 127 OFFCURVE",
"-34 102 OFFCURVE",
"-35 84 CURVE SMOOTH",
"-36 49 OFFCURVE",
"-35 34 OFFCURVE",
"-14 18 CURVE"
);
}
);
width = 604;
}
);
note = fi;
unicode = FB01;
},
{
glyphname = fl;
layers = (
{
layerId = "A436FB16-7E3F-4A25-90BC-0079C9B35420";
name = Regular;
paths = (
{
closed = 1;
nodes = (
"644 50 OFFCURVE",
"643 55 OFFCURVE",
"636 83 CURVE",
"632 106 OFFCURVE",
"625 130 OFFCURVE",
"614 153 CURVE SMOOTH",
"603 177 OFFCURVE",
"592 183 OFFCURVE",
"569 180 CURVE SMOOTH",
"529 176 OFFCURVE",
"496 171 OFFCURVE",
"457 162 CURVE",
"470 247 OFFCURVE",
"487 340 OFFCURVE",
"503 428 CURVE SMOOTH",
"519 516 OFFCURVE",
"535 600 OFFCURVE",
"550 665 CURVE SMOOTH",
"561 708 OFFCURVE",
"542 737 OFFCURVE",
"515 757 CURVE",
"487 776 OFFCURVE",
"451 783 OFFCURVE",
"424 782 CURVE SMOOTH",
"377 779 OFFCURVE",
"298 770 OFFCURVE",
"220 759 CURVE SMOOTH",
"142 747 OFFCURVE",
"67 733 OFFCURVE",
"34 721 CURVE",
"35 669 OFFCURVE",
"29 594 OFFCURVE",
"20 511 CURVE SMOOTH",
"15 470 OFFCURVE",
"10 428 OFFCURVE",
"4 385 CURVE SMOOTH",
"-8 300 OFFCURVE",
"-19 221 OFFCURVE",
"-27 158 CURVE SMOOTH",
"-31 127 OFFCURVE",
"-34 102 OFFCURVE",
"-35 84 CURVE SMOOTH",
"-36 49 OFFCURVE",
"-35 34 OFFCURVE",
"-14 18 CURVE",
"3 7 OFFCURVE",
"27 -7 OFFCURVE",
"47 -12 CURVE SMOOTH",
"67 -17 OFFCURVE",
"84 -14 OFFCURVE",
"85 10 CURVE",
"96 82 OFFCURVE",
"110 175 OFFCURVE",
"127 271 CURVE",
"174 286 OFFCURVE",
"225 299 OFFCURVE",
"272 310 CURVE",
"295 314 OFFCURVE",
"300 322 OFFCURVE",
"293 349 CURVE",
"288 372 OFFCURVE",
"283 395 OFFCURVE",
"272 419 CURVE SMOOTH",
"253 459 OFFCURVE",
"215 446 OFFCURVE",
"191 443 CURVE",
"179 442 OFFCURVE",
"167 440 OFFCURVE",
"155 438 CURVE",
"162 469 OFFCURVE",
"167 498 OFFCURVE",
"172 526 CURVE SMOOTH",
"176 553 OFFCURVE",
"181 578 OFFCURVE",
"186 600 CURVE",
"205 604 OFFCURVE",
"239 609 OFFCURVE",
"276 614 CURVE SMOOTH",
"295 617 OFFCURVE",
"314 619 OFFCURVE",
"334 622 CURVE SMOOTH",
"354 625 OFFCURVE",
"373 627 OFFCURVE",
"391 630 CURVE",
"376 547 OFFCURVE",
"360 452 OFFCURVE",
"348 362 CURVE SMOOTH",
"335 272 OFFCURVE",
"324 188 OFFCURVE",
"320 128 CURVE",
"316 96 OFFCURVE",
"324 74 OFFCURVE",
"339 55 CURVE SMOOTH",
"349 43 OFFCURVE",
"357 33 OFFCURVE",
"363 26 CURVE",
"375 10 OFFCURVE",
"388 -4 OFFCURVE",
"405 -12 CURVE",
"414 -17 OFFCURVE",
"428 -15 OFFCURVE",
"447 -7 CURVE",
"474 1 OFFCURVE",
"502 9 OFFCURVE",
"531 18 CURVE SMOOTH",
"560 26 OFFCURVE",
"589 34 OFFCURVE",
"617 42 CURVE SMOOTH"
);
}
);
width = 705;
}
);
note = fl;
unicode = FB02;
},
{
glyphname = Lslash;
layers = (
{
layerId = "A436FB16-7E3F-4A25-90BC-0079C9B35420";
name = Regular;
paths = (
{
closed = 1;
nodes = (
"-100 326 OFFCURVE",
"-40 297 OFFCURVE",
"16 272 CURVE SMOOTH",
"31 265 OFFCURVE",
"45 264 OFFCURVE",
"58 267 CURVE",
"51 214 OFFCURVE",
"46 166 OFFCURVE",
"43 127 CURVE",
"39 95 OFFCURVE",
"47 73 OFFCURVE",
"62 54 CURVE SMOOTH",
"72 42 OFFCURVE",
"80 32 OFFCURVE",
"86 25 CURVE",
"98 9 OFFCURVE",
"111 -5 OFFCURVE",
"128 -13 CURVE",
"137 -18 OFFCURVE",
"151 -16 OFFCURVE",
"170 -8 CURVE",
"197 0 OFFCURVE",
"225 8 OFFCURVE",
"254 17 CURVE SMOOTH",
"283 25 OFFCURVE",
"312 33 OFFCURVE",
"340 41 CURVE SMOOTH",
"367 49 OFFCURVE",
"366 54 OFFCURVE",
"359 82 CURVE",
"355 105 OFFCURVE",
"348 129 OFFCURVE",
"337 152 CURVE SMOOTH",
"326 176 OFFCURVE",
"315 182 OFFCURVE",
"292 179 CURVE SMOOTH",
"252 175 OFFCURVE",
"219 170 OFFCURVE",
"180 161 CURVE",
"191 229 OFFCURVE",
"203 303 OFFCURVE",
"216 376 CURVE",
"264 407 OFFCURVE",
"314 438 OFFCURVE",
"362 466 CURVE SMOOTH",
"389 481 OFFCURVE",
"396 490 OFFCURVE",
"377 509 CURVE SMOOTH",
"370 516 OFFCURVE",
"362 523 OFFCURVE",
"355 531 CURVE",
"347 539 OFFCURVE",
"337 547 OFFCURVE",
"324 554 CURVE",
"305 567 OFFCURVE",
"283 567 OFFCURVE",
"257 554 CURVE",
"256 553 OFFCURVE",
"254 552 OFFCURVE",
"253 552 CURVE",
"252 551 OFFCURVE",
"250 551 OFFCURVE",
"249 550 CURVE",
"257 591 OFFCURVE",
"265 629 OFFCURVE",
"273 664 CURVE SMOOTH",
"280 691 OFFCURVE",
"276 702 OFFCURVE",
"255 721 CURVE SMOOTH",
"234 740 OFFCURVE",
"203 756 OFFCURVE",
"179 764 CURVE",
"156 773 OFFCURVE",
"145 769 OFFCURVE",
"137 740 CURVE",
"120 664 OFFCURVE",
"101 560 OFFCURVE",
"85 453 CURVE",
"33 418 OFFCURVE",
"-14 387 OFFCURVE",
"-47 363 CURVE SMOOTH"
);
}
);
width = 440;
}
);
note = Lslash;
unicode = 0141;
},
{
glyphname = lslash;
layers = (
{
layerId = "A436FB16-7E3F-4A25-90BC-0079C9B35420";
name = Regular;
paths = (
{
closed = 1;
nodes = (
"-100 326 OFFCURVE",
"-40 297 OFFCURVE",
"16 272 CURVE SMOOTH",
"31 265 OFFCURVE",
"45 264 OFFCURVE",
"58 267 CURVE",
"51 214 OFFCURVE",
"46 166 OFFCURVE",
"43 127 CURVE",
"39 95 OFFCURVE",
"47 73 OFFCURVE",
"62 54 CURVE SMOOTH",
"72 42 OFFCURVE",
"80 32 OFFCURVE",
"86 25 CURVE",
"98 9 OFFCURVE",
"111 -5 OFFCURVE",
"128 -13 CURVE",
"137 -18 OFFCURVE",
"151 -16 OFFCURVE",
"170 -8 CURVE",
"197 0 OFFCURVE",
"225 8 OFFCURVE",
"254 17 CURVE SMOOTH",
"283 25 OFFCURVE",
"312 33 OFFCURVE",
"340 41 CURVE SMOOTH",
"367 49 OFFCURVE",
"366 54 OFFCURVE",
"359 82 CURVE",
"355 105 OFFCURVE",
"348 129 OFFCURVE",
"337 152 CURVE SMOOTH",
"326 176 OFFCURVE",
"315 182 OFFCURVE",
"292 179 CURVE SMOOTH",
"252 175 OFFCURVE",
"219 170 OFFCURVE",
"180 161 CURVE",
"191 229 OFFCURVE",
"203 303 OFFCURVE",
"216 376 CURVE",
"264 407 OFFCURVE",
"314 438 OFFCURVE",
"362 466 CURVE SMOOTH",
"389 481 OFFCURVE",
"396 490 OFFCURVE",
"377 509 CURVE SMOOTH",
"370 516 OFFCURVE",
"362 523 OFFCURVE",
"355 531 CURVE",
"347 539 OFFCURVE",
"337 547 OFFCURVE",
"324 554 CURVE",
"305 567 OFFCURVE",
"283 567 OFFCURVE",
"257 554 CURVE",
"256 553 OFFCURVE",
"254 552 OFFCURVE",
"253 552 CURVE",
"252 551 OFFCURVE",
"250 551 OFFCURVE",
"249 550 CURVE",
"257 591 OFFCURVE",
"265 629 OFFCURVE",
"273 664 CURVE SMOOTH",
"280 691 OFFCURVE",
"276 702 OFFCURVE",
"255 721 CURVE SMOOTH",
"234 740 OFFCURVE",
"203 756 OFFCURVE",
"179 764 CURVE",
"156 773 OFFCURVE",
"145 769 OFFCURVE",
"137 740 CURVE",
"120 664 OFFCURVE",
"101 560 OFFCURVE",
"85 453 CURVE",
"33 418 OFFCURVE",
"-14 387 OFFCURVE",
"-47 363 CURVE SMOOTH"
);
}
);
width = 440;
}
);
note = lslash;
unicode = 0142;
},
{
glyphname = Zcaron;
layers = (
{
layerId = "A436FB16-7E3F-4A25-90BC-0079C9B35420";
name = Regular;
paths = (
{
closed = 1;
nodes = (
"151 521 OFFCURVE",
"101 426 OFFCURVE",
"57 338 CURVE SMOOTH",
"13 250 OFFCURVE",
"-26 168 OFFCURVE",
"-47 116 CURVE SMOOTH",
"-60 85 OFFCURVE",
"-45 62 OFFCURVE",
"-33 43 CURVE",
"-14 19 OFFCURVE",
"-3 5 OFFCURVE",
"12 -11 CURVE SMOOTH",
"27 -26 OFFCURVE",
"40 -36 OFFCURVE",
"76 -23 CURVE SMOOTH",
"103 -14 OFFCURVE",
"132 -5 OFFCURVE",
"164 4 CURVE SMOOTH",
"195 12 OFFCURVE",
"225 20 OFFCURVE",
"253 28 CURVE",
"276 32 OFFCURVE",
"282 40 OFFCURVE",
"275 67 CURVE",
"271 90 OFFCURVE",
"263 113 OFFCURVE",
"252 138 CURVE SMOOTH",
"233 181 OFFCURVE",
"185 161 OFFCURVE",
"153 154 CURVE SMOOTH",
"137 150 OFFCURVE",
"121 145 OFFCURVE",
"105 140 CURVE",
"186 293 OFFCURVE",
"275 454 OFFCURVE",
"355 595 CURVE SMOOTH",
"370 620 OFFCURVE",
"369 641 OFFCURVE",
"362 665 CURVE",
"359 674 OFFCURVE",
"357 684 OFFCURVE",
"354 695 CURVE SMOOTH",
"349 716 OFFCURVE",
"338 747 OFFCURVE",
"327 756 CURVE SMOOTH",
"321 761 OFFCURVE",
"312 763 OFFCURVE",
"301 762 CURVE SMOOTH",
"258 759 OFFCURVE",
"210 755 OFFCURVE",
"163 748 CURVE SMOOTH",
"115 741 OFFCURVE",
"70 732 OFFCURVE",
"34 721 CURVE",
"19 714 OFFCURVE",
"14 709 OFFCURVE",
"21 685 CURVE",
"29 661 OFFCURVE",
"45 624 OFFCURVE",
"53 605 CURVE",
"68 581 OFFCURVE",
"86 576 OFFCURVE",
"107 581 CURVE",
"121 585 OFFCURVE",
"135 588 OFFCURVE",
"150 591 CURVE SMOOTH",
"165 594 OFFCURVE",
"181 597 OFFCURVE",
"198 601 CURVE"
);
},
{
closed = 1;
nodes = (
"122 1094 OFFCURVE",
"117 1087 OFFCURVE",
"120 1074 CURVE SMOOTH",
"125 1049 OFFCURVE",
"132 1016 OFFCURVE",
"140 980 CURVE SMOOTH",
"147 944 OFFCURVE",
"154 906 OFFCURVE",
"158 873 CURVE SMOOTH",
"161 852 OFFCURVE",
"164 846 OFFCURVE",
"172 834 CURVE",
"177 829 OFFCURVE",
"182 824 OFFCURVE",
"187 820 CURVE SMOOTH",
"192 816 OFFCURVE",
"197 811 OFFCURVE",
"202 806 CURVE",
"213 798 OFFCURVE",
"219 797 OFFCURVE",
"230 812 CURVE",
"251 837 OFFCURVE",
"273 870 OFFCURVE",
"292 902 CURVE SMOOTH",
"311 933 OFFCURVE",
"328 963 OFFCURVE",
"339 984 CURVE SMOOTH",
"351 1007 OFFCURVE",
"334 1028 OFFCURVE",
"327 1039 CURVE",
"319 1050 OFFCURVE",
"308 1064 OFFCURVE",
"303 1064 CURVE SMOOTH",
"299 1064 OFFCURVE",
"296 1061 OFFCURVE",
"293 1055 CURVE",
"272 1020 OFFCURVE",
"247 980 OFFCURVE",
"218 939 CURVE",
"213 963 OFFCURVE",
"208 986 OFFCURVE",
"204 1007 CURVE SMOOTH",
"196 1050 OFFCURVE",
"189 1082 OFFCURVE",
"168 1087 CURVE",
"155 1092 OFFCURVE",
"144 1093 OFFCURVE",
"133 1093 CURVE"
);
}
);
width = 375;
}
);
note = Zcaron;
unicode = 017D;
},
{
glyphname = zcaron;
layers = (
{
layerId = "A436FB16-7E3F-4A25-90BC-0079C9B35420";
name = Regular;
paths = (
{
closed = 1;
nodes = (
"151 521 OFFCURVE",
"101 426 OFFCURVE",
"57 338 CURVE SMOOTH",
"13 250 OFFCURVE",
"-26 168 OFFCURVE",
"-47 116 CURVE SMOOTH",
"-60 85 OFFCURVE",
"-45 62 OFFCURVE",
"-33 43 CURVE",
"-14 19 OFFCURVE",
"-3 5 OFFCURVE",
"12 -11 CURVE SMOOTH",
"27 -26 OFFCURVE",
"40 -36 OFFCURVE",
"76 -23 CURVE SMOOTH",
"103 -14 OFFCURVE",
"132 -5 OFFCURVE",
"164 4 CURVE SMOOTH",
"195 12 OFFCURVE",
"225 20 OFFCURVE",
"253 28 CURVE",
"276 32 OFFCURVE",
"282 40 OFFCURVE",
"275 67 CURVE",
"271 90 OFFCURVE",
"263 113 OFFCURVE",
"252 138 CURVE SMOOTH",
"233 181 OFFCURVE",
"185 161 OFFCURVE",
"153 154 CURVE SMOOTH",
"137 150 OFFCURVE",
"121 145 OFFCURVE",
"105 140 CURVE",
"186 293 OFFCURVE",
"275 454 OFFCURVE",
"355 595 CURVE SMOOTH",
"370 620 OFFCURVE",
"369 641 OFFCURVE",
"362 665 CURVE",
"359 674 OFFCURVE",
"357 684 OFFCURVE",
"354 695 CURVE SMOOTH",
"349 716 OFFCURVE",
"338 747 OFFCURVE",
"327 756 CURVE SMOOTH",
"321 761 OFFCURVE",
"312 763 OFFCURVE",
"301 762 CURVE SMOOTH",
"258 759 OFFCURVE",
"210 755 OFFCURVE",
"163 748 CURVE SMOOTH",
"115 741 OFFCURVE",
"70 732 OFFCURVE",
"34 721 CURVE",
"19 714 OFFCURVE",
"14 709 OFFCURVE",
"21 685 CURVE",
"29 661 OFFCURVE",
"45 624 OFFCURVE",
"53 605 CURVE",
"68 581 OFFCURVE",
"86 576 OFFCURVE",
"107 581 CURVE",
"121 585 OFFCURVE",
"135 588 OFFCURVE",
"150 591 CURVE SMOOTH",
"165 594 OFFCURVE",
"181 597 OFFCURVE",
"198 601 CURVE"
);
},
{
closed = 1;
nodes = (
"122 1094 OFFCURVE",
"117 1087 OFFCURVE",
"120 1074 CURVE SMOOTH",
"125 1049 OFFCURVE",
"132 1016 OFFCURVE",
"140 980 CURVE SMOOTH",
"147 944 OFFCURVE",
"154 906 OFFCURVE",
"158 873 CURVE SMOOTH",
"161 852 OFFCURVE",
"164 846 OFFCURVE",
"172 834 CURVE",
"177 829 OFFCURVE",
"182 824 OFFCURVE",
"187 820 CURVE SMOOTH",
"192 816 OFFCURVE",
"197 811 OFFCURVE",
"202 806 CURVE",
"213 798 OFFCURVE",
"219 797 OFFCURVE",
"230 812 CURVE",
"251 837 OFFCURVE",
"273 870 OFFCURVE",
"292 902 CURVE SMOOTH",
"311 933 OFFCURVE",
"328 963 OFFCURVE",
"339 984 CURVE SMOOTH",
"351 1007 OFFCURVE",
"334 1028 OFFCURVE",
"327 1039 CURVE",
"319 1050 OFFCURVE",
"308 1064 OFFCURVE",
"303 1064 CURVE SMOOTH",
"299 1064 OFFCURVE",
"296 1061 OFFCURVE",
"293 1055 CURVE",
"272 1020 OFFCURVE",
"247 980 OFFCURVE",
"218 939 CURVE",
"213 963 OFFCURVE",
"208 986 OFFCURVE",
"204 1007 CURVE SMOOTH",
"196 1050 OFFCURVE",
"189 1082 OFFCURVE",
"168 1087 CURVE",
"155 1092 OFFCURVE",
"144 1093 OFFCURVE",
"133 1093 CURVE"
);
}
);
width = 375;
}
);
note = zcaron;
unicode = 017E;
},
{
glyphname = exclam;
layers = (
{
layerId = "A436FB16-7E3F-4A25-90BC-0079C9B35420";
name = Regular;
paths = (
{
closed = 1;
nodes = (
"184 780 OFFCURVE",
"154 796 OFFCURVE",
"131 804 CURVE",
"106 815 OFFCURVE",
"97 809 OFFCURVE",
"90 778 CURVE SMOOTH",
"77 711 OFFCURVE",
"60 619 OFFCURVE",
"45 527 CURVE SMOOTH",
"30 434 OFFCURVE",
"16 339 OFFCURVE",
"8 270 CURVE SMOOTH",
"3 235 OFFCURVE",
"8 220 OFFCURVE",
"28 205 CURVE SMOOTH",
"47 191 OFFCURVE",
"67 181 OFFCURVE",
"90 175 CURVE",
"110 168 OFFCURVE",
"118 172 OFFCURVE",
"122 199 CURVE SMOOTH",
"134 272 OFFCURVE",
"151 357 OFFCURVE",
"169 443 CURVE SMOOTH",
"187 529 OFFCURVE",
"205 616 OFFCURVE",
"224 697 CURVE SMOOTH",
"231 725 OFFCURVE",
"226 742 OFFCURVE",
"205 761 CURVE SMOOTH"
);
},
{
closed = 1;
nodes = (
"-31 0 OFFCURVE",
"3 -37 OFFCURVE",
"44 -36 CURVE SMOOTH",
"64 -36 OFFCURVE",
"80 -25 OFFCURVE",
"92 -10 CURVE",
"103 5 OFFCURVE",
"110 23 OFFCURVE",
"113 35 CURVE SMOOTH",
"117 51 OFFCURVE",
"117 74 OFFCURVE",
"110 95 CURVE",
"102 115 OFFCURVE",
"88 135 OFFCURVE",
"64 144 CURVE",
"36 156 OFFCURVE",
"14 149 OFFCURVE",
"-1 133 CURVE SMOOTH",
"-17 117 OFFCURVE",
"-27 91 OFFCURVE",
"-28 64 CURVE SMOOTH"
);
}
);
width = 267;
}
);
note = exclam;
unicode = 0021;
},
{
glyphname = quotedbl;
layers = (
{
layerId = "A436FB16-7E3F-4A25-90BC-0079C9B35420";
name = Regular;
paths = (
{
closed = 1;
nodes = (
"145 622 OFFCURVE",
"157 652 OFFCURVE",
"166 684 CURVE",
"174 707 OFFCURVE",
"181 733 OFFCURVE",
"185 757 CURVE SMOOTH",
"189 780 OFFCURVE",
"191 800 OFFCURVE",
"190 811 CURVE",
"189 831 OFFCURVE",
"170 851 OFFCURVE",
"155 864 CURVE",
"140 876 OFFCURVE",
"120 892 OFFCURVE",
"108 889 CURVE",
"101 888 OFFCURVE",
"97 880 OFFCURVE",
"95 866 CURVE",
"88 829 OFFCURVE",
"78 778 OFFCURVE",
"67 729 CURVE SMOOTH",
"55 680 OFFCURVE",
"43 632 OFFCURVE",
"35 601 CURVE SMOOTH",
"30 580 OFFCURVE",
"36 568 OFFCURVE",
"55 565 CURVE",
"70 562 OFFCURVE",
"88 564 OFFCURVE",
"100 568 CURVE",
"115 571 OFFCURVE",
"127 582 OFFCURVE",
"136 602 CURVE SMOOTH"
);
},
{
closed = 1;
nodes = (
"292 589 OFFCURVE",
"306 617 OFFCURVE",
"319 648 CURVE SMOOTH",
"332 679 OFFCURVE",
"343 711 OFFCURVE",
"350 738 CURVE",
"353 757 OFFCURVE",
"355 768 OFFCURVE",
"355 771 CURVE SMOOTH",
"355 779 OFFCURVE",
"351 790 OFFCURVE",
"344 803 CURVE",
"333 818 OFFCURVE",
"320 833 OFFCURVE",
"303 846 CURVE",
"284 863 OFFCURVE",
"272 859 OFFCURVE",
"265 836 CURVE SMOOTH",
"254 801 OFFCURVE",
"239 754 OFFCURVE",
"223 707 CURVE SMOOTH",
"207 659 OFFCURVE",
"190 614 OFFCURVE",
"178 586 CURVE",
"170 565 OFFCURVE",
"176 552 OFFCURVE",
"196 547 CURVE",
"211 544 OFFCURVE",
"227 541 OFFCURVE",
"242 544 CURVE",
"257 545 OFFCURVE",
"270 555 OFFCURVE",
"281 572 CURVE SMOOTH"
);
}
);
width = 374;
}
);
note = quotedbl;
unicode = 0022;
},
{
glyphname = numbersign;
layers = (
{
layerId = "A436FB16-7E3F-4A25-90BC-0079C9B35420";
name = Regular;
paths = (
{
closed = 1;
nodes = (
"408 460 OFFCURVE",
"396 459 OFFCURVE",
"384 458 CURVE SMOOTH",
"372 457 OFFCURVE",
"360 455 OFFCURVE",
"347 454 CURVE",
"339 415 OFFCURVE",
"331 376 OFFCURVE",
"324 337 CURVE",
"359 336 OFFCURVE",
"369 323 OFFCURVE",
"384 292 CURVE SMOOTH",
"395 271 OFFCURVE",
"392 263 OFFCURVE",
"372 259 CURVE",
"361 258 OFFCURVE",
"351 256 OFFCURVE",
"340 255 CURVE",
"329 253 OFFCURVE",
"318 251 OFFCURVE",
"307 250 CURVE",
"302 220 OFFCURVE",
"297 193 OFFCURVE",
"292 168 CURVE SMOOTH",
"287 143 OFFCURVE",
"283 119 OFFCURVE",
"280 98 CURVE",
"275 74 OFFCURVE",
"267 74 OFFCURVE",
"251 85 CURVE SMOOTH",
"228 100 OFFCURVE",
"215 119 OFFCURVE",
"212 151 CURVE SMOOTH",
"211 162 OFFCURVE",
"212 175 OFFCURVE",
"213 191 CURVE",
"214 198 OFFCURVE",
"215 204 OFFCURVE",
"216 211 CURVE SMOOTH",
"217 217 OFFCURVE",
"218 224 OFFCURVE",
"219 232 CURVE",
"206 227 OFFCURVE",
"192 224 OFFCURVE",
"179 222 CURVE",
"165 219 OFFCURVE",
"151 216 OFFCURVE",
"138 211 CURVE",
"134 186 OFFCURVE",
"130 163 OFFCURVE",
"127 142 CURVE SMOOTH",
"124 120 OFFCURVE",
"120 99 OFFCURVE",
"117 80 CURVE",
"112 56 OFFCURVE",
"106 56 OFFCURVE",
"89 67 CURVE SMOOTH",
"60 86 OFFCURVE",
"41 113 OFFCURVE",
"48 172 CURVE",
"49 186 LINE",
"17 179 OFFCURVE",
"0 199 OFFCURVE",
"-19 234 CURVE",
"-30 257 OFFCURVE",
"-29 264 OFFCURVE",
"-9 271 CURVE",
"2 276 OFFCURVE",
"14 279 OFFCURVE",
"26 282 CURVE SMOOTH",
"38 285 OFFCURVE",
"51 288 OFFCURVE",
"64 293 CURVE",
"67 310 OFFCURVE",
"70 328 OFFCURVE",
"73 347 CURVE SMOOTH",
"76 365 OFFCURVE",
"79 384 OFFCURVE",
"82 403 CURVE",
"82 402 OFFCURVE",
"81 402 OFFCURVE",
"79 402 CURVE",
"36 391 OFFCURVE",
"20 412 OFFCURVE",
"1 451 CURVE SMOOTH",
"-11 474 OFFCURVE",
"-9 480 OFFCURVE",
"12 487 CURVE",
"24 492 OFFCURVE",
"38 495 OFFCURVE",
"53 498 CURVE SMOOTH",
"68 501 OFFCURVE",
"85 504 OFFCURVE",
"102 509 CURVE",
"114 573 OFFCURVE",
"126 631 OFFCURVE",
"138 679 CURVE SMOOTH",
"150 724 OFFCURVE",
"190 678 OFFCURVE",
"206 644 CURVE SMOOTH",
"221 610 OFFCURVE",
"208 565 OFFCURVE",
"197 526 CURVE",
"210 527 OFFCURVE",
"224 529 OFFCURVE",
"237 531 CURVE",
"250 532 OFFCURVE",
"262 534 OFFCURVE",
"274 535 CURVE",
"286 596 OFFCURVE",
"300 655 OFFCURVE",
"312 702 CURVE SMOOTH",
"324 747 OFFCURVE",
"366 700 OFFCURVE",
"380 665 CURVE SMOOTH",
"387 647 OFFCURVE",
"387 626 OFFCURVE",
"381 602 CURVE",
"378 593 OFFCURVE",
"376 583 OFFCURVE",
"374 573 CURVE SMOOTH",
"372 563 OFFCURVE",
"369 552 OFFCURVE",
"366 541 CURVE",
"407 540 OFFCURVE",
"417 524 OFFCURVE",
"432 492 CURVE SMOOTH",
"443 469 OFFCURVE",
"439 464 OFFCURVE",
"419 461 CURVE"
);
},
{
closed = 1;
nodes = (
"241 436 OFFCURVE",
"228 434 OFFCURVE",
"215 432 CURVE SMOOTH",
"202 430 OFFCURVE",
"189 427 OFFCURVE",
"176 424 CURVE",
"173 405 OFFCURVE",
"169 386 OFFCURVE",
"166 369 CURVE SMOOTH",
"163 352 OFFCURVE",
"159 333 OFFCURVE",
"156 314 CURVE",
"183 319 OFFCURVE",
"210 324 OFFCURVE",
"235 328 CURVE",
"240 365 OFFCURVE",
"247 400 OFFCURVE",
"255 439 CURVE"
);
}
);
width = 478;
}
);
note = numbersign;
unicode = 0023;
},
{
glyphname = dollar;
layers = (
{
layerId = "A436FB16-7E3F-4A25-90BC-0079C9B35420";
name = Regular;
paths = (
{
closed = 1;
nodes = (
"130 667 OFFCURVE",
"117 661 OFFCURVE",
"106 653 CURVE",
"59 616 OFFCURVE",
"25 548 OFFCURVE",
"8 488 CURVE",
"-5 420 OFFCURVE",
"16 363 OFFCURVE",
"51 324 CURVE SMOOTH",
"64 309 OFFCURVE",
"78 296 OFFCURVE",
"94 283 CURVE SMOOTH",
"126 258 OFFCURVE",
"154 236 OFFCURVE",
"168 219 CURVE SMOOTH",
"175 210 OFFCURVE",
"176 203 OFFCURVE",
"171 197 CURVE SMOOTH",
"164 188 OFFCURVE",
"149 186 OFFCURVE",
"127 193 CURVE",
"105 199 OFFCURVE",
"81 213 OFFCURVE",
"54 235 CURVE",
"35 254 OFFCURVE",
"1 260 OFFCURVE",
"-20 241 CURVE",
"-26 236 OFFCURVE",
"-29 228 OFFCURVE",
"-29 218 CURVE SMOOTH",
"-29 199 OFFCURVE",
"1 157 OFFCURVE",
"23 136 CURVE SMOOTH",
"34 125 OFFCURVE",
"45 116 OFFCURVE",
"56 108 CURVE",
"53 92 OFFCURVE",
"52 78 OFFCURVE",
"51 59 CURVE SMOOTH",
"48 11 OFFCURVE",
"58 -41 OFFCURVE",
"89 -64 CURVE SMOOTH",
"106 -77 OFFCURVE",
"115 -75 OFFCURVE",
"118 -51 CURVE SMOOTH",
"122 -16 OFFCURVE",
"130 34 OFFCURVE",
"138 77 CURVE",
"139 76 OFFCURVE",
"141 76 OFFCURVE",
"146 76 CURVE SMOOTH",
"155 76 LINE SMOOTH",
"191 76 OFFCURVE",
"217 92 OFFCURVE",
"235 113 CURVE SMOOTH",
"253 133 OFFCURVE",
"264 160 OFFCURVE",
"271 180 CURVE",
"283 229 OFFCURVE",
"264 264 OFFCURVE",
"235 295 CURVE SMOOTH",
"220 310 OFFCURVE",
"204 325 OFFCURVE",
"186 340 CURVE SMOOTH",
"150 369 OFFCURVE",
"117 403 OFFCURVE",
"120 444 CURVE SMOOTH",
"123 484 OFFCURVE",
"141 520 OFFCURVE",
"162 541 CURVE",
"172 552 OFFCURVE",
"180 556 OFFCURVE",
"186 553 CURVE",
"189 551 OFFCURVE",
"191 546 OFFCURVE",
"191 539 CURVE",
"194 516 OFFCURVE",
"189 479 OFFCURVE",
"186 455 CURVE",
"183 407 OFFCURVE",
"209 379 OFFCURVE",
"244 360 CURVE",
"271 348 OFFCURVE",
"276 380 OFFCURVE",
"281 405 CURVE SMOOTH",
"285 429 OFFCURVE",
"290 456 OFFCURVE",
"292 482 CURVE SMOOTH",
"293 495 OFFCURVE",
"293 506 OFFCURVE",
"293 517 CURVE SMOOTH",
"293 542 OFFCURVE",
"291 573 OFFCURVE",
"264 604 CURVE SMOOTH",
"253 616 OFFCURVE",
"244 625 OFFCURVE",
"236 631 CURVE",
"241 656 OFFCURVE",
"245 683 OFFCURVE",
"248 703 CURVE SMOOTH",
"255 751 OFFCURVE",
"239 786 OFFCURVE",
"212 809 CURVE",
"179 840 OFFCURVE",
"173 788 OFFCURVE",
"162 740 CURVE SMOOTH",
"157 715 OFFCURVE",
"151 691 OFFCURVE",
"146 668 CURVE"
);
}
);
width = 369;
}
);
note = dollar;
unicode = 0024;
},
{
glyphname = percent;
layers = (
{
layerId = "A436FB16-7E3F-4A25-90BC-0079C9B35420";
name = Regular;
paths = (
{
closed = 1;
nodes = (
"482 649 OFFCURVE",
"474 687 OFFCURVE",
"451 722 CURVE",
"439 742 OFFCURVE",
"427 743 OFFCURVE",
"416 726 CURVE SMOOTH",
"395 694 OFFCURVE",
"369 671 OFFCURVE",
"343 656 CURVE SMOOTH",
"317 640 OFFCURVE",
"292 633 OFFCURVE",
"273 636 CURVE",
"250 638 OFFCURVE",
"232 650 OFFCURVE",
"220 673 CURVE SMOOTH",
"211 690 OFFCURVE",
"203 704 OFFCURVE",
"196 714 CURVE",
"182 729 OFFCURVE",
"163 741 OFFCURVE",
"138 748 CURVE SMOOTH",
"123 752 OFFCURVE",
"101 746 OFFCURVE",
"86 733 CURVE",
"54 701 OFFCURVE",
"31 648 OFFCURVE",
"19 593 CURVE SMOOTH",
"7 537 OFFCURVE",
"8 479 OFFCURVE",
"24 436 CURVE",
"33 417 OFFCURVE",
"45 397 OFFCURVE",
"57 386 CURVE SMOOTH",
"72 373 OFFCURVE",
"93 365 OFFCURVE",
"110 360 CURVE",
"162 351 OFFCURVE",
"189 390 OFFCURVE",
"203 421 CURVE SMOOTH",
"217 452 OFFCURVE",
"225 488 OFFCURVE",
"229 526 CURVE SMOOTH",
"231 545 OFFCURVE",
"232 563 OFFCURVE",
"232 581 CURVE",
"265 566 OFFCURVE",
"303 571 OFFCURVE",
"335 595 CURVE",
"288 516 OFFCURVE",
"236 424 OFFCURVE",
"189 337 CURVE SMOOTH",
"142 249 OFFCURVE",
"101 170 OFFCURVE",
"77 119 CURVE SMOOTH",
"54 67 OFFCURVE",
"65 37 OFFCURVE",
"89 8 CURVE",
"104 -5 OFFCURVE",
"109 -9 OFFCURVE",
"120 8 CURVE",
"141 53 OFFCURVE",
"177 120 OFFCURVE",
"218 196 CURVE SMOOTH",
"259 271 OFFCURVE",
"305 353 OFFCURVE",
"348 427 CURVE SMOOTH",
"391 501 OFFCURVE",
"431 567 OFFCURVE",
"458 610 CURVE SMOOTH"
);
},
{
closed = 1;
nodes = (
"494 305 OFFCURVE",
"485 329 OFFCURVE",
"468 348 CURVE SMOOTH",
"456 361 OFFCURVE",
"433 375 OFFCURVE",
"412 382 CURVE",
"396 386 OFFCURVE",
"373 380 OFFCURVE",
"358 367 CURVE",
"325 335 OFFCURVE",
"301 282 OFFCURVE",
"289 227 CURVE SMOOTH",
"277 171 OFFCURVE",
"277 113 OFFCURVE",
"292 70 CURVE SMOOTH",
"299 49 OFFCURVE",
"310 32 OFFCURVE",
"323 20 CURVE SMOOTH",
"338 7 OFFCURVE",
"357 0 OFFCURVE",
"376 -4 CURVE SMOOTH",
"425 -16 OFFCURVE",
"453 25 OFFCURVE",
"468 55 CURVE SMOOTH",
"483 85 OFFCURVE",
"493 120 OFFCURVE",
"498 157 CURVE SMOOTH",
"500 176 OFFCURVE",
"501 194 OFFCURVE",
"501 212 CURVE SMOOTH",
"501 237 OFFCURVE",
"500 260 OFFCURVE",
"497 281 CURVE SMOOTH"
);
},
{
closed = 1;
nodes = (
"153 671 OFFCURVE",
"156 666 OFFCURVE",
"157 657 CURVE SMOOTH",
"158 648 OFFCURVE",
"159 637 OFFCURVE",
"159 624 CURVE SMOOTH",
"159 599 OFFCURVE",
"155 567 OFFCURVE",
"151 535 CURVE",
"144 497 OFFCURVE",
"136 469 OFFCURVE",
"127 451 CURVE SMOOTH",
"108 415 OFFCURVE",
"87 424 OFFCURVE",
"87 476 CURVE",
"86 501 OFFCURVE",
"89 532 OFFCURVE",
"96 568 CURVE SMOOTH",
"101 593 OFFCURVE",
"112 622 OFFCURVE",
"122 643 CURVE SMOOTH",
"127 653 OFFCURVE",
"132 661 OFFCURVE",
"137 667 CURVE SMOOTH",
"142 673 OFFCURVE",
"146 675 OFFCURVE",
"149 673 CURVE"
);
},
{
closed = 1;
nodes = (
"424 305 OFFCURVE",
"427 299 OFFCURVE",
"428 290 CURVE",
"431 271 OFFCURVE",
"430 244 OFFCURVE",
"427 213 CURVE SMOOTH",
"425 197 OFFCURVE",
"422 182 OFFCURVE",
"419 168 CURVE SMOOTH",
"412 131 OFFCURVE",
"403 104 OFFCURVE",
"393 85 CURVE SMOOTH",
"373 48 OFFCURVE",
"353 58 OFFCURVE",
"353 109 CURVE SMOOTH",
"353 136 OFFCURVE",
"357 167 OFFCURVE",
"366 202 CURVE",
"371 227 OFFCURVE",
"381 256 OFFCURVE",
"392 277 CURVE",
"397 288 OFFCURVE",
"403 296 OFFCURVE",
"408 302 CURVE",
"413 307 OFFCURVE",
"418 309 OFFCURVE",
"421 307 CURVE SMOOTH"
);
}
);
width = 593;
}
);
note = percent;
unicode = 0025;
},
{
glyphname = ampersand;
layers = (
{
layerId = "A436FB16-7E3F-4A25-90BC-0079C9B35420";
name = Regular;
paths = (
{
closed = 1;
nodes = (
"278 31 OFFCURVE",
"246 12 OFFCURVE",
"211 0 CURVE",
"187 -11 OFFCURVE",
"159 -20 OFFCURVE",
"129 -17 CURVE SMOOTH",
"99 -14 OFFCURVE",
"65 1 OFFCURVE",
"29 37 CURVE",
"-48 121 OFFCURVE",
"-45 203 OFFCURVE",
"2 283 CURVE SMOOTH",
"26 322 OFFCURVE",
"60 354 OFFCURVE",
"99 385 CURVE",
"90 404 OFFCURVE",
"83 420 OFFCURVE",
"78 431 CURVE",
"43 516 OFFCURVE",
"39 575 OFFCURVE",
"66 644 CURVE SMOOTH",
"91 708 OFFCURVE",
"146 754 OFFCURVE",
"202 769 CURVE SMOOTH",
"227 776 OFFCURVE",
"251 779 OFFCURVE",
"274 772 CURVE",
"297 764 OFFCURVE",
"320 746 OFFCURVE",
"347 710 CURVE SMOOTH",
"411 625 OFFCURVE",
"416 533 OFFCURVE",
"365 457 CURVE SMOOTH",
"338 414 OFFCURVE",
"291 376 OFFCURVE",
"248 341 CURVE",
"268 304 OFFCURVE",
"290 268 OFFCURVE",
"313 233 CURVE",
"323 243 OFFCURVE",
"333 253 OFFCURVE",
"342 264 CURVE SMOOTH",
"360 285 OFFCURVE",
"384 314 OFFCURVE",
"396 314 CURVE SMOOTH",
"403 314 OFFCURVE",
"409 309 OFFCURVE",
"413 300 CURVE SMOOTH",
"432 256 OFFCURVE",
"419 211 OFFCURVE",
"398 168 CURVE",
"395 163 OFFCURVE",
"392 157 OFFCURVE",
"389 152 CURVE SMOOTH",
"386 147 OFFCURVE",
"383 142 OFFCURVE",
"380 137 CURVE",
"389 126 OFFCURVE",
"397 115 OFFCURVE",
"404 106 CURVE",
"411 96 OFFCURVE",
"418 86 OFFCURVE",
"425 77 CURVE SMOOTH",
"444 54 OFFCURVE",
"442 45 OFFCURVE",
"427 30 CURVE SMOOTH",
"412 15 OFFCURVE",
"403 7 OFFCURVE",
"383 2 CURVE",
"363 -1 OFFCURVE",
"352 7 OFFCURVE",
"325 35 CURVE",
"320 42 OFFCURVE",
"314 49 OFFCURVE",
"307 56 CURVE"
);
},
{
closed = 1;
nodes = (
"191 456 LINE",
"218 476 OFFCURVE",
"243 497 OFFCURVE",
"260 520 CURVE",
"272 533 OFFCURVE",
"284 557 OFFCURVE",
"288 581 CURVE SMOOTH",
"292 605 OFFCURVE",
"290 631 OFFCURVE",
"274 654 CURVE",
"257 649 OFFCURVE",
"237 637 OFFCURVE",
"221 622 CURVE SMOOTH",
"204 607 OFFCURVE",
"190 588 OFFCURVE",
"183 571 CURVE SMOOTH",
"170 540 OFFCURVE",
"172 504 OFFCURVE",
"188 463 CURVE SMOOTH"
);
},
{
closed = 1;
nodes = (
"207 194 OFFCURVE",
"186 229 OFFCURVE",
"163 268 CURVE",
"112 217 OFFCURVE",
"93 173 OFFCURVE",
"93 142 CURVE SMOOTH",
"93 133 OFFCURVE",
"95 126 OFFCURVE",
"98 121 CURVE",
"106 110 OFFCURVE",
"122 108 OFFCURVE",
"146 116 CURVE",
"170 123 OFFCURVE",
"198 139 OFFCURVE",
"230 162 CURVE"
);
}
);
width = 519;
}
);
note = ampersand;
unicode = 0026;
},
{
glyphname = quotesingle;
layers = (
{
layerId = "A436FB16-7E3F-4A25-90BC-0079C9B35420";
name = Regular;
paths = (
{
closed = 1;
nodes = (
"140 589 OFFCURVE",
"154 617 OFFCURVE",
"167 648 CURVE SMOOTH",
"180 679 OFFCURVE",
"191 711 OFFCURVE",
"198 738 CURVE",
"201 757 OFFCURVE",
"203 768 OFFCURVE",
"203 771 CURVE SMOOTH",
"203 779 OFFCURVE",
"199 790 OFFCURVE",
"192 803 CURVE",
"181 818 OFFCURVE",
"168 833 OFFCURVE",
"151 846 CURVE",
"132 863 OFFCURVE",
"120 859 OFFCURVE",
"113 836 CURVE SMOOTH",
"102 801 OFFCURVE",
"86 754 OFFCURVE",
"70 707 CURVE SMOOTH",
"54 660 OFFCURVE",
"38 615 OFFCURVE",
"27 586 CURVE SMOOTH",
"19 565 OFFCURVE",
"25 552 OFFCURVE",
"44 547 CURVE",
"60 544 OFFCURVE",
"75 541 OFFCURVE",
"90 544 CURVE",
"105 545 OFFCURVE",
"118 555 OFFCURVE",
"129 572 CURVE SMOOTH"
);
}
);
width = 212;
}
);
note = quotesingle;
unicode = 0027;
},
{
glyphname = parenleft;
layers = (
{
layerId = "A436FB16-7E3F-4A25-90BC-0079C9B35420";
name = Regular;
paths = (
{
closed = 1;
nodes = (
"69 705 OFFCURVE",
"27 571 OFFCURVE",
"13 433 CURVE SMOOTH",
"-1 295 OFFCURVE",
"13 154 OFFCURVE",
"60 38 CURVE",
"87 -22 OFFCURVE",
"122 -36 OFFCURVE",
"155 -33 CURVE",
"174 -29 OFFCURVE",
"177 -27 OFFCURVE",
"168 -4 CURVE SMOOTH",
"129 93 OFFCURVE",
"118 210 OFFCURVE",
"126 326 CURVE SMOOTH",
"134 441 OFFCURVE",
"161 553 OFFCURVE",
"201 644 CURVE SMOOTH",
"224 696 OFFCURVE",
"217 751 OFFCURVE",
"180 808 CURVE SMOOTH",
"164 833 OFFCURVE",
"150 835 OFFCURVE",
"137 812 CURVE"
);
}
);
width = 243;
}
);
note = parenleft;
unicode = 0028;
},
{
glyphname = parenright;
layers = (
{
layerId = "A436FB16-7E3F-4A25-90BC-0079C9B35420";
name = Regular;
paths = (
{
closed = 1;
nodes = (
"164 738 OFFCURVE",
"128 791 OFFCURVE",
"63 806 CURVE",
"31 815 OFFCURVE",
"31 796 OFFCURVE",
"38 767 CURVE SMOOTH",
"67 643 OFFCURVE",
"73 493 OFFCURVE",
"58 353 CURVE SMOOTH",
"42 212 OFFCURVE",
"4 82 OFFCURVE",
"-49 -2 CURVE",
"-60 -21 OFFCURVE",
"-55 -33 OFFCURVE",
"-35 -36 CURVE SMOOTH",
"44 -47 OFFCURVE",
"90 27 OFFCURVE",
"130 134 CURVE SMOOTH",
"170 241 OFFCURVE",
"192 364 OFFCURVE",
"194 491 CURVE SMOOTH",
"195 554 OFFCURVE",
"190 614 OFFCURVE",
"179 670 CURVE SMOOTH"
);
}
);
width = 271;
}
);
note = parenright;
unicode = 0029;
},
{
glyphname = asterisk;
layers = (
{
layerId = "A436FB16-7E3F-4A25-90BC-0079C9B35420";
name = Regular;
paths = (
{
closed = 1;
nodes = (
"431 513 OFFCURVE",
"398 562 OFFCURVE",
"371 579 CURVE SMOOTH",
"358 587 OFFCURVE",
"339 589 OFFCURVE",
"316 584 CURVE SMOOTH",
"301 581 OFFCURVE",
"285 578 OFFCURVE",
"269 574 CURVE",
"273 598 OFFCURVE",
"278 623 OFFCURVE",
"285 650 CURVE SMOOTH",
"296 698 OFFCURVE",
"278 732 OFFCURVE",
"247 760 CURVE SMOOTH",
"231 775 OFFCURVE",
"220 772 OFFCURVE",
"214 749 CURVE SMOOTH",
"201 697 OFFCURVE",
"191 649 OFFCURVE",
"183 602 CURVE",
"176 610 OFFCURVE",
"169 618 OFFCURVE",
"163 627 CURVE",
"150 644 OFFCURVE",
"124 683 OFFCURVE",
"92 688 CURVE SMOOTH",
"60 692 OFFCURVE",
"14 671 OFFCURVE",
"41 636 CURVE SMOOTH",
"74 593 OFFCURVE",
"103 558 OFFCURVE",
"131 526 CURVE",
"88 510 OFFCURVE",
"50 492 OFFCURVE",
"19 476 CURVE",
"-1 467 OFFCURVE",
"-1 458 OFFCURVE",
"12 438 CURVE SMOOTH",
"35 401 OFFCURVE",
"61 378 OFFCURVE",
"100 397 CURVE",
"109 402 OFFCURVE",
"119 406 OFFCURVE",
"128 410 CURVE",
"137 413 OFFCURVE",
"147 417 OFFCURVE",
"156 421 CURVE",
"155 414 OFFCURVE",
"154 406 OFFCURVE",
"153 398 CURVE SMOOTH",
"152 390 OFFCURVE",
"151 381 OFFCURVE",
"150 372 CURVE SMOOTH",
"143 312 OFFCURVE",
"162 286 OFFCURVE",
"191 269 CURVE",
"210 256 OFFCURVE",
"215 257 OFFCURVE",
"219 281 CURVE SMOOTH",
"223 304 OFFCURVE",
"227 326 OFFCURVE",
"230 347 CURVE SMOOTH",
"233 368 OFFCURVE",
"236 389 OFFCURVE",
"239 410 CURVE",
"246 403 OFFCURVE",
"254 395 OFFCURVE",
"262 387 CURVE SMOOTH",
"278 370 OFFCURVE",
"313 329 OFFCURVE",
"341 329 CURVE SMOOTH",
"354 329 OFFCURVE",
"368 334 OFFCURVE",
"381 344 CURVE",
"396 359 OFFCURVE",
"398 363 OFFCURVE",
"381 382 CURVE SMOOTH",
"365 399 OFFCURVE",
"350 415 OFFCURVE",
"336 430 CURVE SMOOTH",
"321 445 OFFCURVE",
"307 460 OFFCURVE",
"294 475 CURVE",
"311 480 OFFCURVE",
"328 486 OFFCURVE",
"345 491 CURVE SMOOTH",
"362 496 OFFCURVE",
"379 501 OFFCURVE",
"396 505 CURVE SMOOTH"
);
}
);
width = 475;
}
);
note = asterisk;
unicode = 002A;
},
{
glyphname = plus;
layers = (
{
layerId = "A436FB16-7E3F-4A25-90BC-0079C9B35420";
name = Regular;
paths = (
{
closed = 1;
nodes = (
"352 315 OFFCURVE",
"328 314 OFFCURVE",
"303 313 CURVE SMOOTH",
"278 312 OFFCURVE",
"253 309 OFFCURVE",
"228 306 CURVE",
"217 242 OFFCURVE",
"209 180 OFFCURVE",
"202 131 CURVE SMOOTH",
"198 106 OFFCURVE",
"194 103 OFFCURVE",
"175 114 CURVE SMOOTH",
"167 119 OFFCURVE",
"159 125 OFFCURVE",
"152 130 CURVE",
"136 140 OFFCURVE",
"105 154 OFFCURVE",
"106 198 CURVE",
"107 210 OFFCURVE",
"109 224 OFFCURVE",
"110 239 CURVE SMOOTH",
"111 254 OFFCURVE",
"112 271 OFFCURVE",
"115 290 CURVE",
"92 287 OFFCURVE",
"71 282 OFFCURVE",
"51 277 CURVE SMOOTH",
"31 272 OFFCURVE",
"24 275 OFFCURVE",
"9 295 CURVE",
"-4 314 OFFCURVE",
"-19 348 OFFCURVE",
"-26 371 CURVE SMOOTH",
"-33 394 OFFCURVE",
"-18 403 OFFCURVE",
"-3 407 CURVE SMOOTH",
"32 416 OFFCURVE",
"82 424 OFFCURVE",
"135 428 CURVE",
"146 491 OFFCURVE",
"157 548 OFFCURVE",
"169 588 CURVE SMOOTH",
"174 607 OFFCURVE",
"186 619 OFFCURVE",
"202 611 CURVE",
"222 600 OFFCURVE",
"246 582 OFFCURVE",
"259 563 CURVE",
"274 544 OFFCURVE",
"276 534 OFFCURVE",
"269 511 CURVE SMOOTH",
"266 500 OFFCURVE",
"264 488 OFFCURVE",
"261 476 CURVE SMOOTH",
"258 463 OFFCURVE",
"255 450 OFFCURVE",
"252 437 CURVE",
"315 440 OFFCURVE",
"352 446 OFFCURVE",
"371 407 CURVE SMOOTH",
"376 396 OFFCURVE",
"381 385 OFFCURVE",
"384 376 CURVE SMOOTH",
"387 366 OFFCURVE",
"390 356 OFFCURVE",
"393 346 CURVE SMOOTH",
"400 323 OFFCURVE",
"395 316 OFFCURVE",
"376 316 CURVE"
);
}
);
width = 488;
}
);
note = plus;
unicode = 002B;
},
{
glyphname = comma;
layers = (
{
layerId = "A436FB16-7E3F-4A25-90BC-0079C9B35420";
name = Regular;
paths = (
{
closed = 1;
nodes = (
"47 -106 OFFCURVE",
"62 -82 OFFCURVE",
"75 -57 CURVE SMOOTH",
"88 -33 OFFCURVE",
"101 -6 OFFCURVE",
"109 17 CURVE",
"118 40 OFFCURVE",
"118 54 OFFCURVE",
"103 73 CURVE SMOOTH",
"86 96 OFFCURVE",
"66 112 OFFCURVE",
"46 125 CURVE SMOOTH",
"27 138 OFFCURVE",
"15 137 OFFCURVE",
"6 113 CURVE",
"-4 77 OFFCURVE",
"-16 42 OFFCURVE",
"-30 8 CURVE SMOOTH",
"-45 -27 OFFCURVE",
"-58 -60 OFFCURVE",
"-70 -92 CURVE SMOOTH",
"-78 -112 OFFCURVE",
"-74 -125 OFFCURVE",
"-57 -132 CURVE",
"-40 -141 OFFCURVE",
"-19 -147 OFFCURVE",
"0 -146 CURVE",
"15 -143 OFFCURVE",
"25 -138 OFFCURVE",
"38 -119 CURVE SMOOTH"
);
}
);
width = 209;
}
);
note = comma;
unicode = 002C;
},
{
glyphname = hyphen;
layers = (
{
layerId = "A436FB16-7E3F-4A25-90BC-0079C9B35420";
name = Regular;
paths = (
{
closed = 1;
nodes = (
"-29 500 OFFCURVE",
"10 509 OFFCURVE",
"52 515 CURVE SMOOTH",
"94 521 OFFCURVE",
"138 524 OFFCURVE",
"178 524 CURVE SMOOTH",
"214 524 OFFCURVE",
"232 471 OFFCURVE",
"240 446 CURVE SMOOTH",
"244 433 OFFCURVE",
"248 421 OFFCURVE",
"253 409 CURVE",
"262 380 OFFCURVE",
"257 373 OFFCURVE",
"236 372 CURVE",
"165 365 OFFCURVE",
"86 355 OFFCURVE",
"22 332 CURVE",
"5 325 OFFCURVE",
"-9 332 OFFCURVE",
"-26 360 CURVE SMOOTH",
"-43 387 OFFCURVE",
"-55 411 OFFCURVE",
"-66 438 CURVE SMOOTH",
"-79 469 OFFCURVE",
"-75 487 OFFCURVE",
"-56 492 CURVE SMOOTH"
);
}
);
width = 395;
}
);
note = hyphen;
unicode = 002D;
},
{
glyphname = period;
layers = (
{
layerId = "A436FB16-7E3F-4A25-90BC-0079C9B35420";
name = Regular;
paths = (
{
closed = 1;
nodes = (
"-22 12 OFFCURVE",
"12 -28 OFFCURVE",
"53 -25 CURVE",
"73 -25 OFFCURVE",
"89 -13 OFFCURVE",
"100 1 CURVE SMOOTH",
"111 15 OFFCURVE",
"118 32 OFFCURVE",
"121 44 CURVE SMOOTH",
"123 53 OFFCURVE",
"124 62 OFFCURVE",
"124 73 CURVE SMOOTH",
"124 94 OFFCURVE",
"117 116 OFFCURVE",
"102 133 CURVE SMOOTH",
"87 150 OFFCURVE",
"59 163 OFFCURVE",
"37 158 CURVE SMOOTH",
"15 153 OFFCURVE",
"-2 136 OFFCURVE",
"-11 112 CURVE SMOOTH",
"-16 99 OFFCURVE",
"-18 86 OFFCURVE",
"-19 73 CURVE SMOOTH"
);
}
);
width = 221;
}
);
note = period;
unicode = 002E;
},
{
glyphname = slash;
layers = (
{
layerId = "A436FB16-7E3F-4A25-90BC-0079C9B35420";
name = Regular;
paths = (
{
closed = 1;
nodes = (
"305 733 OFFCURVE",
"286 751 OFFCURVE",
"267 767 CURVE SMOOTH",
"248 784 OFFCURVE",
"233 781 OFFCURVE",
"222 756 CURVE",
"201 713 OFFCURVE",
"169 637 OFFCURVE",
"136 550 CURVE SMOOTH",
"103 462 OFFCURVE",
"67 364 OFFCURVE",
"36 278 CURVE SMOOTH",
"5 192 OFFCURVE",
"-21 116 OFFCURVE",
"-34 76 CURVE",
"-43 44 OFFCURVE",
"-42 22 OFFCURVE",
"-26 7 CURVE",
"-19 1 OFFCURVE",
"-13 -5 OFFCURVE",
"-6 -11 CURVE",
"7 -24 OFFCURVE",
"30 -44 OFFCURVE",
"41 -39 CURVE",
"46 -37 OFFCURVE",
"51 -30 OFFCURVE",
"55 -18 CURVE",
"74 31 OFFCURVE",
"104 109 OFFCURVE",
"138 194 CURVE SMOOTH",
"172 278 OFFCURVE",
"209 371 OFFCURVE",
"244 455 CURVE SMOOTH",
"279 538 OFFCURVE",
"309 609 OFFCURVE",
"329 653 CURVE SMOOTH",
"340 677 OFFCURVE",
"341 690 OFFCURVE",
"322 713 CURVE SMOOTH"
);
}
);
width = 354;
}
);
note = slash;
unicode = 002F;
},
{
glyphname = zero;
layers = (
{
layerId = "A436FB16-7E3F-4A25-90BC-0079C9B35420";
name = Regular;
paths = (
{
closed = 1;
nodes = (
"308 728 OFFCURVE",
"266 746 OFFCURVE",
"222 755 CURVE SMOOTH",
"190 762 OFFCURVE",
"149 748 OFFCURVE",
"121 720 CURVE SMOOTH",
"57 652 OFFCURVE",
"15 542 OFFCURVE",
"-4 429 CURVE SMOOTH",
"-23 316 OFFCURVE",
"-20 198 OFFCURVE",
"4 110 CURVE",
"17 73 OFFCURVE",
"43 42 OFFCURVE",
"63 26 CURVE",
"94 3 OFFCURVE",
"130 -8 OFFCURVE",
"162 -12 CURVE SMOOTH",
"213 -19 OFFCURVE",
"249 -10 OFFCURVE",
"284 35 CURVE SMOOTH",
"333 100 OFFCURVE",
"365 199 OFFCURVE",
"381 300 CURVE SMOOTH",
"397 401 OFFCURVE",
"398 507 OFFCURVE",
"386 588 CURVE SMOOTH",
"379 632 OFFCURVE",
"366 668 OFFCURVE",
"335 701 CURVE SMOOTH"
);
},
{
closed = 1;
nodes = (
"252 617 OFFCURVE",
"258 605 OFFCURVE",
"261 586 CURVE SMOOTH",
"264 567 OFFCURVE",
"266 543 OFFCURVE",
"266 515 CURVE SMOOTH",
"266 459 OFFCURVE",
"260 394 OFFCURVE",
"251 338 CURVE SMOOTH",
"240 267 OFFCURVE",
"223 208 OFFCURVE",
"204 167 CURVE SMOOTH",
"194 146 OFFCURVE",
"184 131 OFFCURVE",
"174 122 CURVE SMOOTH",
"153 102 OFFCURVE",
"134 111 OFFCURVE",
"123 148 CURVE SMOOTH",
"112 184 OFFCURVE",
"111 238 OFFCURVE",
"116 299 CURVE SMOOTH",
"121 360 OFFCURVE",
"133 421 OFFCURVE",
"153 479 CURVE SMOOTH",
"172 537 OFFCURVE",
"194 582 OFFCURVE",
"215 607 CURVE",
"226 619 OFFCURVE",
"235 623 OFFCURVE",
"244 620 CURVE"
);
}
);
width = 457;
}
);
note = zero;
unicode = 0030;
},
{
glyphname = one;
layers = (
{
layerId = "A436FB16-7E3F-4A25-90BC-0079C9B35420";
name = Regular;
paths = (
{
closed = 1;
nodes = (
"215 680 OFFCURVE",
"210 690 OFFCURVE",
"189 709 CURVE SMOOTH",
"166 730 OFFCURVE",
"144 743 OFFCURVE",
"121 751 CURVE SMOOTH",
"97 760 OFFCURVE",
"90 756 OFFCURVE",
"75 731 CURVE SMOOTH",
"59 703 OFFCURVE",
"38 662 OFFCURVE",
"25 625 CURVE SMOOTH",
"13 593 OFFCURVE",
"21 586 OFFCURVE",
"53 563 CURVE",
"40 487 OFFCURVE",
"26 391 OFFCURVE",
"15 303 CURVE SMOOTH",
"3 214 OFFCURVE",
"-4 132 OFFCURVE",
"-7 84 CURVE SMOOTH",
"-10 49 OFFCURVE",
"-5 32 OFFCURVE",
"11 17 CURVE",
"22 9 OFFCURVE",
"32 3 OFFCURVE",
"43 0 CURVE",
"53 -4 OFFCURVE",
"63 -8 OFFCURVE",
"74 -12 CURVE SMOOTH",
"97 -21 OFFCURVE",
"102 -15 OFFCURVE",
"106 8 CURVE",
"113 65 OFFCURVE",
"123 140 OFFCURVE",
"135 218 CURVE SMOOTH",
"146 296 OFFCURVE",
"159 379 OFFCURVE",
"172 455 CURVE SMOOTH",
"184 531 OFFCURVE",
"197 601 OFFCURVE",
"208 652 CURVE SMOOTH"
);
}
);
width = 258;
}
);
note = one;
unicode = 0031;
},
{
glyphname = two;
layers = (
{
layerId = "A436FB16-7E3F-4A25-90BC-0079C9B35420";
name = Regular;
paths = (
{
closed = 1;
nodes = (
"183 151 OFFCURVE",
"225 155 OFFCURVE",
"252 156 CURVE SMOOTH",
"272 157 OFFCURVE",
"284 148 OFFCURVE",
"296 125 CURVE",
"307 106 OFFCURVE",
"318 78 OFFCURVE",
"323 58 CURVE",
"330 34 OFFCURVE",
"325 29 OFFCURVE",
"305 25 CURVE",
"273 22 OFFCURVE",
"229 15 OFFCURVE",
"186 7 CURVE SMOOTH",
"143 -2 OFFCURVE",
"103 -11 OFFCURVE",
"76 -19 CURVE SMOOTH",
"37 -30 OFFCURVE",
"28 -22 OFFCURVE",
"16 -6 CURVE",
"1 10 OFFCURVE",
"-23 44 OFFCURVE",
"-36 68 CURVE SMOOTH",
"-41 77 OFFCURVE",
"-47 90 OFFCURVE",
"-48 102 CURVE SMOOTH",
"-49 114 OFFCURVE",
"-47 126 OFFCURVE",
"-36 138 CURVE SMOOTH",
"11 187 OFFCURVE",
"62 253 OFFCURVE",
"109 319 CURVE SMOOTH",
"156 385 OFFCURVE",
"196 452 OFFCURVE",
"224 505 CURVE SMOOTH",
"237 531 OFFCURVE",
"247 553 OFFCURVE",
"253 571 CURVE",
"258 589 OFFCURVE",
"258 600 OFFCURVE",
"253 605 CURVE SMOOTH",
"244 614 OFFCURVE",
"228 608 OFFCURVE",
"209 592 CURVE SMOOTH",
"190 575 OFFCURVE",
"169 549 OFFCURVE",
"149 522 CURVE",
"118 490 OFFCURVE",
"72 492 OFFCURVE",
"36 509 CURVE SMOOTH",
"25 514 OFFCURVE",
"18 521 OFFCURVE",
"17 534 CURVE SMOOTH",
"16 547 OFFCURVE",
"19 564 OFFCURVE",
"31 592 CURVE SMOOTH",
"70 677 OFFCURVE",
"128 738 OFFCURVE",
"192 754 CURVE SMOOTH",
"229 763 OFFCURVE",
"264 753 OFFCURVE",
"293 733 CURVE SMOOTH",
"322 713 OFFCURVE",
"345 685 OFFCURVE",
"358 660 CURVE SMOOTH",
"377 621 OFFCURVE",
"382 586 OFFCURVE",
"379 550 CURVE SMOOTH",
"375 514 OFFCURVE",
"363 478 OFFCURVE",
"347 439 CURVE SMOOTH",
"328 392 OFFCURVE",
"298 340 OFFCURVE",
"263 288 CURVE SMOOTH",
"227 236 OFFCURVE",
"187 184 OFFCURVE",
"148 143 CURVE"
);
}
);
width = 413;
}
);
note = two;
unicode = 0032;
},
{
glyphname = three;
layers = (
{
layerId = "A436FB16-7E3F-4A25-90BC-0079C9B35420";
name = Regular;
paths = (
{
closed = 1;
nodes = (
"289 395 OFFCURVE",
"321 421 OFFCURVE",
"344 450 CURVE SMOOTH",
"363 474 OFFCURVE",
"376 511 OFFCURVE",
"377 553 CURVE SMOOTH",
"378 595 OFFCURVE",
"366 641 OFFCURVE",
"337 688 CURVE",
"309 729 OFFCURVE",
"281 750 OFFCURVE",
"254 758 CURVE SMOOTH",
"227 766 OFFCURVE",
"203 761 OFFCURVE",
"183 756 CURVE SMOOTH",
"155 748 OFFCURVE",
"127 730 OFFCURVE",
"103 710 CURVE SMOOTH",
"79 689 OFFCURVE",
"59 664 OFFCURVE",
"46 641 CURVE SMOOTH",
"25 604 OFFCURVE",
"57 579 OFFCURVE",
"78 569 CURVE SMOOTH",
"98 559 OFFCURVE",
"121 555 OFFCURVE",
"143 560 CURVE",
"154 562 OFFCURVE",
"163 567 OFFCURVE",
"171 575 CURVE",
"194 594 OFFCURVE",
"222 616 OFFCURVE",
"241 616 CURVE SMOOTH",
"248 616 OFFCURVE",
"253 613 OFFCURVE",
"256 607 CURVE",
"265 591 OFFCURVE",
"256 564 OFFCURVE",
"224 532 CURVE SMOOTH",
"192 499 OFFCURVE",
"137 462 OFFCURVE",
"57 426 CURVE SMOOTH",
"24 410 OFFCURVE",
"58 341 OFFCURVE",
"95 312 CURVE SMOOTH",
"114 297 OFFCURVE",
"133 292 OFFCURVE",
"152 296 CURVE",
"183 301 OFFCURVE",
"200 301 OFFCURVE",
"217 282 CURVE SMOOTH",
"225 273 OFFCURVE",
"230 254 OFFCURVE",
"229 232 CURVE SMOOTH",
"228 210 OFFCURVE",
"221 183 OFFCURVE",
"205 158 CURVE SMOOTH",
"170 107 OFFCURVE",
"127 97 OFFCURVE",
"52 150 CURVE SMOOTH",
"27 169 OFFCURVE",
"-10 176 OFFCURVE",
"-37 152 CURVE SMOOTH",
"-45 145 OFFCURVE",
"-49 137 OFFCURVE",
"-49 126 CURVE",
"-50 115 OFFCURVE",
"-41 98 OFFCURVE",
"-22 76 CURVE",
"38 -1 OFFCURVE",
"101 -24 OFFCURVE",
"157 -24 CURVE SMOOTH",
"230 -24 OFFCURVE",
"290 1 OFFCURVE",
"335 85 CURVE SMOOTH",
"354 121 OFFCURVE",
"364 164 OFFCURVE",
"361 208 CURVE SMOOTH",
"357 251 OFFCURVE",
"340 293 OFFCURVE",
"307 332 CURVE SMOOTH",
"290 352 OFFCURVE",
"270 362 OFFCURVE",
"249 371 CURVE"
);
}
);
width = 433;
}
);
note = three;
unicode = 0033;
},
{
glyphname = four;
layers = (
{
layerId = "A436FB16-7E3F-4A25-90BC-0079C9B35420";
name = Regular;
paths = (
{
closed = 1;
nodes = (
"382 365 OFFCURVE",
"391 322 OFFCURVE",
"396 303 CURVE",
"398 293 OFFCURVE",
"401 282 OFFCURVE",
"404 271 CURVE",
"409 246 OFFCURVE",
"404 239 OFFCURVE",
"383 236 CURVE",
"363 235 OFFCURVE",
"343 233 OFFCURVE",
"323 232 CURVE",
"308 144 OFFCURVE",
"295 65 OFFCURVE",
"287 1 CURVE SMOOTH",
"283 -24 OFFCURVE",
"277 -30 OFFCURVE",
"254 -22 CURVE",
"237 -15 OFFCURVE",
"214 -4 OFFCURVE",
"195 11 CURVE",
"176 30 OFFCURVE",
"171 43 OFFCURVE",
"175 78 CURVE SMOOTH",
"178 110 OFFCURVE",
"184 156 OFFCURVE",
"193 216 CURVE",
"174 213 OFFCURVE",
"155 210 OFFCURVE",
"136 207 CURVE SMOOTH",
"117 204 OFFCURVE",
"99 200 OFFCURVE",
"82 196 CURVE SMOOTH",
"63 191 OFFCURVE",
"48 189 OFFCURVE",
"31 212 CURVE",
"11 235 OFFCURVE",
"-8 265 OFFCURVE",
"-24 294 CURVE",
"-35 318 OFFCURVE",
"-36 338 OFFCURVE",
"-23 366 CURVE SMOOTH",
"2 423 OFFCURVE",
"44 498 OFFCURVE",
"89 568 CURVE SMOOTH",
"133 638 OFFCURVE",
"180 704 OFFCURVE",
"216 748 CURVE",
"235 768 OFFCURVE",
"244 770 OFFCURVE",
"267 761 CURVE SMOOTH",
"279 756 OFFCURVE",
"301 743 OFFCURVE",
"323 729 CURVE SMOOTH",
"345 715 OFFCURVE",
"367 698 OFFCURVE",
"379 689 CURVE",
"400 670 OFFCURVE",
"404 659 OFFCURVE",
"397 631 CURVE SMOOTH",
"382 563 OFFCURVE",
"365 469 OFFCURVE",
"346 368 CURVE"
);
},
{
closed = 1;
nodes = (
"112 349 OFFCURVE",
"132 352 OFFCURVE",
"153 354 CURVE SMOOTH",
"174 356 OFFCURVE",
"196 358 OFFCURVE",
"217 361 CURVE",
"224 400 OFFCURVE",
"232 440 OFFCURVE",
"239 480 CURVE SMOOTH",
"246 519 OFFCURVE",
"253 557 OFFCURVE",
"261 594 CURVE",
"232 558 OFFCURVE",
"202 516 OFFCURVE",
"174 473 CURVE SMOOTH",
"145 429 OFFCURVE",
"118 386 OFFCURVE",
"94 346 CURVE"
);
}
);
width = 474;
}
);
note = four;
unicode = 0034;
},
{
glyphname = five;
layers = (
{
layerId = "A436FB16-7E3F-4A25-90BC-0079C9B35420";
name = Regular;
paths = (
{
closed = 1;
nodes = (
"254 590 OFFCURVE",
"306 599 OFFCURVE",
"353 606 CURVE SMOOTH",
"376 610 OFFCURVE",
"381 616 OFFCURVE",
"374 643 CURVE SMOOTH",
"371 655 OFFCURVE",
"369 668 OFFCURVE",
"367 681 CURVE SMOOTH",
"363 708 OFFCURVE",
"355 756 OFFCURVE",
"310 752 CURVE",
"253 749 OFFCURVE",
"194 745 OFFCURVE",
"130 732 CURVE SMOOTH",
"108 727 OFFCURVE",
"93 713 OFFCURVE",
"85 688 CURVE SMOOTH",
"52 579 OFFCURVE",
"28 487 OFFCURVE",
"15 414 CURVE SMOOTH",
"8 379 OFFCURVE",
"15 362 OFFCURVE",
"27 349 CURVE",
"36 340 OFFCURVE",
"44 332 OFFCURVE",
"50 327 CURVE SMOOTH",
"56 322 OFFCURVE",
"63 315 OFFCURVE",
"70 308 CURVE",
"83 293 OFFCURVE",
"87 291 OFFCURVE",
"114 302 CURVE SMOOTH",
"126 307 OFFCURVE",
"143 311 OFFCURVE",
"159 312 CURVE",
"175 312 OFFCURVE",
"189 309 OFFCURVE",
"194 304 CURVE",
"199 296 OFFCURVE",
"204 273 OFFCURVE",
"204 245 CURVE SMOOTH",
"204 218 OFFCURVE",
"197 185 OFFCURVE",
"184 160 CURVE",
"175 140 OFFCURVE",
"162 123 OFFCURVE",
"144 119 CURVE",
"126 114 OFFCURVE",
"101 122 OFFCURVE",
"68 154 CURVE SMOOTH",
"45 177 OFFCURVE",
"2 180 OFFCURVE",
"-25 157 CURVE",
"-34 150 OFFCURVE",
"-37 142 OFFCURVE",
"-36 132 CURVE SMOOTH",
"-35 121 OFFCURVE",
"-26 103 OFFCURVE",
"-10 79 CURVE",
"26 11 OFFCURVE",
"82 -11 OFFCURVE",
"138 -10 CURVE SMOOTH",
"189 -9 OFFCURVE",
"226 12 OFFCURVE",
"254 39 CURVE SMOOTH",
"281 66 OFFCURVE",
"297 99 OFFCURVE",
"305 126 CURVE SMOOTH",
"344 247 OFFCURVE",
"323 341 OFFCURVE",
"262 389 CURVE SMOOTH",
"228 415 OFFCURVE",
"192 428 OFFCURVE",
"155 428 CURVE",
"166 475 OFFCURVE",
"181 528 OFFCURVE",
"198 581 CURVE"
);
}
);
width = 393;
}
);
note = five;
unicode = 0035;
},
{
glyphname = six;
layers = (
{
layerId = "A436FB16-7E3F-4A25-90BC-0079C9B35420";
name = Regular;
paths = (
{
closed = 1;
nodes = (
"215 534 OFFCURVE",
"262 609 OFFCURVE",
"318 673 CURVE SMOOTH",
"337 696 OFFCURVE",
"330 710 OFFCURVE",
"311 726 CURVE",
"292 739 OFFCURVE",
"254 755 OFFCURVE",
"229 762 CURVE SMOOTH",
"202 769 OFFCURVE",
"197 763 OFFCURVE",
"178 743 CURVE",
"98 651 OFFCURVE",
"48 548 OFFCURVE",
"17 452 CURVE SMOOTH",
"-15 356 OFFCURVE",
"-25 268 OFFCURVE",
"-25 205 CURVE SMOOTH",
"-26 109 OFFCURVE",
"1 47 OFFCURVE",
"78 4 CURVE",
"118 -15 OFFCURVE",
"150 -21 OFFCURVE",
"175 -18 CURVE SMOOTH",
"200 -15 OFFCURVE",
"220 -4 OFFCURVE",
"236 11 CURVE SMOOTH",
"261 35 OFFCURVE",
"287 76 OFFCURVE",
"305 126 CURVE SMOOTH",
"323 176 OFFCURVE",
"333 234 OFFCURVE",
"329 294 CURVE SMOOTH",
"326 355 OFFCURVE",
"308 402 OFFCURVE",
"243 438 CURVE",
"221 449 OFFCURVE",
"199 455 OFFCURVE",
"178 454 CURVE"
);
},
{
closed = 1;
nodes = (
"133 317 OFFCURVE",
"170 344 OFFCURVE",
"193 331 CURVE SMOOTH",
"218 316 OFFCURVE",
"215 263 OFFCURVE",
"195 202 CURVE SMOOTH",
"183 166 OFFCURVE",
"169 140 OFFCURVE",
"154 124 CURVE SMOOTH",
"123 91 OFFCURVE",
"94 111 OFFCURVE",
"95 165 CURVE SMOOTH",
"95 192 OFFCURVE",
"100 225 OFFCURVE",
"109 265 CURVE"
);
}
);
width = 408;
}
);
note = six;
unicode = 0036;
},
{
glyphname = seven;
layers = (
{
layerId = "A436FB16-7E3F-4A25-90BC-0079C9B35420";
name = Regular;
paths = (
{
closed = 1;
nodes = (
"208 533 OFFCURVE",
"168 449 OFFCURVE",
"132 362 CURVE SMOOTH",
"95 275 OFFCURVE",
"62 187 OFFCURVE",
"35 103 CURVE",
"26 71 OFFCURVE",
"26 57 OFFCURVE",
"41 34 CURVE SMOOTH",
"57 11 OFFCURVE",
"78 -7 OFFCURVE",
"98 -22 CURVE",
"119 -35 OFFCURVE",
"126 -34 OFFCURVE",
"134 -10 CURVE SMOOTH",
"169 89 OFFCURVE",
"212 197 OFFCURVE",
"257 299 CURVE SMOOTH",
"302 401 OFFCURVE",
"348 497 OFFCURVE",
"391 577 CURVE SMOOTH",
"407 606 OFFCURVE",
"405 629 OFFCURVE",
"390 654 CURVE",
"379 674 OFFCURVE",
"365 701 OFFCURVE",
"346 728 CURVE",
"331 755 OFFCURVE",
"316 760 OFFCURVE",
"293 760 CURVE",
"252 757 OFFCURVE",
"202 754 OFFCURVE",
"155 748 CURVE SMOOTH",
"107 742 OFFCURVE",
"62 733 OFFCURVE",
"29 721 CURVE SMOOTH",
"14 716 OFFCURVE",
"9 709 OFFCURVE",
"20 686 CURVE",
"29 662 OFFCURVE",
"48 630 OFFCURVE",
"59 611 CURVE",
"76 588 OFFCURVE",
"96 584 OFFCURVE",
"115 589 CURVE",
"123 590 OFFCURVE",
"132 592 OFFCURVE",
"143 594 CURVE",
"154 595 OFFCURVE",
"165 597 OFFCURVE",
"177 599 CURVE SMOOTH",
"201 603 OFFCURVE",
"227 607 OFFCURVE",
"248 610 CURVE"
);
}
);
width = 429;
}
);
note = seven;
unicode = 0037;
},
{
glyphname = eight;
layers = (
{
layerId = "A436FB16-7E3F-4A25-90BC-0079C9B35420";
name = Regular;
paths = (
{
closed = 1;
nodes = (
"416 566 OFFCURVE",
"390 648 OFFCURVE",
"333 708 CURVE SMOOTH",
"286 755 OFFCURVE",
"237 775 OFFCURVE",
"186 750 CURVE SMOOTH",
"126 719 OFFCURVE",
"77 668 OFFCURVE",
"48 600 CURVE SMOOTH",
"13 520 OFFCURVE",
"30 446 OFFCURVE",
"94 385 CURVE",
"34 333 OFFCURVE",
"-19 271 OFFCURVE",
"-27 188 CURVE SMOOTH",
"-35 107 OFFCURVE",
"2 33 OFFCURVE",
"79 0 CURVE SMOOTH",
"120 -19 OFFCURVE",
"164 -25 OFFCURVE",
"205 -13 CURVE SMOOTH",
"245 -1 OFFCURVE",
"283 27 OFFCURVE",
"312 79 CURVE SMOOTH",
"337 127 OFFCURVE",
"353 174 OFFCURVE",
"349 222 CURVE SMOOTH",
"345 269 OFFCURVE",
"322 316 OFFCURVE",
"269 364 CURVE",
"318 403 OFFCURVE",
"357 440 OFFCURVE",
"377 485 CURVE SMOOTH"
);
},
{
closed = 1;
nodes = (
"223 257 OFFCURVE",
"216 211 OFFCURVE",
"196 163 CURVE SMOOTH",
"173 112 OFFCURVE",
"140 91 OFFCURVE",
"119 102 CURVE SMOOTH",
"103 110 OFFCURVE",
"88 136 OFFCURVE",
"103 179 CURVE SMOOTH",
"118 222 OFFCURVE",
"146 263 OFFCURVE",
"186 296 CURVE"
);
},
{
closed = 1;
nodes = (
"295 583 OFFCURVE",
"267 528 OFFCURVE",
"174 448 CURVE",
"158 469 OFFCURVE",
"155 499 OFFCURVE",
"167 532 CURVE SMOOTH",
"178 564 OFFCURVE",
"204 600 OFFCURVE",
"244 635 CURVE"
);
}
);
width = 436;
}
);
note = eight;
unicode = 0038;
},
{
glyphname = nine;
layers = (
{
layerId = "A436FB16-7E3F-4A25-90BC-0079C9B35420";
name = Regular;
paths = (
{
closed = 1;
nodes = (
"97 189 OFFCURVE",
"57 131 OFFCURVE",
"10 78 CURVE SMOOTH",
"-9 58 OFFCURVE",
"0 43 OFFCURVE",
"13 28 CURVE SMOOTH",
"22 18 OFFCURVE",
"31 11 OFFCURVE",
"40 6 CURVE",
"48 1 OFFCURVE",
"57 -5 OFFCURVE",
"68 -12 CURVE SMOOTH",
"91 -27 OFFCURVE",
"104 -17 OFFCURVE",
"123 0 CURVE SMOOTH",
"194 67 OFFCURVE",
"255 166 OFFCURVE",
"299 268 CURVE SMOOTH",
"342 370 OFFCURVE",
"366 475 OFFCURVE",
"362 552 CURVE SMOOTH",
"359 600 OFFCURVE",
"347 638 OFFCURVE",
"327 668 CURVE SMOOTH",
"306 698 OFFCURVE",
"275 721 OFFCURVE",
"238 742 CURVE SMOOTH",
"201 762 OFFCURVE",
"170 766 OFFCURVE",
"145 760 CURVE SMOOTH",
"120 754 OFFCURVE",
"100 740 OFFCURVE",
"84 725 CURVE SMOOTH",
"53 694 OFFCURVE",
"26 644 OFFCURVE",
"10 586 CURVE SMOOTH",
"-7 528 OFFCURVE",
"-14 462 OFFCURVE",
"-5 402 CURVE SMOOTH",
"3 334 OFFCURVE",
"31 289 OFFCURVE",
"95 260 CURVE",
"100 257 OFFCURVE",
"106 255 OFFCURVE",
"112 254 CURVE SMOOTH",
"118 253 OFFCURVE",
"124 251 OFFCURVE",
"130 250 CURVE"
);
},
{
closed = 1;
nodes = (
"172 363 OFFCURVE",
"155 355 OFFCURVE",
"139 364 CURVE",
"124 371 OFFCURVE",
"117 390 OFFCURVE",
"116 416 CURVE SMOOTH",
"115 442 OFFCURVE",
"119 473 OFFCURVE",
"127 505 CURVE SMOOTH",
"136 540 OFFCURVE",
"151 572 OFFCURVE",
"166 595 CURVE SMOOTH",
"181 618 OFFCURVE",
"197 631 OFFCURVE",
"210 624 CURVE SMOOTH",
"225 616 OFFCURVE",
"230 587 OFFCURVE",
"227 545 CURVE SMOOTH",
"223 503 OFFCURVE",
"210 447 OFFCURVE",
"189 386 CURVE"
);
}
);
width = 406;
}
);
note = nine;
unicode = 0039;
},
{
glyphname = colon;
layers = (
{
layerId = "A436FB16-7E3F-4A25-90BC-0079C9B35420";
name = Regular;
paths = (
{
closed = 1;
nodes = (
"14 324 OFFCURVE",
"49 283 OFFCURVE",
"90 284 CURVE SMOOTH",
"110 284 OFFCURVE",
"126 295 OFFCURVE",
"138 311 CURVE SMOOTH",
"149 326 OFFCURVE",
"156 344 OFFCURVE",
"159 356 CURVE",
"160 365 OFFCURVE",
"161 374 OFFCURVE",
"161 385 CURVE SMOOTH",
"161 416 OFFCURVE",
"146 451 OFFCURVE",
"110 466 CURVE SMOOTH",
"83 477 OFFCURVE",
"61 470 OFFCURVE",
"45 454 CURVE SMOOTH",
"29 438 OFFCURVE",
"18 413 OFFCURVE",
"17 385 CURVE SMOOTH"
);
},
{
closed = 1;
nodes = (
"-36 24 OFFCURVE",
"-8 -14 OFFCURVE",
"31 -23 CURVE",
"70 -34 OFFCURVE",
"102 -8 OFFCURVE",
"110 35 CURVE SMOOTH",
"113 52 OFFCURVE",
"113 78 OFFCURVE",
"106 101 CURVE SMOOTH",
"99 124 OFFCURVE",
"85 146 OFFCURVE",
"60 155 CURVE SMOOTH",
"9 174 OFFCURVE",
"-24 136 OFFCURVE",
"-29 84 CURVE SMOOTH"
);
}
);
width = 246;
}
);
note = colon;
unicode = 003A;
},
{
glyphname = semicolon;
layers = (
{
layerId = "A436FB16-7E3F-4A25-90BC-0079C9B35420";
name = Regular;
paths = (
{
closed = 1;
nodes = (
"-28 389 OFFCURVE",
"11 340 OFFCURVE",
"52 341 CURVE SMOOTH",
"73 341 OFFCURVE",
"88 355 OFFCURVE",
"97 373 CURVE SMOOTH",
"106 391 OFFCURVE",
"110 412 OFFCURVE",
"111 427 CURVE SMOOTH",
"112 447 OFFCURVE",
"110 475 OFFCURVE",
"100 500 CURVE SMOOTH",
"90 524 OFFCURVE",
"73 547 OFFCURVE",
"45 559 CURVE",
"18 572 OFFCURVE",
"-3 564 OFFCURVE",
"-17 545 CURVE SMOOTH",
"-31 525 OFFCURVE",
"-39 494 OFFCURVE",
"-36 462 CURVE SMOOTH"
);
},
{
closed = 1;
nodes = (
"69 -128 OFFCURVE",
"80 -100 OFFCURVE",
"89 -70 CURVE SMOOTH",
"98 -40 OFFCURVE",
"108 -8 OFFCURVE",
"113 20 CURVE",
"124 55 OFFCURVE",
"106 87 OFFCURVE",
"67 122 CURVE",
"50 139 OFFCURVE",
"33 154 OFFCURVE",
"21 159 CURVE",
"8 163 OFFCURVE",
"0 157 OFFCURVE",
"-3 136 CURVE SMOOTH",
"-10 92 OFFCURVE",
"-17 49 OFFCURVE",
"-26 8 CURVE SMOOTH",
"-35 -34 OFFCURVE",
"-44 -74 OFFCURVE",
"-51 -112 CURVE",
"-63 -157 OFFCURVE",
"-22 -166 OFFCURVE",
"-2 -173 CURVE SMOOTH",
"18 -180 OFFCURVE",
"35 -177 OFFCURVE",
"46 -168 CURVE",
"51 -163 OFFCURVE",
"56 -155 OFFCURVE",
"61 -144 CURVE"
);
}
);
width = 260;
}
);
note = semicolon;
unicode = 003B;
},
{
glyphname = less;
layers = (
{
layerId = "A436FB16-7E3F-4A25-90BC-0079C9B35420";
name = Regular;
paths = (
{
closed = 1;
nodes = (
"277 458 OFFCURVE",
"279 468 OFFCURVE",
"266 488 CURVE",
"256 505 OFFCURVE",
"244 522 OFFCURVE",
"230 539 CURVE SMOOTH",
"219 552 OFFCURVE",
"210 557 OFFCURVE",
"199 555 CURVE SMOOTH",
"193 554 OFFCURVE",
"186 551 OFFCURVE",
"179 548 CURVE",
"171 544 OFFCURVE",
"161 539 OFFCURVE",
"150 534 CURVE",
"109 511 OFFCURVE",
"57 480 OFFCURVE",
"25 456 CURVE",
"10 448 OFFCURVE",
"4 432 OFFCURVE",
"0 413 CURVE SMOOTH",
"-2 403 OFFCURVE",
"-3 393 OFFCURVE",
"-4 383 CURVE SMOOTH",
"-5 372 OFFCURVE",
"-6 362 OFFCURVE",
"-7 353 CURVE",
"-11 341 OFFCURVE",
"-9 316 OFFCURVE",
"3 308 CURVE",
"71 271 OFFCURVE",
"140 233 OFFCURVE",
"200 190 CURVE",
"219 175 OFFCURVE",
"225 179 OFFCURVE",
"232 202 CURVE SMOOTH",
"236 217 OFFCURVE",
"239 236 OFFCURVE",
"241 260 CURVE",
"242 283 OFFCURVE",
"235 295 OFFCURVE",
"219 308 CURVE SMOOTH",
"194 327 OFFCURVE",
"160 348 OFFCURVE",
"121 371 CURVE",
"168 400 OFFCURVE",
"213 427 OFFCURVE",
"258 450 CURVE"
);
}
);
width = 348;
}
);
note = less;
unicode = 003C;
},
{
glyphname = equal;
layers = (
{
layerId = "A436FB16-7E3F-4A25-90BC-0079C9B35420";
name = Regular;
paths = (
{
closed = 1;
nodes = (
"54 395 OFFCURVE",
"44 399 OFFCURVE",
"33 422 CURVE SMOOTH",
"24 441 OFFCURVE",
"14 466 OFFCURVE",
"9 486 CURVE SMOOTH",
"2 511 OFFCURVE",
"14 521 OFFCURVE",
"30 524 CURVE SMOOTH",
"70 531 OFFCURVE",
"120 535 OFFCURVE",
"169 536 CURVE SMOOTH",
"218 536 OFFCURVE",
"267 534 OFFCURVE",
"307 529 CURVE SMOOTH",
"344 525 OFFCURVE",
"351 486 OFFCURVE",
"357 467 CURVE SMOOTH",
"363 448 OFFCURVE",
"370 424 OFFCURVE",
"363 416 CURVE",
"360 412 OFFCURVE",
"353 411 OFFCURVE",
"344 412 CURVE",
"251 415 OFFCURVE",
"163 413 OFFCURVE",
"75 398 CURVE SMOOTH"
);
},
{
closed = 1;
nodes = (
"47 187 OFFCURVE",
"36 192 OFFCURVE",
"25 212 CURVE SMOOTH",
"14 231 OFFCURVE",
"4 256 OFFCURVE",
"-3 275 CURVE SMOOTH",
"-12 299 OFFCURVE",
"-1 312 OFFCURVE",
"15 316 CURVE SMOOTH",
"56 325 OFFCURVE",
"105 334 OFFCURVE",
"153 339 CURVE SMOOTH",
"201 343 OFFCURVE",
"250 345 OFFCURVE",
"290 344 CURVE SMOOTH",
"326 344 OFFCURVE",
"336 305 OFFCURVE",
"342 286 CURVE SMOOTH",
"348 267 OFFCURVE",
"357 243 OFFCURVE",
"351 235 CURVE SMOOTH",
"348 231 OFFCURVE",
"341 229 OFFCURVE",
"332 228 CURVE",
"241 224 OFFCURVE",
"153 212 OFFCURVE",
"68 192 CURVE SMOOTH"
);
}
);
width = 436;
}
);
note = equal;
unicode = 003D;
},
{
glyphname = greater;
layers = (
{
layerId = "A436FB16-7E3F-4A25-90BC-0079C9B35420";
name = Regular;
paths = (
{
closed = 1;
nodes = (
"295 371 OFFCURVE",
"290 348 OFFCURVE",
"284 329 CURVE SMOOTH",
"277 306 OFFCURVE",
"271 299 OFFCURVE",
"252 290 CURVE",
"184 263 OFFCURVE",
"134 239 OFFCURVE",
"83 208 CURVE",
"68 197 OFFCURVE",
"61 198 OFFCURVE",
"45 214 CURVE SMOOTH",
"30 229 OFFCURVE",
"14 252 OFFCURVE",
"-1 275 CURVE",
"-12 294 OFFCURVE",
"-4 305 OFFCURVE",
"8 313 CURVE SMOOTH",
"45 336 OFFCURVE",
"102 363 OFFCURVE",
"159 386 CURVE",
"127 405 OFFCURVE",
"96 421 OFFCURVE",
"65 436 CURVE",
"45 444 OFFCURVE",
"43 450 OFFCURVE",
"36 474 CURVE",
"33 494 OFFCURVE",
"32 527 OFFCURVE",
"35 550 CURVE SMOOTH",
"38 569 OFFCURVE",
"50 572 OFFCURVE",
"65 565 CURVE SMOOTH",
"93 553 OFFCURVE",
"128 534 OFFCURVE",
"167 513 CURVE SMOOTH",
"206 492 OFFCURVE",
"245 468 OFFCURVE",
"281 444 CURVE SMOOTH",
"297 433 OFFCURVE",
"304 426 OFFCURVE",
"299 397 CURVE SMOOTH"
);
}
);
width = 370;
}
);
note = greater;
unicode = 003E;
},
{
glyphname = question;
layers = (
{
layerId = "A436FB16-7E3F-4A25-90BC-0079C9B35420";
name = Regular;
paths = (
{
closed = 1;
nodes = (
"106 186 OFFCURVE",
"130 171 OFFCURVE",
"148 167 CURVE",
"166 162 OFFCURVE",
"179 166 OFFCURVE",
"178 190 CURVE",
"186 267 OFFCURVE",
"217 310 OFFCURVE",
"253 344 CURVE SMOOTH",
"270 361 OFFCURVE",
"288 376 OFFCURVE",
"307 391 CURVE SMOOTH",
"343 419 OFFCURVE",
"364 456 OFFCURVE",
"377 493 CURVE SMOOTH",
"390 529 OFFCURVE",
"393 574 OFFCURVE",
"381 623 CURVE SMOOTH",
"375 647 OFFCURVE",
"364 672 OFFCURVE",
"347 698 CURVE",
"332 723 OFFCURVE",
"309 748 OFFCURVE",
"281 764 CURVE",
"252 779 OFFCURVE",
"218 785 OFFCURVE",
"182 776 CURVE SMOOTH",
"122 761 OFFCURVE",
"68 709 OFFCURVE",
"27 629 CURVE SMOOTH",
"13 603 OFFCURVE",
"7 584 OFFCURVE",
"10 573 CURVE",
"12 562 OFFCURVE",
"18 553 OFFCURVE",
"28 548 CURVE",
"68 524 OFFCURVE",
"114 528 OFFCURVE",
"143 560 CURVE SMOOTH",
"153 571 OFFCURVE",
"163 581 OFFCURVE",
"172 592 CURVE",
"191 612 OFFCURVE",
"209 630 OFFCURVE",
"226 641 CURVE",
"235 646 OFFCURVE",
"244 649 OFFCURVE",
"253 649 CURVE SMOOTH",
"265 649 OFFCURVE",
"278 640 OFFCURVE",
"281 619 CURVE",
"284 587 OFFCURVE",
"267 542 OFFCURVE",
"207 491 CURVE SMOOTH",
"183 470 OFFCURVE",
"151 443 OFFCURVE",
"124 407 CURVE SMOOTH",
"96 370 OFFCURVE",
"74 323 OFFCURVE",
"70 260 CURVE SMOOTH",
"67 228 OFFCURVE",
"70 213 OFFCURVE",
"89 198 CURVE"
);
},
{
closed = 1;
nodes = (
"27 5 OFFCURVE",
"59 -28 OFFCURVE",
"98 -35 CURVE SMOOTH",
"142 -44 OFFCURVE",
"172 -14 OFFCURVE",
"179 23 CURVE",
"180 25 OFFCURVE",
"180 29 OFFCURVE",
"180 35 CURVE SMOOTH",
"180 50 LINE SMOOTH",
"180 81 OFFCURVE",
"171 113 OFFCURVE",
"128 132 CURVE SMOOTH",
"100 144 OFFCURVE",
"77 139 OFFCURVE",
"61 126 CURVE SMOOTH",
"44 113 OFFCURVE",
"33 90 OFFCURVE",
"32 65 CURVE"
);
}
);
width = 453;
}
);
note = question;
unicode = 003F;
},
{
glyphname = at;
layers = (
{
layerId = "A436FB16-7E3F-4A25-90BC-0079C9B35420";
name = Regular;
paths = (
{
closed = 1;
nodes = (
"529 380 OFFCURVE",
"528 467 OFFCURVE",
"505 543 CURVE SMOOTH",
"481 618 OFFCURVE",
"436 681 OFFCURVE",
"364 716 CURVE SMOOTH",
"293 752 OFFCURVE",
"213 750 OFFCURVE",
"145 709 CURVE SMOOTH",
"77 668 OFFCURVE",
"21 588 OFFCURVE",
"0 467 CURVE SMOOTH",
"-20 339 OFFCURVE",
"-3 239 OFFCURVE",
"33 165 CURVE SMOOTH",
"68 91 OFFCURVE",
"120 43 OFFCURVE",
"171 22 CURVE",
"231 -6 OFFCURVE",
"276 -4 OFFCURVE",
"308 11 CURVE SMOOTH",
"319 16 OFFCURVE",
"320 28 OFFCURVE",
"312 41 CURVE SMOOTH",
"299 61 OFFCURVE",
"276 75 OFFCURVE",
"256 82 CURVE",
"249 84 OFFCURVE",
"243 85 OFFCURVE",
"237 86 CURVE",
"224 86 OFFCURVE",
"212 86 OFFCURVE",
"197 89 CURVE",
"189 90 OFFCURVE",
"181 93 OFFCURVE",
"172 96 CURVE",
"148 105 OFFCURVE",
"115 135 OFFCURVE",
"94 187 CURVE SMOOTH",
"73 239 OFFCURVE",
"63 315 OFFCURVE",
"84 419 CURVE SMOOTH",
"105 523 OFFCURVE",
"148 595 OFFCURVE",
"197 635 CURVE SMOOTH",
"245 675 OFFCURVE",
"299 683 OFFCURVE",
"346 660 CURVE SMOOTH",
"401 633 OFFCURVE",
"427 578 OFFCURVE",
"437 518 CURVE SMOOTH",
"447 458 OFFCURVE",
"441 392 OFFCURVE",
"433 347 CURVE SMOOTH",
"422 290 OFFCURVE",
"408 248 OFFCURVE",
"393 221 CURVE SMOOTH",
"377 194 OFFCURVE",
"364 186 OFFCURVE",
"355 197 CURVE",
"352 200 OFFCURVE",
"350 207 OFFCURVE",
"350 218 CURVE SMOOTH",
"350 243 OFFCURVE",
"356 287 OFFCURVE",
"363 328 CURVE SMOOTH",
"366 349 OFFCURVE",
"370 368 OFFCURVE",
"373 386 CURVE SMOOTH",
"380 421 OFFCURVE",
"385 442 OFFCURVE",
"380 462 CURVE",
"377 471 OFFCURVE",
"368 482 OFFCURVE",
"353 493 CURVE",
"346 526 OFFCURVE",
"328 551 OFFCURVE",
"305 562 CURVE",
"273 575 OFFCURVE",
"238 561 OFFCURVE",
"208 527 CURVE SMOOTH",
"178 493 OFFCURVE",
"151 438 OFFCURVE",
"138 374 CURVE SMOOTH",
"123 310 OFFCURVE",
"128 264 OFFCURVE",
"143 231 CURVE SMOOTH",
"158 198 OFFCURVE",
"181 178 OFFCURVE",
"204 169 CURVE SMOOTH",
"241 154 OFFCURVE",
"272 160 OFFCURVE",
"296 188 CURVE",
"309 161 OFFCURVE",
"327 144 OFFCURVE",
"350 136 CURVE",
"379 123 OFFCURVE",
"411 122 OFFCURVE",
"440 146 CURVE SMOOTH",
"468 169 OFFCURVE",
"495 216 OFFCURVE",
"512 300 CURVE SMOOTH"
);
},
{
closed = 1;
nodes = (
"303 403 OFFCURVE",
"287 338 OFFCURVE",
"271 294 CURVE SMOOTH",
"263 271 OFFCURVE",
"255 254 OFFCURVE",
"247 243 CURVE",
"231 219 OFFCURVE",
"215 224 OFFCURVE",
"209 261 CURVE SMOOTH",
"203 298 OFFCURVE",
"221 378 OFFCURVE",
"237 415 CURVE SMOOTH",
"253 452 OFFCURVE",
"271 480 OFFCURVE",
"286 494 CURVE SMOOTH",
"301 508 OFFCURVE",
"312 503 OFFCURVE",
"316 476 CURVE"
);
}
);
width = 595;
}
);
note = at;
unicode = 0040;
},
{
glyphname = A;
layers = (
{
layerId = "A436FB16-7E3F-4A25-90BC-0079C9B35420";
name = Regular;
paths = (
{
closed = 1;
nodes = (
"278 134 OFFCURVE",
"282 89 OFFCURVE",
"286 50 CURVE SMOOTH",
"290 13 OFFCURVE",
"297 2 OFFCURVE",
"318 -7 CURVE",
"339 -18 OFFCURVE",
"358 -18 OFFCURVE",
"381 -18 CURVE SMOOTH",
"404 -18 OFFCURVE",
"408 -10 OFFCURVE",
"407 14 CURVE SMOOTH",
"402 126 OFFCURVE",
"397 253 OFFCURVE",
"394 372 CURVE SMOOTH",
"390 491 OFFCURVE",
"390 601 OFFCURVE",
"391 677 CURVE SMOOTH",
"392 708 OFFCURVE",
"387 726 OFFCURVE",
"362 737 CURVE",
"327 750 OFFCURVE",
"294 766 OFFCURVE",
"231 770 CURVE",
"195 774 OFFCURVE",
"179 754 OFFCURVE",
"167 726 CURVE SMOOTH",
"134 646 OFFCURVE",
"92 532 OFFCURVE",
"53 417 CURVE SMOOTH",
"14 301 OFFCURVE",
"-23 185 OFFCURVE",
"-47 97 CURVE",
"-51 78 OFFCURVE",
"-53 64 OFFCURVE",
"-52 56 CURVE",
"-51 40 OFFCURVE",
"-40 27 OFFCURVE",
"-27 16 CURVE",
"-20 11 OFFCURVE",
"-13 6 OFFCURVE",
"-6 2 CURVE",
"8 -7 OFFCURVE",
"25 -19 OFFCURVE",
"35 -15 CURVE SMOOTH",
"40 -13 OFFCURVE",
"44 -6 OFFCURVE",
"48 5 CURVE",
"61 48 OFFCURVE",
"74 91 OFFCURVE",
"93 142 CURVE",
"118 151 OFFCURVE",
"146 159 OFFCURVE",
"179 166 CURVE SMOOTH",
"211 173 OFFCURVE",
"243 179 OFFCURVE",
"275 186 CURVE"
);
},
{
closed = 1;
nodes = (
"191 428 OFFCURVE",
"230 532 OFFCURVE",
"261 612 CURVE",
"261 568 OFFCURVE",
"262 523 OFFCURVE",
"263 476 CURVE SMOOTH",
"264 429 OFFCURVE",
"266 382 OFFCURVE",
"267 334 CURVE",
"228 330 OFFCURVE",
"190 324 OFFCURVE",
"152 316 CURVE"
);
}
);
width = 479;
}
);
note = A;
unicode = 0041;
},
{
glyphname = B;
layers = (
{
layerId = "A436FB16-7E3F-4A25-90BC-0079C9B35420";
name = Regular;
paths = (
{
closed = 1;
nodes = (
"340 385 OFFCURVE",
"359 407 OFFCURVE",
"378 428 CURVE",
"413 471 OFFCURVE",
"439 528 OFFCURVE",
"428 592 CURVE SMOOTH",
"417 649 OFFCURVE",
"396 689 OFFCURVE",
"368 726 CURVE SMOOTH",
"336 766 OFFCURVE",
"275 775 OFFCURVE",
"211 767 CURVE SMOOTH",
"147 758 OFFCURVE",
"79 730 OFFCURVE",
"34 698 CURVE",
"30 615 OFFCURVE",
"19 516 OFFCURVE",
"8 418 CURVE SMOOTH",
"3 369 OFFCURVE",
"-3 321 OFFCURVE",
"-8 274 CURVE SMOOTH",
"-13 227 OFFCURVE",
"-17 184 OFFCURVE",
"-20 145 CURVE",
"-23 121 OFFCURVE",
"-22 106 OFFCURVE",
"-18 94 CURVE",
"-16 87 OFFCURVE",
"-13 81 OFFCURVE",
"-9 76 CURVE",
"-6 70 OFFCURVE",
"-2 63 OFFCURVE",
"3 55 CURVE",
"28 24 OFFCURVE",
"44 7 OFFCURVE",
"71 -10 CURVE",
"84 -22 OFFCURVE",
"94 -28 OFFCURVE",
"106 -29 CURVE SMOOTH",
"117 -30 OFFCURVE",
"128 -27 OFFCURVE",
"145 -20 CURVE SMOOTH",
"177 -8 OFFCURVE",
"213 10 OFFCURVE",
"248 33 CURVE SMOOTH",
"283 56 OFFCURVE",
"314 83 OFFCURVE",
"337 114 CURVE SMOOTH",
"368 153 OFFCURVE",
"383 190 OFFCURVE",
"376 246 CURVE SMOOTH",
"369 293 OFFCURVE",
"346 340 OFFCURVE",
"313 364 CURVE"
);
},
{
closed = 1;
nodes = (
"154 457 OFFCURVE",
"159 485 OFFCURVE",
"164 512 CURVE SMOOTH",
"169 539 OFFCURVE",
"174 564 OFFCURVE",
"179 587 CURVE",
"213 608 OFFCURVE",
"242 620 OFFCURVE",
"266 621 CURVE SMOOTH",
"314 623 OFFCURVE",
"313 595 OFFCURVE",
"301 566 CURVE SMOOTH",
"288 537 OFFCURVE",
"259 502 OFFCURVE",
"219 470 CURVE SMOOTH",
"198 453 OFFCURVE",
"175 439 OFFCURVE",
"149 427 CURVE"
);
},
{
closed = 1;
nodes = (
"156 294 OFFCURVE",
"185 299 OFFCURVE",
"206 296 CURVE",
"227 292 OFFCURVE",
"240 282 OFFCURVE",
"244 269 CURVE",
"248 248 OFFCURVE",
"234 222 OFFCURVE",
"209 196 CURVE SMOOTH",
"184 170 OFFCURVE",
"145 145 OFFCURVE",
"100 128 CURVE",
"103 153 OFFCURVE",
"107 178 OFFCURVE",
"111 203 CURVE SMOOTH",
"115 228 OFFCURVE",
"119 253 OFFCURVE",
"123 278 CURVE"
);
}
);
width = 463;
}
);
note = B;
unicode = 0042;
},
{
glyphname = C;
layers = (
{
layerId = "A436FB16-7E3F-4A25-90BC-0079C9B35420";
name = Regular;
paths = (
{
closed = 1;
nodes = (
"270 223 OFFCURVE",
"237 212 OFFCURVE",
"212 174 CURVE SMOOTH",
"177 119 OFFCURVE",
"151 97 OFFCURVE",
"133 106 CURVE",
"114 114 OFFCURVE",
"106 151 OFFCURVE",
"105 203 CURVE SMOOTH",
"104 254 OFFCURVE",
"110 318 OFFCURVE",
"122 378 CURVE SMOOTH",
"134 434 OFFCURVE",
"155 501 OFFCURVE",
"178 553 CURVE SMOOTH",
"189 579 OFFCURVE",
"200 600 OFFCURVE",
"211 616 CURVE SMOOTH",
"232 648 OFFCURVE",
"250 636 OFFCURVE",
"254 608 CURVE",
"255 593 OFFCURVE",
"256 577 OFFCURVE",
"256 560 CURVE SMOOTH",
"256 549 OFFCURVE",
"257 539 OFFCURVE",
"258 528 CURVE",
"266 472 OFFCURVE",
"287 441 OFFCURVE",
"340 426 CURVE SMOOTH",
"368 418 OFFCURVE",
"370 432 OFFCURVE",
"375 451 CURVE",
"383 491 OFFCURVE",
"386 557 OFFCURVE",
"383 606 CURVE SMOOTH",
"380 649 OFFCURVE",
"372 680 OFFCURVE",
"340 713 CURVE",
"309 740 OFFCURVE",
"259 767 OFFCURVE",
"215 772 CURVE SMOOTH",
"186 775 OFFCURVE",
"151 767 OFFCURVE",
"118 730 CURVE SMOOTH",
"77 682 OFFCURVE",
"41 614 OFFCURVE",
"16 538 CURVE SMOOTH",
"-9 461 OFFCURVE",
"-26 377 OFFCURVE",
"-30 298 CURVE SMOOTH",
"-35 218 OFFCURVE",
"-29 146 OFFCURVE",
"-9 91 CURVE",
"3 54 OFFCURVE",
"29 25 OFFCURVE",
"52 10 CURVE",
"79 -3 OFFCURVE",
"113 -22 OFFCURVE",
"154 -27 CURVE SMOOTH",
"194 -32 OFFCURVE",
"239 -14 OFFCURVE",
"264 11 CURVE",
"288 38 OFFCURVE",
"314 79 OFFCURVE",
"329 126 CURVE SMOOTH",
"342 166 OFFCURVE",
"344 193 OFFCURVE",
"311 206 CURVE SMOOTH"
);
}
);
width = 428;
}
);
note = C;
unicode = 0043;
},
{
glyphname = D;
layers = (
{
layerId = "A436FB16-7E3F-4A25-90BC-0079C9B35420";
name = Regular;
paths = (
{
closed = 1;
nodes = (
"-22 155 LINE SMOOTH",
"-26 123 OFFCURVE",
"-24 104 OFFCURVE",
"-19 89 CURVE",
"-17 82 OFFCURVE",
"-14 75 OFFCURVE",
"-10 70 CURVE",
"-6 64 OFFCURVE",
"-2 58 OFFCURVE",
"2 52 CURVE",
"25 25 OFFCURVE",
"40 10 OFFCURVE",
"65 -9 CURVE SMOOTH",
"89 -28 OFFCURVE",
"113 -31 OFFCURVE",
"136 -18 CURVE",
"224 19 OFFCURVE",
"292 82 OFFCURVE",
"340 155 CURVE SMOOTH",
"387 228 OFFCURVE",
"416 312 OFFCURVE",
"425 393 CURVE SMOOTH",
"434 473 OFFCURVE",
"426 551 OFFCURVE",
"401 611 CURVE SMOOTH",
"373 682 OFFCURVE",
"333 723 OFFCURVE",
"289 744 CURVE SMOOTH",
"244 765 OFFCURVE",
"195 767 OFFCURVE",
"151 758 CURVE SMOOTH",
"106 749 OFFCURVE",
"63 727 OFFCURVE",
"34 706 CURVE"
);
},
{
closed = 1;
nodes = (
"126 299 OFFCURVE",
"150 451 OFFCURVE",
"179 596 CURVE",
"230 619 OFFCURVE",
"268 595 OFFCURVE",
"283 558 CURVE SMOOTH",
"290 539 OFFCURVE",
"294 513 OFFCURVE",
"293 478 CURVE SMOOTH",
"292 427 OFFCURVE",
"278 363 OFFCURVE",
"248 302 CURVE SMOOTH",
"218 241 OFFCURVE",
"171 181 OFFCURVE",
"103 138 CURVE"
);
}
);
width = 489;
}
);
note = D;
unicode = 0044;
},
{
glyphname = E;
layers = (
{
layerId = "A436FB16-7E3F-4A25-90BC-0079C9B35420";
name = Regular;
paths = (
{
closed = 1;
nodes = (
"-31 132 LINE",
"-34 97 OFFCURVE",
"-26 73 OFFCURVE",
"-11 54 CURVE",
"6 30 OFFCURVE",
"18 17 OFFCURVE",
"33 2 CURVE SMOOTH",
"46 -11 OFFCURVE",
"61 -22 OFFCURVE",
"97 -9 CURVE",
"124 -2 OFFCURVE",
"152 6 OFFCURVE",
"181 15 CURVE SMOOTH",
"210 24 OFFCURVE",
"239 32 OFFCURVE",
"267 40 CURVE SMOOTH",
"290 47 OFFCURVE",
"292 53 OFFCURVE",
"287 80 CURVE",
"280 104 OFFCURVE",
"275 126 OFFCURVE",
"264 151 CURVE",
"255 174 OFFCURVE",
"242 181 OFFCURVE",
"219 178 CURVE",
"176 174 OFFCURVE",
"141 169 OFFCURVE",
"101 158 CURVE",
"108 193 OFFCURVE",
"114 229 OFFCURVE",
"121 268 CURVE",
"146 275 OFFCURVE",
"171 282 OFFCURVE",
"198 289 CURVE SMOOTH",
"224 295 OFFCURVE",
"250 301 OFFCURVE",
"275 308 CURVE SMOOTH",
"298 315 OFFCURVE",
"302 320 OFFCURVE",
"295 348 CURVE",
"290 372 OFFCURVE",
"285 394 OFFCURVE",
"274 418 CURVE",
"265 441 OFFCURVE",
"253 446 OFFCURVE",
"230 445 CURVE SMOOTH",
"203 444 OFFCURVE",
"179 442 OFFCURVE",
"154 437 CURVE",
"161 467 OFFCURVE",
"167 496 OFFCURVE",
"172 523 CURVE SMOOTH",
"177 550 OFFCURVE",
"183 576 OFFCURVE",
"188 601 CURVE",
"244 612 OFFCURVE",
"295 619 OFFCURVE",
"342 626 CURVE SMOOTH",
"365 630 OFFCURVE",
"369 637 OFFCURVE",
"365 665 CURVE",
"360 689 OFFCURVE",
"357 707 OFFCURVE",
"346 732 CURVE",
"339 756 OFFCURVE",
"325 767 OFFCURVE",
"303 766 CURVE SMOOTH",
"210 761 OFFCURVE",
"113 734 OFFCURVE",
"45 710 CURVE"
);
}
);
width = 385;
}
);
note = E;
unicode = 0045;
},
{
glyphname = F;
layers = (
{
layerId = "A436FB16-7E3F-4A25-90BC-0079C9B35420";
name = Regular;
paths = (
{
closed = 1;
nodes = (
"364 630 OFFCURVE",
"367 636 OFFCURVE",
"363 664 CURVE SMOOTH",
"360 687 OFFCURVE",
"353 710 OFFCURVE",
"342 733 CURVE",
"327 761 OFFCURVE",
"319 767 OFFCURVE",
"296 766 CURVE SMOOTH",
"249 763 OFFCURVE",
"202 758 OFFCURVE",
"156 751 CURVE SMOOTH",
"110 743 OFFCURVE",
"67 733 OFFCURVE",
"34 721 CURVE",
"35 669 OFFCURVE",
"29 594 OFFCURVE",
"20 511 CURVE SMOOTH",
"15 470 OFFCURVE",
"10 428 OFFCURVE",
"4 385 CURVE SMOOTH",
"-8 300 OFFCURVE",
"-19 221 OFFCURVE",
"-27 158 CURVE SMOOTH",
"-31 127 OFFCURVE",
"-34 102 OFFCURVE",
"-35 84 CURVE SMOOTH",
"-36 49 OFFCURVE",
"-35 34 OFFCURVE",
"-14 18 CURVE",
"3 7 OFFCURVE",
"27 -7 OFFCURVE",
"47 -12 CURVE SMOOTH",
"67 -17 OFFCURVE",
"84 -14 OFFCURVE",
"85 10 CURVE",
"96 82 OFFCURVE",
"110 175 OFFCURVE",
"127 271 CURVE",
"174 286 OFFCURVE",
"225 299 OFFCURVE",
"272 310 CURVE",
"295 314 OFFCURVE",
"300 322 OFFCURVE",
"293 349 CURVE",
"288 372 OFFCURVE",
"283 395 OFFCURVE",
"272 419 CURVE SMOOTH",
"253 459 OFFCURVE",
"215 446 OFFCURVE",
"191 443 CURVE",
"179 442 OFFCURVE",
"167 440 OFFCURVE",
"155 438 CURVE",
"162 469 OFFCURVE",
"167 498 OFFCURVE",
"172 526 CURVE SMOOTH",
"176 553 OFFCURVE",
"181 578 OFFCURVE",
"186 600 CURVE",
"214 605 OFFCURVE",
"241 610 OFFCURVE",
"267 614 CURVE SMOOTH",
"293 618 OFFCURVE",
"318 622 OFFCURVE",
"341 626 CURVE SMOOTH"
);
}
);
width = 380;
}
);
note = F;
unicode = 0046;
},
{
glyphname = G;
layers = (
{
layerId = "A436FB16-7E3F-4A25-90BC-0079C9B35420";
name = Regular;
paths = (
{
closed = 1;
nodes = (
"382 467 OFFCURVE",
"384 495 OFFCURVE",
"385 524 CURVE SMOOTH",
"385 552 OFFCURVE",
"385 583 OFFCURVE",
"382 606 CURVE SMOOTH",
"377 649 OFFCURVE",
"366 682 OFFCURVE",
"339 710 CURVE SMOOTH",
"311 741 OFFCURVE",
"265 762 OFFCURVE",
"225 769 CURVE SMOOTH",
"197 774 OFFCURVE",
"159 772 OFFCURVE",
"131 744 CURVE SMOOTH",
"86 700 OFFCURVE",
"48 634 OFFCURVE",
"20 559 CURVE SMOOTH",
"-8 483 OFFCURVE",
"-26 400 OFFCURVE",
"-33 320 CURVE SMOOTH",
"-40 240 OFFCURVE",
"-34 165 OFFCURVE",
"-14 108 CURVE",
"-3 71 OFFCURVE",
"20 38 OFFCURVE",
"43 19 CURVE",
"74 -2 OFFCURVE",
"107 -16 OFFCURVE",
"142 -23 CURVE",
"221 -42 OFFCURVE",
"275 17 OFFCURVE",
"315 97 CURVE SMOOTH",
"335 137 OFFCURVE",
"352 185 OFFCURVE",
"366 242 CURVE SMOOTH",
"373 275 OFFCURVE",
"373 292 OFFCURVE",
"358 320 CURVE SMOOTH",
"354 327 OFFCURVE",
"350 335 OFFCURVE",
"345 344 CURVE SMOOTH",
"336 361 OFFCURVE",
"324 383 OFFCURVE",
"306 390 CURVE",
"297 393 OFFCURVE",
"285 394 OFFCURVE",
"271 391 CURVE SMOOTH",
"259 388 OFFCURVE",
"245 386 OFFCURVE",
"228 383 CURVE SMOOTH",
"211 380 OFFCURVE",
"195 376 OFFCURVE",
"180 371 CURVE",
"148 364 OFFCURVE",
"124 362 OFFCURVE",
"131 331 CURVE SMOOTH",
"146 263 OFFCURVE",
"171 234 OFFCURVE",
"222 238 CURVE",
"209 197 OFFCURVE",
"193 158 OFFCURVE",
"177 133 CURVE SMOOTH",
"160 108 OFFCURVE",
"143 94 OFFCURVE",
"127 102 CURVE SMOOTH",
"108 111 OFFCURVE",
"99 153 OFFCURVE",
"98 207 CURVE SMOOTH",
"97 261 OFFCURVE",
"104 327 OFFCURVE",
"119 384 CURVE SMOOTH",
"135 453 OFFCURVE",
"158 519 OFFCURVE",
"181 565 CURVE SMOOTH",
"192 588 OFFCURVE",
"204 605 OFFCURVE",
"215 618 CURVE SMOOTH",
"226 631 OFFCURVE",
"235 635 OFFCURVE",
"243 632 CURVE SMOOTH",
"251 629 OFFCURVE",
"253 613 OFFCURVE",
"256 593 CURVE",
"257 582 OFFCURVE",
"258 571 OFFCURVE",
"258 559 CURVE SMOOTH",
"258 547 OFFCURVE",
"259 537 OFFCURVE",
"260 526 CURVE SMOOTH",
"265 469 OFFCURVE",
"291 432 OFFCURVE",
"348 421 CURVE",
"369 418 OFFCURVE",
"374 425 OFFCURVE",
"379 448 CURVE"
);
}
);
width = 442;
}
);
note = G;
unicode = 0047;
},
{
glyphname = H;
layers = (
{
layerId = "A436FB16-7E3F-4A25-90BC-0079C9B35420";
name = Regular;
paths = (
{
closed = 1;
nodes = (
"433 691 OFFCURVE",
"430 702 OFFCURVE",
"409 721 CURVE",
"386 740 OFFCURVE",
"361 756 OFFCURVE",
"338 764 CURVE SMOOTH",
"314 773 OFFCURVE",
"303 772 OFFCURVE",
"296 739 CURVE SMOOTH",
"288 695 OFFCURVE",
"280 644 OFFCURVE",
"271 587 CURVE SMOOTH",
"262 530 OFFCURVE",
"253 471 OFFCURVE",
"244 410 CURVE",
"213 407 OFFCURVE",
"179 403 OFFCURVE",
"144 398 CURVE",
"153 448 OFFCURVE",
"161 495 OFFCURVE",
"168 538 CURVE SMOOTH",
"175 581 OFFCURVE",
"182 618 OFFCURVE",
"189 649 CURVE",
"194 677 OFFCURVE",
"192 688 OFFCURVE",
"169 707 CURVE",
"148 726 OFFCURVE",
"117 743 OFFCURVE",
"93 752 CURVE",
"70 763 OFFCURVE",
"60 760 OFFCURVE",
"53 727 CURVE",
"47 682 OFFCURVE",
"41 632 OFFCURVE",
"34 576 CURVE SMOOTH",
"21 463 OFFCURVE",
"7 344 OFFCURVE",
"-8 233 CURVE SMOOTH",
"-15 177 OFFCURVE",
"-23 127 OFFCURVE",
"-31 83 CURVE SMOOTH",
"-38 48 OFFCURVE",
"-29 32 OFFCURVE",
"-9 17 CURVE",
"-1 10 OFFCURVE",
"9 4 OFFCURVE",
"21 -1 CURVE SMOOTH",
"44 -10 OFFCURVE",
"69 -23 OFFCURVE",
"77 -16 CURVE",
"81 -13 OFFCURVE",
"84 -5 OFFCURVE",
"86 6 CURVE SMOOTH",
"91 38 OFFCURVE",
"96 74 OFFCURVE",
"101 113 CURVE SMOOTH",
"106 152 OFFCURVE",
"112 194 OFFCURVE",
"119 238 CURVE",
"136 242 OFFCURVE",
"154 246 OFFCURVE",
"172 249 CURVE SMOOTH",
"189 252 OFFCURVE",
"207 256 OFFCURVE",
"224 260 CURVE",
"215 188 OFFCURVE",
"208 127 OFFCURVE",
"205 80 CURVE",
"197 32 OFFCURVE",
"221 13 OFFCURVE",
"257 -3 CURVE SMOOTH",
"274 -10 OFFCURVE",
"291 -17 OFFCURVE",
"303 -18 CURVE SMOOTH",
"314 -19 OFFCURVE",
"321 -14 OFFCURVE",
"321 5 CURVE",
"336 113 OFFCURVE",
"354 237 OFFCURVE",
"374 354 CURVE SMOOTH",
"393 471 OFFCURVE",
"412 581 OFFCURVE",
"428 664 CURVE SMOOTH"
);
}
);
width = 452;
}
);
note = H;
unicode = 0048;
},
{
glyphname = I;
layers = (
{
layerId = "A436FB16-7E3F-4A25-90BC-0079C9B35420";
name = Regular;
paths = (
{
closed = 1;
nodes = (
"139 726 OFFCURVE",
"108 744 OFFCURVE",
"84 752 CURVE",
"60 761 OFFCURVE",
"50 756 OFFCURVE",
"43 727 CURVE",
"34 678 OFFCURVE",
"22 604 OFFCURVE",
"11 524 CURVE SMOOTH",
"-1 444 OFFCURVE",
"-12 356 OFFCURVE",
"-21 277 CURVE SMOOTH",
"-30 198 OFFCURVE",
"-37 128 OFFCURVE",
"-40 83 CURVE SMOOTH",
"-43 48 OFFCURVE",
"-38 32 OFFCURVE",
"-18 17 CURVE SMOOTH",
"1 2 OFFCURVE",
"22 -6 OFFCURVE",
"45 -15 CURVE",
"68 -23 OFFCURVE",
"73 -17 OFFCURVE",
"77 6 CURVE",
"85 65 OFFCURVE",
"95 139 OFFCURVE",
"107 218 CURVE SMOOTH",
"119 297 OFFCURVE",
"132 380 OFFCURVE",
"145 456 CURVE SMOOTH",
"157 531 OFFCURVE",
"169 600 OFFCURVE",
"180 649 CURVE",
"185 677 OFFCURVE",
"183 688 OFFCURVE",
"160 707 CURVE"
);
}
);
width = 208;
}
);
note = I;
unicode = 0049;
},
{
glyphname = J;
layers = (
{
layerId = "A436FB16-7E3F-4A25-90BC-0079C9B35420";
name = Regular;
paths = (
{
closed = 1;
nodes = (
"159 -37 OFFCURVE",
"199 -18 OFFCURVE",
"230 10 CURVE SMOOTH",
"269 47 OFFCURVE",
"299 127 OFFCURVE",
"324 239 CURVE SMOOTH",
"348 351 OFFCURVE",
"366 494 OFFCURVE",
"381 661 CURVE SMOOTH",
"384 689 OFFCURVE",
"382 698 OFFCURVE",
"359 718 CURVE SMOOTH",
"336 737 OFFCURVE",
"304 751 OFFCURVE",
"281 760 CURVE",
"257 768 OFFCURVE",
"245 764 OFFCURVE",
"241 733 CURVE SMOOTH",
"234 666 OFFCURVE",
"225 574 OFFCURVE",
"213 480 CURVE SMOOTH",
"201 386 OFFCURVE",
"187 292 OFFCURVE",
"171 221 CURVE SMOOTH",
"163 185 OFFCURVE",
"155 156 OFFCURVE",
"146 135 CURVE SMOOTH",
"129 92 OFFCURVE",
"105 100 OFFCURVE",
"101 129 CURVE",
"98 143 OFFCURVE",
"96 166 OFFCURVE",
"95 198 CURVE SMOOTH",
"94 247 OFFCURVE",
"69 286 OFFCURVE",
"21 314 CURVE",
"-8 333 OFFCURVE",
"-19 309 OFFCURVE",
"-26 266 CURVE",
"-33 209 OFFCURVE",
"-33 167 OFFCURVE",
"-21 124 CURVE SMOOTH",
"-6 64 OFFCURVE",
"23 11 OFFCURVE",
"92 -13 CURVE SMOOTH"
);
}
);
width = 418;
}
);
note = J;
unicode = 004A;
},
{
glyphname = K;
layers = (
{
layerId = "A436FB16-7E3F-4A25-90BC-0079C9B35420";
name = Regular;
paths = (
{
closed = 1;
nodes = (
"237 252 OFFCURVE",
"260 206 OFFCURVE",
"280 166 CURVE SMOOTH",
"300 125 OFFCURVE",
"319 89 OFFCURVE",
"334 65 CURVE SMOOTH",
"349 42 OFFCURVE",
"346 30 OFFCURVE",
"327 17 CURVE",
"316 8 OFFCURVE",
"299 1 OFFCURVE",
"284 -2 CURVE",
"261 -11 OFFCURVE",
"237 -11 OFFCURVE",
"213 28 CURVE SMOOTH",
"208 36 OFFCURVE",
"202 47 OFFCURVE",
"194 61 CURVE SMOOTH",
"177 89 OFFCURVE",
"156 124 OFFCURVE",
"136 164 CURVE",
"125 183 OFFCURVE",
"116 203 OFFCURVE",
"107 222 CURVE",
"101 181 OFFCURVE",
"96 142 OFFCURVE",
"91 106 CURVE SMOOTH",
"86 69 OFFCURVE",
"81 36 OFFCURVE",
"76 6 CURVE",
"76 -14 OFFCURVE",
"69 -21 OFFCURVE",
"58 -20 CURVE",
"52 -19 OFFCURVE",
"45 -17 OFFCURVE",
"37 -13 CURVE",
"29 -10 OFFCURVE",
"20 -6 OFFCURVE",
"10 -2 CURVE SMOOTH",
"-29 14 OFFCURVE",
"-46 34 OFFCURVE",
"-42 83 CURVE SMOOTH",
"-39 128 OFFCURVE",
"-31 200 OFFCURVE",
"-21 281 CURVE SMOOTH",
"-11 361 OFFCURVE",
"0 451 OFFCURVE",
"12 533 CURVE SMOOTH",
"23 615 OFFCURVE",
"35 689 OFFCURVE",
"44 738 CURVE",
"51 767 OFFCURVE",
"62 772 OFFCURVE",
"85 763 CURVE",
"109 755 OFFCURVE",
"140 737 OFFCURVE",
"161 718 CURVE SMOOTH",
"184 698 OFFCURVE",
"188 689 OFFCURVE",
"181 661 CURVE SMOOTH",
"169 606 OFFCURVE",
"157 533 OFFCURVE",
"142 445 CURVE",
"159 471 OFFCURVE",
"178 498 OFFCURVE",
"198 527 CURVE SMOOTH",
"217 556 OFFCURVE",
"236 584 OFFCURVE",
"254 612 CURVE SMOOTH",
"272 640 OFFCURVE",
"289 666 OFFCURVE",
"305 691 CURVE SMOOTH",
"320 715 OFFCURVE",
"333 735 OFFCURVE",
"342 752 CURVE SMOOTH",
"348 763 OFFCURVE",
"354 769 OFFCURVE",
"360 769 CURVE SMOOTH",
"375 769 OFFCURVE",
"393 747 OFFCURVE",
"406 723 CURVE SMOOTH",
"418 699 OFFCURVE",
"429 673 OFFCURVE",
"428 650 CURVE",
"427 639 OFFCURVE",
"424 625 OFFCURVE",
"417 608 CURVE SMOOTH",
"400 565 OFFCURVE",
"369 512 OFFCURVE",
"333 456 CURVE SMOOTH",
"297 400 OFFCURVE",
"256 341 OFFCURVE",
"220 292 CURVE"
);
}
);
width = 443;
}
);
note = K;
unicode = 004B;
},
{
glyphname = L;
layers = (
{
layerId = "A436FB16-7E3F-4A25-90BC-0079C9B35420";
name = Regular;
paths = (
{
closed = 1;
nodes = (
"282 49 OFFCURVE",
"281 54 OFFCURVE",
"274 82 CURVE",
"270 105 OFFCURVE",
"263 129 OFFCURVE",
"252 152 CURVE SMOOTH",
"241 176 OFFCURVE",
"230 182 OFFCURVE",
"207 179 CURVE SMOOTH",
"167 175 OFFCURVE",
"134 170 OFFCURVE",
"95 161 CURVE",
"108 246 OFFCURVE",
"125 339 OFFCURVE",
"141 427 CURVE SMOOTH",
"157 515 OFFCURVE",
"173 599 OFFCURVE",
"188 664 CURVE SMOOTH",
"195 691 OFFCURVE",
"191 702 OFFCURVE",
"170 721 CURVE SMOOTH",
"149 740 OFFCURVE",
"118 756 OFFCURVE",
"94 764 CURVE",
"71 773 OFFCURVE",
"60 769 OFFCURVE",
"52 740 CURVE",
"40 685 OFFCURVE",
"27 617 OFFCURVE",
"15 542 CURVE SMOOTH",
"2 467 OFFCURVE",
"-10 388 OFFCURVE",
"-20 316 CURVE SMOOTH",
"-30 243 OFFCURVE",
"-38 176 OFFCURVE",
"-42 127 CURVE",
"-46 95 OFFCURVE",
"-38 73 OFFCURVE",
"-23 54 CURVE SMOOTH",
"-13 42 OFFCURVE",
"-5 32 OFFCURVE",
"1 25 CURVE",
"13 9 OFFCURVE",
"26 -5 OFFCURVE",
"43 -13 CURVE",
"52 -18 OFFCURVE",
"66 -16 OFFCURVE",
"85 -8 CURVE",
"112 0 OFFCURVE",
"140 8 OFFCURVE",
"169 17 CURVE SMOOTH",
"198 25 OFFCURVE",
"227 33 OFFCURVE",
"255 41 CURVE SMOOTH"
);
}
);
width = 355;
}
);
note = L;
unicode = 004C;
},
{
glyphname = M;
layers = (
{
layerId = "A436FB16-7E3F-4A25-90BC-0079C9B35420";
name = Regular;
paths = (
{
closed = 1;
nodes = (
"146 340 OFFCURVE",
"160 220 OFFCURVE",
"175 128 CURVE SMOOTH",
"179 105 OFFCURVE",
"183 91 OFFCURVE",
"188 82 CURVE SMOOTH",
"193 73 OFFCURVE",
"200 67 OFFCURVE",
"209 62 CURVE",
"224 55 OFFCURVE",
"239 49 OFFCURVE",
"255 44 CURVE SMOOTH",
"279 37 OFFCURVE",
"280 44 OFFCURVE",
"289 72 CURVE SMOOTH",
"302 117 OFFCURVE",
"326 187 OFFCURVE",
"352 260 CURVE SMOOTH",
"378 332 OFFCURVE",
"405 410 OFFCURVE",
"428 470 CURVE",
"416 401 OFFCURVE",
"405 322 OFFCURVE",
"397 251 CURVE SMOOTH",
"388 180 OFFCURVE",
"382 118 OFFCURVE",
"379 79 CURVE",
"375 46 OFFCURVE",
"381 28 OFFCURVE",
"402 13 CURVE",
"418 0 OFFCURVE",
"441 -9 OFFCURVE",
"462 -16 CURVE SMOOTH",
"485 -24 OFFCURVE",
"490 -12 OFFCURVE",
"495 12 CURVE",
"500 59 OFFCURVE",
"509 128 OFFCURVE",
"521 205 CURVE SMOOTH",
"526 243 OFFCURVE",
"532 283 OFFCURVE",
"538 325 CURVE SMOOTH",
"550 408 OFFCURVE",
"563 488 OFFCURVE",
"575 558 CURVE SMOOTH",
"580 593 OFFCURVE",
"585 623 OFFCURVE",
"590 649 CURVE SMOOTH",
"597 684 OFFCURVE",
"591 700 OFFCURVE",
"567 715 CURVE SMOOTH",
"532 736 OFFCURVE",
"494 751 OFFCURVE",
"462 762 CURVE",
"435 773 OFFCURVE",
"419 771 OFFCURVE",
"406 755 CURVE SMOOTH",
"393 739 OFFCURVE",
"381 709 OFFCURVE",
"364 661 CURVE",
"347 618 OFFCURVE",
"327 567 OFFCURVE",
"309 516 CURVE SMOOTH",
"291 465 OFFCURVE",
"272 414 OFFCURVE",
"259 373 CURVE",
"253 431 OFFCURVE",
"248 477 OFFCURVE",
"245 511 CURVE SMOOTH",
"241 544 OFFCURVE",
"238 570 OFFCURVE",
"236 588 CURVE SMOOTH",
"234 606 OFFCURVE",
"233 618 OFFCURVE",
"233 625 CURVE",
"232 638 OFFCURVE",
"231 653 OFFCURVE",
"228 669 CURVE SMOOTH",
"225 685 OFFCURVE",
"220 698 OFFCURVE",
"209 709 CURVE SMOOTH",
"204 714 OFFCURVE",
"196 719 OFFCURVE",
"187 724 CURVE SMOOTH",
"158 739 OFFCURVE",
"132 749 OFFCURVE",
"91 757 CURVE SMOOTH",
"64 762 OFFCURVE",
"53 756 OFFCURVE",
"45 721 CURVE",
"36 672 OFFCURVE",
"24 600 OFFCURVE",
"13 521 CURVE SMOOTH",
"1 442 OFFCURVE",
"-12 357 OFFCURVE",
"-21 278 CURVE SMOOTH",
"-30 199 OFFCURVE",
"-37 127 OFFCURVE",
"-40 78 CURVE SMOOTH",
"-43 43 OFFCURVE",
"-37 28 OFFCURVE",
"-16 12 CURVE SMOOTH",
"1 -1 OFFCURVE",
"23 -11 OFFCURVE",
"43 -18 CURVE SMOOTH",
"64 -25 OFFCURVE",
"70 -18 OFFCURVE",
"74 6 CURVE",
"79 62 OFFCURVE",
"88 135 OFFCURVE",
"100 214 CURVE SMOOTH",
"111 293 OFFCURVE",
"124 377 OFFCURVE",
"137 457 CURVE"
);
}
);
width = 616;
}
);
note = M;
unicode = 004D;
},
{
glyphname = N;
layers = (
{
layerId = "A436FB16-7E3F-4A25-90BC-0079C9B35420";
name = Regular;
paths = (
{
closed = 1;
nodes = (
"253 344 OFFCURVE",
"249 375 OFFCURVE",
"244 408 CURVE SMOOTH",
"239 440 OFFCURVE",
"235 471 OFFCURVE",
"231 501 CURVE SMOOTH",
"222 560 OFFCURVE",
"215 612 OFFCURVE",
"211 643 CURVE SMOOTH",
"206 683 OFFCURVE",
"198 701 OFFCURVE",
"174 714 CURVE",
"145 733 OFFCURVE",
"118 743 OFFCURVE",
"90 754 CURVE",
"67 762 OFFCURVE",
"53 756 OFFCURVE",
"46 725 CURVE SMOOTH",
"35 669 OFFCURVE",
"23 592 OFFCURVE",
"12 509 CURVE SMOOTH",
"0 425 OFFCURVE",
"-12 338 OFFCURVE",
"-20 262 CURVE SMOOTH",
"-29 186 OFFCURVE",
"-36 123 OFFCURVE",
"-39 88 CURVE SMOOTH",
"-43 53 OFFCURVE",
"-38 37 OFFCURVE",
"-19 22 CURVE",
"0 3 OFFCURVE",
"23 -3 OFFCURVE",
"44 -11 CURVE SMOOTH",
"67 -20 OFFCURVE",
"73 -15 OFFCURVE",
"76 8 CURVE SMOOTH",
"81 56 OFFCURVE",
"91 120 OFFCURVE",
"101 191 CURVE SMOOTH",
"106 226 OFFCURVE",
"111 263 OFFCURVE",
"117 302 CURVE SMOOTH",
"122 340 OFFCURVE",
"128 378 OFFCURVE",
"133 415 CURVE",
"144 352 OFFCURVE",
"156 289 OFFCURVE",
"168 230 CURVE SMOOTH",
"180 170 OFFCURVE",
"193 117 OFFCURVE",
"205 77 CURVE SMOOTH",
"213 48 OFFCURVE",
"227 28 OFFCURVE",
"246 17 CURVE",
"267 6 OFFCURVE",
"288 -2 OFFCURVE",
"309 -9 CURVE SMOOTH",
"333 -17 OFFCURVE",
"346 -8 OFFCURVE",
"348 17 CURVE",
"360 109 OFFCURVE",
"376 228 OFFCURVE",
"392 344 CURVE SMOOTH",
"408 460 OFFCURVE",
"425 574 OFFCURVE",
"440 655 CURVE SMOOTH",
"445 683 OFFCURVE",
"444 700 OFFCURVE",
"421 719 CURVE SMOOTH",
"393 742 OFFCURVE",
"382 746 OFFCURVE",
"358 754 CURVE SMOOTH",
"334 762 OFFCURVE",
"322 756 OFFCURVE",
"317 727 CURVE SMOOTH",
"297 614 OFFCURVE",
"273 467 OFFCURVE",
"258 314 CURVE"
);
}
);
width = 468;
}
);
note = N;
unicode = 004E;
},
{
glyphname = O;
layers = (
{
layerId = "A436FB16-7E3F-4A25-90BC-0079C9B35420";
name = Regular;
paths = (
{
closed = 1;
nodes = (
"313 732 OFFCURVE",
"270 752 OFFCURVE",
"226 761 CURVE SMOOTH",
"193 768 OFFCURVE",
"151 752 OFFCURVE",
"124 724 CURVE SMOOTH",
"60 653 OFFCURVE",
"17 543 OFFCURVE",
"-3 429 CURVE SMOOTH",
"-24 315 OFFCURVE",
"-22 197 OFFCURVE",
"6 109 CURVE SMOOTH",
"18 72 OFFCURVE",
"43 42 OFFCURVE",
"66 23 CURVE SMOOTH",
"95 0 OFFCURVE",
"133 -10 OFFCURVE",
"166 -15 CURVE SMOOTH",
"217 -23 OFFCURVE",
"254 -10 OFFCURVE",
"289 31 CURVE",
"338 99 OFFCURVE",
"370 198 OFFCURVE",
"387 300 CURVE SMOOTH",
"403 402 OFFCURVE",
"404 506 OFFCURVE",
"392 589 CURVE SMOOTH",
"384 636 OFFCURVE",
"371 672 OFFCURVE",
"340 704 CURVE SMOOTH"
);
},
{
closed = 1;
nodes = (
"255 622 OFFCURVE",
"261 610 OFFCURVE",
"265 590 CURVE SMOOTH",
"273 550 OFFCURVE",
"273 492 OFFCURVE",
"268 428 CURVE SMOOTH",
"263 364 OFFCURVE",
"251 300 OFFCURVE",
"234 240 CURVE SMOOTH",
"217 180 OFFCURVE",
"197 137 OFFCURVE",
"177 117 CURVE SMOOTH",
"156 97 OFFCURVE",
"135 106 OFFCURVE",
"126 145 CURVE SMOOTH",
"117 184 OFFCURVE",
"116 239 OFFCURVE",
"122 302 CURVE SMOOTH",
"128 365 OFFCURVE",
"139 417 OFFCURVE",
"158 476 CURVE SMOOTH",
"177 535 OFFCURVE",
"198 582 OFFCURVE",
"219 610 CURVE",
"230 623 OFFCURVE",
"239 628 OFFCURVE",
"247 625 CURVE SMOOTH"
);
}
);
width = 463;
}
);
note = O;
unicode = 004F;
},
{
glyphname = P;
layers = (
{
layerId = "A436FB16-7E3F-4A25-90BC-0079C9B35420";
name = Regular;
paths = (
{
closed = 1;
nodes = (
"179 230 OFFCURVE",
"231 259 OFFCURVE",
"278 293 CURVE SMOOTH",
"325 327 OFFCURVE",
"365 366 OFFCURVE",
"392 406 CURVE SMOOTH",
"424 454 OFFCURVE",
"449 506 OFFCURVE",
"434 574 CURVE SMOOTH",
"419 642 OFFCURVE",
"393 685 OFFCURVE",
"365 724 CURVE",
"330 768 OFFCURVE",
"276 769 OFFCURVE",
"219 753 CURVE SMOOTH",
"162 736 OFFCURVE",
"101 700 OFFCURVE",
"56 668 CURVE SMOOTH",
"52 665 OFFCURVE",
"48 651 OFFCURVE",
"45 626 CURVE SMOOTH",
"37 574 OFFCURVE",
"29 494 OFFCURVE",
"21 403 CURVE SMOOTH",
"13 311 OFFCURVE",
"5 222 OFFCURVE",
"-3 154 CURVE SMOOTH",
"-8 119 OFFCURVE",
"-12 94 OFFCURVE",
"-17 79 CURVE",
"-24 44 OFFCURVE",
"-15 25 OFFCURVE",
"1 11 CURVE SMOOTH",
"9 4 OFFCURVE",
"19 -2 OFFCURVE",
"30 -6 CURVE",
"52 -15 OFFCURVE",
"78 -27 OFFCURVE",
"86 -20 CURVE",
"90 -17 OFFCURVE",
"93 -10 OFFCURVE",
"96 1 CURVE",
"104 69 OFFCURVE",
"115 138 OFFCURVE",
"127 210 CURVE"
);
},
{
closed = 1;
nodes = (
"169 455 OFFCURVE",
"181 521 OFFCURVE",
"194 581 CURVE",
"223 598 OFFCURVE",
"253 607 OFFCURVE",
"276 608 CURVE",
"299 608 OFFCURVE",
"314 601 OFFCURVE",
"317 588 CURVE",
"324 564 OFFCURVE",
"313 526 OFFCURVE",
"286 487 CURVE SMOOTH",
"258 448 OFFCURVE",
"215 409 OFFCURVE",
"156 382 CURVE"
);
}
);
width = 472;
}
);
note = P;
unicode = 0050;
},
{
glyphname = Q;
layers = (
{
layerId = "A436FB16-7E3F-4A25-90BC-0079C9B35420";
name = Regular;
paths = (
{
closed = 1;
nodes = (
"360 48 OFFCURVE",
"354 58 OFFCURVE",
"349 69 CURVE SMOOTH",
"344 80 OFFCURVE",
"337 91 OFFCURVE",
"330 102 CURVE",
"363 171 OFFCURVE",
"384 259 OFFCURVE",
"394 347 CURVE SMOOTH",
"404 434 OFFCURVE",
"402 521 OFFCURVE",
"391 589 CURVE SMOOTH",
"383 636 OFFCURVE",
"371 672 OFFCURVE",
"340 704 CURVE SMOOTH",
"313 732 OFFCURVE",
"270 752 OFFCURVE",
"226 761 CURVE SMOOTH",
"193 768 OFFCURVE",
"151 752 OFFCURVE",
"124 724 CURVE SMOOTH",
"60 653 OFFCURVE",
"17 543 OFFCURVE",
"-3 429 CURVE SMOOTH",
"-24 315 OFFCURVE",
"-22 197 OFFCURVE",
"6 109 CURVE SMOOTH",
"18 72 OFFCURVE",
"43 42 OFFCURVE",
"66 23 CURVE SMOOTH",
"95 0 OFFCURVE",
"131 -11 OFFCURVE",
"166 -15 CURVE SMOOTH",
"198 -18 OFFCURVE",
"228 -17 OFFCURVE",
"253 0 CURVE",
"257 -4 OFFCURVE",
"260 -7 OFFCURVE",
"265 -14 CURVE",
"280 -33 OFFCURVE",
"297 -39 OFFCURVE",
"317 -34 CURVE",
"333 -29 OFFCURVE",
"349 -21 OFFCURVE",
"364 -8 CURVE",
"381 4 OFFCURVE",
"382 15 OFFCURVE",
"367 38 CURVE SMOOTH"
);
},
{
closed = 1;
nodes = (
"157 95 OFFCURVE",
"139 109 OFFCURVE",
"130 133 CURVE SMOOTH",
"121 157 OFFCURVE",
"117 192 OFFCURVE",
"118 235 CURVE SMOOTH",
"118 256 OFFCURVE",
"119 279 OFFCURVE",
"121 302 CURVE",
"132 391 OFFCURVE",
"154 482 OFFCURVE",
"187 554 CURVE SMOOTH",
"203 590 OFFCURVE",
"220 615 OFFCURVE",
"234 623 CURVE SMOOTH",
"241 627 OFFCURVE",
"247 627 OFFCURVE",
"253 622 CURVE",
"264 612 OFFCURVE",
"269 579 OFFCURVE",
"271 539 CURVE SMOOTH",
"273 498 OFFCURVE",
"270 451 OFFCURVE",
"265 404 CURVE SMOOTH",
"260 357 OFFCURVE",
"252 313 OFFCURVE",
"243 272 CURVE SMOOTH",
"238 251 OFFCURVE",
"233 232 OFFCURVE",
"226 215 CURVE",
"202 208 OFFCURVE",
"183 201 OFFCURVE",
"168 190 CURVE SMOOTH",
"153 179 OFFCURVE",
"150 164 OFFCURVE",
"161 146 CURVE SMOOTH",
"164 141 OFFCURVE",
"166 137 OFFCURVE",
"169 132 CURVE",
"171 127 OFFCURVE",
"174 123 OFFCURVE",
"177 118 CURVE"
);
}
);
width = 462;
}
);
note = Q;
unicode = 0051;
},
{
glyphname = R;
layers = (
{
layerId = "A436FB16-7E3F-4A25-90BC-0079C9B35420";
name = Regular;
paths = (
{
closed = 1;
nodes = (
"147 188 OFFCURVE",
"175 146 OFFCURVE",
"203 109 CURVE SMOOTH",
"231 72 OFFCURVE",
"259 38 OFFCURVE",
"279 17 CURVE",
"310 -11 OFFCURVE",
"333 -11 OFFCURVE",
"352 -3 CURVE",
"368 1 OFFCURVE",
"377 0 OFFCURVE",
"392 19 CURVE",
"405 34 OFFCURVE",
"409 44 OFFCURVE",
"390 67 CURVE SMOOTH",
"367 94 OFFCURVE",
"342 130 OFFCURVE",
"316 167 CURVE SMOOTH",
"290 203 OFFCURVE",
"265 242 OFFCURVE",
"245 274 CURVE",
"338 334 OFFCURVE",
"407 402 OFFCURVE",
"432 482 CURVE",
"449 529 OFFCURVE",
"429 613 OFFCURVE",
"405 660 CURVE SMOOTH",
"380 707 OFFCURVE",
"351 755 OFFCURVE",
"305 765 CURVE SMOOTH",
"259 775 OFFCURVE",
"207 761 OFFCURVE",
"155 734 CURVE SMOOTH",
"102 706 OFFCURVE",
"71 698 OFFCURVE",
"58 644 CURVE SMOOTH",
"45 590 OFFCURVE",
"31 508 OFFCURVE",
"20 416 CURVE SMOOTH",
"8 323 OFFCURVE",
"-1 233 OFFCURVE",
"-8 161 CURVE SMOOTH",
"-12 125 OFFCURVE",
"-15 98 OFFCURVE",
"-17 79 CURVE SMOOTH",
"-20 44 OFFCURVE",
"-15 26 OFFCURVE",
"1 11 CURVE SMOOTH",
"9 4 OFFCURVE",
"18 0 OFFCURVE",
"27 -3 CURVE SMOOTH",
"36 -6 OFFCURVE",
"47 -9 OFFCURVE",
"58 -14 CURVE",
"79 -21 OFFCURVE",
"85 -14 OFFCURVE",
"89 7 CURVE",
"100 79 OFFCURVE",
"111 151 OFFCURVE",
"124 228 CURVE"
);
},
{
closed = 1;
nodes = (
"225 604 OFFCURVE",
"253 611 OFFCURVE",
"276 611 CURVE SMOOTH",
"323 611 OFFCURVE",
"326 583 OFFCURVE",
"314 548 CURVE SMOOTH",
"301 513 OFFCURVE",
"272 474 OFFCURVE",
"228 435 CURVE SMOOTH",
"206 416 OFFCURVE",
"181 399 OFFCURVE",
"153 386 CURVE",
"161 424 OFFCURVE",
"168 460 OFFCURVE",
"175 493 CURVE SMOOTH",
"181 526 OFFCURVE",
"187 556 OFFCURVE",
"194 584 CURVE"
);
}
);
width = 485;
}
);
note = R;
unicode = 0052;
},
{
glyphname = S;
layers = (
{
layerId = "A436FB16-7E3F-4A25-90BC-0079C9B35420";
name = Regular;
paths = (
{
closed = 1;
nodes = (
"-57 188 OFFCURVE",
"-61 179 OFFCURVE",
"-61 167 CURVE SMOOTH",
"-61 156 OFFCURVE",
"-52 138 OFFCURVE",
"-34 113 CURVE SMOOTH",
"34 13 OFFCURVE",
"99 -23 OFFCURVE",
"171 -20 CURVE SMOOTH",
"224 -19 OFFCURVE",
"262 2 OFFCURVE",
"287 30 CURVE SMOOTH",
"312 57 OFFCURVE",
"327 90 OFFCURVE",
"335 118 CURVE",
"354 174 OFFCURVE",
"328 218 OFFCURVE",
"289 259 CURVE SMOOTH",
"269 280 OFFCURVE",
"247 300 OFFCURVE",
"223 321 CURVE SMOOTH",
"174 362 OFFCURVE",
"138 403 OFFCURVE",
"139 450 CURVE SMOOTH",
"140 497 OFFCURVE",
"158 543 OFFCURVE",
"183 579 CURVE SMOOTH",
"195 597 OFFCURVE",
"206 610 OFFCURVE",
"216 617 CURVE",
"227 628 OFFCURVE",
"233 629 OFFCURVE",
"236 622 CURVE",
"240 607 OFFCURVE",
"236 572 OFFCURVE",
"229 532 CURVE SMOOTH",
"225 511 OFFCURVE",
"223 494 OFFCURVE",
"222 480 CURVE SMOOTH",
"218 432 OFFCURVE",
"245 394 OFFCURVE",
"302 366 CURVE",
"322 355 OFFCURVE",
"331 361 OFFCURVE",
"339 385 CURVE SMOOTH",
"347 410 OFFCURVE",
"355 447 OFFCURVE",
"361 484 CURVE SMOOTH",
"367 520 OFFCURVE",
"372 558 OFFCURVE",
"373 587 CURVE",
"372 620 OFFCURVE",
"371 660 OFFCURVE",
"338 699 CURVE SMOOTH",
"314 728 OFFCURVE",
"275 753 OFFCURVE",
"240 769 CURVE",
"217 778 OFFCURVE",
"196 779 OFFCURVE",
"178 775 CURVE SMOOTH",
"160 771 OFFCURVE",
"144 761 OFFCURVE",
"135 752 CURVE",
"107 729 OFFCURVE",
"78 694 OFFCURVE",
"54 655 CURVE SMOOTH",
"30 615 OFFCURVE",
"11 571 OFFCURVE",
"3 534 CURVE",
"-21 442 OFFCURVE",
"4 363 OFFCURVE",
"49 311 CURVE",
"64 292 OFFCURVE",
"82 274 OFFCURVE",
"103 255 CURVE SMOOTH",
"144 218 OFFCURVE",
"180 184 OFFCURVE",
"199 159 CURVE",
"208 146 OFFCURVE",
"209 136 OFFCURVE",
"202 129 CURVE",
"190 115 OFFCURVE",
"171 113 OFFCURVE",
"144 123 CURVE SMOOTH",
"117 132 OFFCURVE",
"85 153 OFFCURVE",
"49 186 CURVE SMOOTH",
"24 210 OFFCURVE",
"-17 214 OFFCURVE",
"-48 195 CURVE"
);
}
);
width = 401;
}
);
note = S;
unicode = 0053;
},
{
glyphname = T;
layers = (
{
layerId = "A436FB16-7E3F-4A25-90BC-0079C9B35420";
name = Regular;
paths = (
{
closed = 1;
nodes = (
"429 637 OFFCURVE",
"430 643 OFFCURVE",
"425 668 CURVE",
"418 695 OFFCURVE",
"407 724 OFFCURVE",
"391 748 CURVE",
"383 761 OFFCURVE",
"374 767 OFFCURVE",
"351 767 CURVE",
"306 764 OFFCURVE",
"245 759 OFFCURVE",
"185 751 CURVE SMOOTH",
"125 743 OFFCURVE",
"64 732 OFFCURVE",
"19 720 CURVE",
"4 715 OFFCURVE",
"-2 710 OFFCURVE",
"6 686 CURVE SMOOTH",
"14 663 OFFCURVE",
"27 623 OFFCURVE",
"43 600 CURVE SMOOTH",
"58 577 OFFCURVE",
"68 574 OFFCURVE",
"88 581 CURVE",
"95 584 OFFCURVE",
"105 586 OFFCURVE",
"116 588 CURVE SMOOTH",
"127 590 OFFCURVE",
"138 592 OFFCURVE",
"149 595 CURVE",
"136 519 OFFCURVE",
"121 421 OFFCURVE",
"109 328 CURVE SMOOTH",
"97 235 OFFCURVE",
"87 143 OFFCURVE",
"83 82 CURVE",
"75 31 OFFCURVE",
"100 12 OFFCURVE",
"137 -4 CURVE SMOOTH",
"146 -8 OFFCURVE",
"155 -12 OFFCURVE",
"163 -15 CURVE",
"178 -22 OFFCURVE",
"189 -24 OFFCURVE",
"196 -17 CURVE SMOOTH",
"199 -14 OFFCURVE",
"201 -7 OFFCURVE",
"202 2 CURVE SMOOTH",
"214 97 OFFCURVE",
"230 204 OFFCURVE",
"247 312 CURVE SMOOTH",
"264 419 OFFCURVE",
"282 525 OFFCURVE",
"298 620 CURVE",
"317 623 OFFCURVE",
"336 625 OFFCURVE",
"355 628 CURVE",
"373 630 OFFCURVE",
"390 632 OFFCURVE",
"405 634 CURVE SMOOTH"
);
}
);
width = 443;
}
);
note = T;
unicode = 0054;
},
{
glyphname = U;
layers = (
{
layerId = "A436FB16-7E3F-4A25-90BC-0079C9B35420";
name = Regular;
paths = (
{
closed = 1;
nodes = (
"13 65 OFFCURVE",
"33 41 OFFCURVE",
"54 22 CURVE",
"79 1 OFFCURVE",
"112 -12 OFFCURVE",
"152 -16 CURVE SMOOTH",
"192 -20 OFFCURVE",
"221 -12 OFFCURVE",
"252 11 CURVE",
"295 48 OFFCURVE",
"327 129 OFFCURVE",
"353 241 CURVE SMOOTH",
"379 352 OFFCURVE",
"397 493 OFFCURVE",
"416 656 CURVE SMOOTH",
"420 684 OFFCURVE",
"419 694 OFFCURVE",
"396 713 CURVE",
"375 729 OFFCURVE",
"348 748 OFFCURVE",
"325 756 CURVE SMOOTH",
"302 764 OFFCURVE",
"285 759 OFFCURVE",
"284 730 CURVE",
"276 663 OFFCURVE",
"265 569 OFFCURVE",
"250 474 CURVE SMOOTH",
"235 379 OFFCURVE",
"218 283 OFFCURVE",
"199 214 CURVE SMOOTH",
"189 179 OFFCURVE",
"179 152 OFFCURVE",
"168 133 CURVE SMOOTH",
"146 93 OFFCURVE",
"121 107 OFFCURVE",
"114 145 CURVE SMOOTH",
"107 183 OFFCURVE",
"111 240 OFFCURVE",
"120 311 CURVE SMOOTH",
"129 382 OFFCURVE",
"143 455 OFFCURVE",
"159 526 CURVE SMOOTH",
"166 561 OFFCURVE",
"173 593 OFFCURVE",
"180 622 CURVE SMOOTH",
"187 654 OFFCURVE",
"180 681 OFFCURVE",
"159 702 CURVE SMOOTH",
"139 721 OFFCURVE",
"118 736 OFFCURVE",
"95 745 CURVE",
"71 756 OFFCURVE",
"60 751 OFFCURVE",
"53 722 CURVE SMOOTH",
"29 619 OFFCURVE",
"3 498 OFFCURVE",
"-10 386 CURVE SMOOTH",
"-23 273 OFFCURVE",
"-25 169 OFFCURVE",
"0 102 CURVE SMOOTH"
);
}
);
width = 451;
}
);
note = U;
unicode = 0055;
},
{
glyphname = V;
layers = (
{
layerId = "A436FB16-7E3F-4A25-90BC-0079C9B35420";
name = Regular;
paths = (
{
closed = 1;
nodes = (
"453 694 OFFCURVE",
"432 717 OFFCURVE",
"400 740 CURVE",
"385 752 OFFCURVE",
"370 763 OFFCURVE",
"358 765 CURVE SMOOTH",
"345 767 OFFCURVE",
"334 761 OFFCURVE",
"329 742 CURVE SMOOTH",
"306 659 OFFCURVE",
"281 571 OFFCURVE",
"256 479 CURVE SMOOTH",
"231 387 OFFCURVE",
"204 297 OFFCURVE",
"176 209 CURVE",
"168 298 OFFCURVE",
"162 387 OFFCURVE",
"156 467 CURVE SMOOTH",
"153 507 OFFCURVE",
"150 544 OFFCURVE",
"148 579 CURVE SMOOTH",
"143 647 OFFCURVE",
"148 715 OFFCURVE",
"99 739 CURVE SMOOTH",
"78 750 OFFCURVE",
"61 754 OFFCURVE",
"38 754 CURVE SMOOTH",
"15 754 OFFCURVE",
"13 744 OFFCURVE",
"13 716 CURVE",
"21 495 OFFCURVE",
"36 290 OFFCURVE",
"60 119 CURVE SMOOTH",
"65 88 OFFCURVE",
"80 45 OFFCURVE",
"112 22 CURVE SMOOTH",
"141 1 OFFCURVE",
"166 -11 OFFCURVE",
"197 -24 CURVE SMOOTH",
"228 -37 OFFCURVE",
"242 -29 OFFCURVE",
"255 4 CURVE",
"274 59 OFFCURVE",
"297 132 OFFCURVE",
"322 212 CURVE SMOOTH",
"346 291 OFFCURVE",
"371 376 OFFCURVE",
"392 453 CURVE SMOOTH",
"413 530 OFFCURVE",
"431 599 OFFCURVE",
"440 647 CURVE"
);
}
);
width = 466;
}
);
note = V;
unicode = 0056;
},
{
glyphname = W;
layers = (
{
layerId = "A436FB16-7E3F-4A25-90BC-0079C9B35420";
name = Regular;
paths = (
{
closed = 1;
nodes = (
"121 326 OFFCURVE",
"125 407 OFFCURVE",
"130 478 CURVE SMOOTH",
"132 513 OFFCURVE",
"134 545 OFFCURVE",
"136 573 CURVE SMOOTH",
"140 629 OFFCURVE",
"143 650 OFFCURVE",
"139 683 CURVE SMOOTH",
"134 715 OFFCURVE",
"109 731 OFFCURVE",
"86 740 CURVE",
"63 748 OFFCURVE",
"32 759 OFFCURVE",
"23 750 CURVE SMOOTH",
"18 745 OFFCURVE",
"15 735 OFFCURVE",
"14 719 CURVE SMOOTH",
"10 659 OFFCURVE",
"7 584 OFFCURVE",
"5 505 CURVE SMOOTH",
"3 426 OFFCURVE",
"1 344 OFFCURVE",
"1 267 CURVE SMOOTH",
"1 191 OFFCURVE",
"3 120 OFFCURVE",
"6 67 CURVE SMOOTH",
"7 30 OFFCURVE",
"14 15 OFFCURVE",
"35 4 CURVE",
"58 -7 OFFCURVE",
"83 -17 OFFCURVE",
"110 -24 CURVE SMOOTH",
"130 -29 OFFCURVE",
"141 -28 OFFCURVE",
"152 0 CURVE",
"163 33 OFFCURVE",
"180 86 OFFCURVE",
"200 143 CURVE SMOOTH",
"220 200 OFFCURVE",
"242 263 OFFCURVE",
"262 318 CURVE",
"262 275 OFFCURVE",
"265 227 OFFCURVE",
"269 183 CURVE SMOOTH",
"272 138 OFFCURVE",
"275 97 OFFCURVE",
"278 70 CURVE SMOOTH",
"281 42 OFFCURVE",
"290 17 OFFCURVE",
"315 4 CURVE",
"328 -1 OFFCURVE",
"338 -5 OFFCURVE",
"347 -9 CURVE SMOOTH",
"364 -17 OFFCURVE",
"402 -30 OFFCURVE",
"418 -22 CURVE",
"425 -19 OFFCURVE",
"431 -11 OFFCURVE",
"435 2 CURVE",
"442 29 OFFCURVE",
"451 60 OFFCURVE",
"461 95 CURVE SMOOTH",
"470 130 OFFCURVE",
"480 166 OFFCURVE",
"491 205 CURVE SMOOTH",
"512 281 OFFCURVE",
"536 363 OFFCURVE",
"559 439 CURVE SMOOTH",
"582 514 OFFCURVE",
"603 584 OFFCURVE",
"620 635 CURVE SMOOTH",
"628 662 OFFCURVE",
"629 690 OFFCURVE",
"610 713 CURVE",
"593 730 OFFCURVE",
"575 744 OFFCURVE",
"556 755 CURVE",
"531 768 OFFCURVE",
"523 768 OFFCURVE",
"512 736 CURVE SMOOTH",
"500 700 OFFCURVE",
"476 626 OFFCURVE",
"449 539 CURVE SMOOTH",
"422 451 OFFCURVE",
"391 350 OFFCURVE",
"366 262 CURVE",
"367 297 OFFCURVE",
"369 333 OFFCURVE",
"370 370 CURVE SMOOTH",
"373 442 OFFCURVE",
"376 506 OFFCURVE",
"378 553 CURVE SMOOTH",
"379 576 OFFCURVE",
"379 593 OFFCURVE",
"379 602 CURVE SMOOTH",
"379 635 OFFCURVE",
"379 646 OFFCURVE",
"356 659 CURVE",
"345 664 OFFCURVE",
"336 669 OFFCURVE",
"329 673 CURVE",
"313 681 OFFCURVE",
"286 691 OFFCURVE",
"275 684 CURVE",
"269 681 OFFCURVE",
"264 673 OFFCURVE",
"259 662 CURVE SMOOTH",
"246 634 OFFCURVE",
"223 569 OFFCURVE",
"197 493 CURVE SMOOTH",
"184 454 OFFCURVE",
"170 414 OFFCURVE",
"157 372 CURVE SMOOTH",
"143 330 OFFCURVE",
"130 291 OFFCURVE",
"118 254 CURVE"
);
}
);
width = 641;
}
);
note = W;
unicode = 0057;
},
{
glyphname = X;
layers = (
{
layerId = "A436FB16-7E3F-4A25-90BC-0079C9B35420";
name = Regular;
paths = (
{
closed = 1;
nodes = (
"249 632 OFFCURVE",
"290 706 OFFCURVE",
"321 754 CURVE SMOOTH",
"328 765 OFFCURVE",
"336 771 OFFCURVE",
"344 771 CURVE SMOOTH",
"352 771 OFFCURVE",
"361 767 OFFCURVE",
"370 760 CURVE",
"389 741 OFFCURVE",
"408 712 OFFCURVE",
"420 689 CURVE SMOOTH",
"435 661 OFFCURVE",
"430 637 OFFCURVE",
"417 614 CURVE SMOOTH",
"377 546 OFFCURVE",
"321 451 OFFCURVE",
"261 348 CURVE",
"280 287 OFFCURVE",
"298 229 OFFCURVE",
"315 174 CURVE SMOOTH",
"332 119 OFFCURVE",
"347 69 OFFCURVE",
"361 25 CURVE",
"372 0 OFFCURVE",
"368 -12 OFFCURVE",
"348 -16 CURVE",
"326 -19 OFFCURVE",
"303 -19 OFFCURVE",
"278 -16 CURVE",
"254 -12 OFFCURVE",
"244 0 OFFCURVE",
"229 32 CURVE SMOOTH",
"224 43 OFFCURVE",
"216 64 OFFCURVE",
"206 95 CURVE SMOOTH",
"195 126 OFFCURVE",
"183 163 OFFCURVE",
"169 206 CURVE",
"146 165 OFFCURVE",
"124 125 OFFCURVE",
"104 87 CURVE SMOOTH",
"84 48 OFFCURVE",
"66 15 OFFCURVE",
"51 -12 CURVE SMOOTH",
"28 -52 OFFCURVE",
"-1 -11 OFFCURVE",
"-17 12 CURVE SMOOTH",
"-34 35 OFFCURVE",
"-52 58 OFFCURVE",
"-52 77 CURVE SMOOTH",
"-52 86 OFFCURVE",
"-49 98 OFFCURVE",
"-42 113 CURVE SMOOTH",
"-9 185 OFFCURVE",
"47 293 OFFCURVE",
"108 400 CURVE",
"89 459 OFFCURVE",
"71 518 OFFCURVE",
"55 571 CURVE SMOOTH",
"39 623 OFFCURVE",
"25 670 OFFCURVE",
"16 703 CURVE SMOOTH",
"8 736 OFFCURVE",
"12 745 OFFCURVE",
"35 749 CURVE SMOOTH",
"40 750 OFFCURVE",
"46 750 OFFCURVE",
"52 750 CURVE SMOOTH",
"58 750 OFFCURVE",
"64 750 OFFCURVE",
"69 750 CURVE SMOOTH",
"80 750 OFFCURVE",
"93 749 OFFCURVE",
"106 748 CURVE",
"133 744 OFFCURVE",
"145 724 OFFCURVE",
"156 695 CURVE",
"168 652 OFFCURVE",
"184 601 OFFCURVE",
"201 545 CURVE"
);
}
);
width = 472;
}
);
note = X;
unicode = 0058;
},
{
glyphname = Y;
layers = (
{
layerId = "A436FB16-7E3F-4A25-90BC-0079C9B35420";
name = Regular;
paths = (
{
closed = 1;
nodes = (
"415 677 OFFCURVE",
"414 691 OFFCURVE",
"399 714 CURVE",
"386 730 OFFCURVE",
"367 751 OFFCURVE",
"349 763 CURVE SMOOTH",
"331 775 OFFCURVE",
"314 776 OFFCURVE",
"307 751 CURVE",
"268 655 OFFCURVE",
"227 556 OFFCURVE",
"184 460 CURVE",
"163 556 OFFCURVE",
"143 642 OFFCURVE",
"126 706 CURVE",
"115 739 OFFCURVE",
"108 753 OFFCURVE",
"85 760 CURVE SMOOTH",
"62 767 OFFCURVE",
"40 764 OFFCURVE",
"17 761 CURVE",
"-4 757 OFFCURVE",
"-7 750 OFFCURVE",
"0 722 CURVE",
"12 663 OFFCURVE",
"28 590 OFFCURVE",
"45 514 CURVE SMOOTH",
"62 438 OFFCURVE",
"80 360 OFFCURVE",
"96 288 CURVE",
"91 246 OFFCURVE",
"86 207 OFFCURVE",
"83 171 CURVE SMOOTH",
"79 134 OFFCURVE",
"75 102 OFFCURVE",
"72 74 CURVE SMOOTH",
"69 39 OFFCURVE",
"74 26 OFFCURVE",
"93 7 CURVE",
"112 -5 OFFCURVE",
"137 -17 OFFCURVE",
"158 -26 CURVE",
"181 -34 OFFCURVE",
"186 -30 OFFCURVE",
"191 -3 CURVE",
"200 69 OFFCURVE",
"210 143 OFFCURVE",
"225 227 CURVE",
"261 303 OFFCURVE",
"300 387 OFFCURVE",
"333 462 CURVE SMOOTH",
"365 537 OFFCURVE",
"392 603 OFFCURVE",
"404 644 CURVE"
);
}
);
width = 434;
}
);
note = Y;
unicode = 0059;
},
{
glyphname = Z;
layers = (
{
layerId = "A436FB16-7E3F-4A25-90BC-0079C9B35420";
name = Regular;
paths = (
{
closed = 1;
nodes = (
"151 521 OFFCURVE",
"101 426 OFFCURVE",
"57 338 CURVE SMOOTH",
"13 250 OFFCURVE",
"-26 168 OFFCURVE",
"-47 116 CURVE SMOOTH",
"-60 85 OFFCURVE",
"-45 62 OFFCURVE",
"-33 43 CURVE",
"-14 19 OFFCURVE",
"-3 5 OFFCURVE",
"12 -11 CURVE SMOOTH",
"27 -26 OFFCURVE",
"40 -36 OFFCURVE",
"76 -23 CURVE SMOOTH",
"103 -14 OFFCURVE",
"132 -5 OFFCURVE",
"164 4 CURVE SMOOTH",
"195 12 OFFCURVE",
"225 20 OFFCURVE",
"253 28 CURVE",
"276 32 OFFCURVE",
"282 40 OFFCURVE",
"275 67 CURVE",
"271 90 OFFCURVE",
"263 113 OFFCURVE",
"252 138 CURVE SMOOTH",
"233 181 OFFCURVE",
"185 161 OFFCURVE",
"153 154 CURVE SMOOTH",
"137 150 OFFCURVE",
"121 145 OFFCURVE",
"105 140 CURVE",
"186 293 OFFCURVE",
"275 454 OFFCURVE",
"355 595 CURVE SMOOTH",
"370 620 OFFCURVE",
"369 641 OFFCURVE",
"362 665 CURVE",
"359 674 OFFCURVE",
"357 684 OFFCURVE",
"354 695 CURVE SMOOTH",
"349 716 OFFCURVE",
"338 747 OFFCURVE",
"327 756 CURVE SMOOTH",
"321 761 OFFCURVE",
"312 763 OFFCURVE",
"301 762 CURVE SMOOTH",
"258 759 OFFCURVE",
"210 755 OFFCURVE",
"163 748 CURVE SMOOTH",
"115 741 OFFCURVE",
"70 732 OFFCURVE",
"34 721 CURVE",
"19 714 OFFCURVE",
"14 709 OFFCURVE",
"21 685 CURVE",
"29 661 OFFCURVE",
"45 624 OFFCURVE",
"53 605 CURVE",
"68 581 OFFCURVE",
"86 576 OFFCURVE",
"107 581 CURVE",
"121 585 OFFCURVE",
"135 588 OFFCURVE",
"150 591 CURVE SMOOTH",
"165 594 OFFCURVE",
"181 597 OFFCURVE",
"198 601 CURVE"
);
}
);
width = 375;
}
);
note = Z;
unicode = 005A;
},
{
glyphname = bracketleft;
layers = (
{
layerId = "A436FB16-7E3F-4A25-90BC-0079C9B35420";
name = Regular;
paths = (
{
closed = 1;
nodes = (
"216 10 OFFCURVE",
"211 0 OFFCURVE",
"188 0 CURVE",
"175 -3 OFFCURVE",
"160 -7 OFFCURVE",
"143 -11 CURVE SMOOTH",
"126 -15 OFFCURVE",
"110 -19 OFFCURVE",
"95 -23 CURVE SMOOTH",
"70 -30 OFFCURVE",
"54 -23 OFFCURVE",
"39 -8 CURVE",
"32 -2 OFFCURVE",
"26 5 OFFCURVE",
"21 12 CURVE",
"15 19 OFFCURVE",
"9 27 OFFCURVE",
"2 34 CURVE",
"-10 54 OFFCURVE",
"-17 73 OFFCURVE",
"-13 112 CURVE SMOOTH",
"-5 195 OFFCURVE",
"9 305 OFFCURVE",
"26 414 CURVE SMOOTH",
"42 523 OFFCURVE",
"62 633 OFFCURVE",
"79 716 CURVE SMOOTH",
"87 757 OFFCURVE",
"132 756 OFFCURVE",
"170 759 CURVE SMOOTH",
"189 760 OFFCURVE",
"206 761 OFFCURVE",
"222 762 CURVE SMOOTH",
"243 763 OFFCURVE",
"255 751 OFFCURVE",
"264 728 CURVE",
"275 704 OFFCURVE",
"280 686 OFFCURVE",
"285 662 CURVE",
"292 637 OFFCURVE",
"285 630 OFFCURVE",
"264 626 CURVE",
"253 625 OFFCURVE",
"240 623 OFFCURVE",
"227 621 CURVE SMOOTH",
"214 619 OFFCURVE",
"200 617 OFFCURVE",
"187 616 CURVE",
"172 545 OFFCURVE",
"156 460 OFFCURVE",
"141 374 CURVE SMOOTH",
"126 288 OFFCURVE",
"113 200 OFFCURVE",
"102 124 CURVE",
"109 125 OFFCURVE",
"117 125 OFFCURVE",
"124 126 CURVE SMOOTH",
"131 127 OFFCURVE",
"138 127 OFFCURVE",
"145 128 CURVE SMOOTH",
"185 135 OFFCURVE",
"196 89 OFFCURVE",
"201 68 CURVE",
"203 57 OFFCURVE",
"206 46 OFFCURVE",
"209 35 CURVE SMOOTH"
);
}
);
width = 304;
}
);
note = bracketleft;
unicode = 005B;
},
{
glyphname = backslash;
layers = (
{
layerId = "A436FB16-7E3F-4A25-90BC-0079C9B35420";
name = Regular;
paths = (
{
closed = 1;
nodes = (
"82 775 OFFCURVE",
"62 775 OFFCURVE",
"39 774 CURVE SMOOTH",
"16 773 OFFCURVE",
"7 758 OFFCURVE",
"12 731 CURVE SMOOTH",
"20 679 OFFCURVE",
"36 598 OFFCURVE",
"55 508 CURVE SMOOTH",
"74 418 OFFCURVE",
"96 319 OFFCURVE",
"117 231 CURVE SMOOTH",
"137 143 OFFCURVE",
"157 67 OFFCURVE",
"170 22 CURVE",
"181 -10 OFFCURVE",
"189 -26 OFFCURVE",
"210 -29 CURVE",
"227 -33 OFFCURVE",
"245 -33 OFFCURVE",
"265 -30 CURVE SMOOTH",
"288 -27 OFFCURVE",
"292 -18 OFFCURVE",
"285 5 CURVE",
"278 34 OFFCURVE",
"271 68 OFFCURVE",
"263 108 CURVE SMOOTH",
"254 147 OFFCURVE",
"245 189 OFFCURVE",
"236 234 CURVE SMOOTH",
"217 322 OFFCURVE",
"198 418 OFFCURVE",
"182 505 CURVE SMOOTH",
"165 592 OFFCURVE",
"151 669 OFFCURVE",
"143 721 CURVE",
"136 752 OFFCURVE",
"131 761 OFFCURVE",
"106 768 CURVE SMOOTH"
);
}
);
width = 358;
}
);
note = backslash;
unicode = 005C;
},
{
glyphname = bracketright;
layers = (
{
layerId = "A436FB16-7E3F-4A25-90BC-0079C9B35420";
name = Regular;
paths = (
{
closed = 1;
nodes = (
"265 655 OFFCURVE",
"265 668 OFFCURVE",
"250 691 CURVE",
"239 710 OFFCURVE",
"229 724 OFFCURVE",
"218 739 CURVE SMOOTH",
"205 758 OFFCURVE",
"195 764 OFFCURVE",
"172 761 CURVE",
"128 757 OFFCURVE",
"88 752 OFFCURVE",
"57 744 CURVE",
"37 740 OFFCURVE",
"33 725 OFFCURVE",
"36 705 CURVE SMOOTH",
"39 685 OFFCURVE",
"49 661 OFFCURVE",
"58 640 CURVE",
"67 616 OFFCURVE",
"77 610 OFFCURVE",
"101 613 CURVE",
"106 614 OFFCURVE",
"112 615 OFFCURVE",
"117 616 CURVE SMOOTH",
"122 617 OFFCURVE",
"128 617 OFFCURVE",
"133 618 CURVE",
"120 546 OFFCURVE",
"105 460 OFFCURVE",
"90 373 CURVE SMOOTH",
"75 285 OFFCURVE",
"61 197 OFFCURVE",
"52 125 CURVE",
"27 120 OFFCURVE",
"-3 111 OFFCURVE",
"-23 104 CURVE SMOOTH",
"-42 97 OFFCURVE",
"-47 82 OFFCURVE",
"-37 61 CURVE",
"-28 38 OFFCURVE",
"-19 17 OFFCURVE",
"-10 1 CURVE",
"1 -15 OFFCURVE",
"10 -23 OFFCURVE",
"34 -18 CURVE SMOOTH",
"48 -15 OFFCURVE",
"63 -12 OFFCURVE",
"78 -9 CURVE SMOOTH",
"93 -6 OFFCURVE",
"108 -3 OFFCURVE",
"123 0 CURVE",
"152 1 OFFCURVE",
"157 15 OFFCURVE",
"160 34 CURVE SMOOTH",
"172 115 OFFCURVE",
"189 226 OFFCURVE",
"207 335 CURVE SMOOTH",
"225 443 OFFCURVE",
"244 552 OFFCURVE",
"261 631 CURVE"
);
}
);
width = 318;
}
);
note = bracketright;
unicode = 005D;
},
{
glyphname = asciicircum;
layers = (
{
layerId = "A436FB16-7E3F-4A25-90BC-0079C9B35420";
name = Regular;
paths = (
{
closed = 1;
nodes = (
"347 352 OFFCURVE",
"352 359 OFFCURVE",
"347 382 CURVE SMOOTH",
"339 419 OFFCURVE",
"329 470 OFFCURVE",
"318 523 CURVE SMOOTH",
"307 576 OFFCURVE",
"298 632 OFFCURVE",
"291 683 CURVE SMOOTH",
"287 715 OFFCURVE",
"282 723 OFFCURVE",
"269 742 CURVE",
"262 749 OFFCURVE",
"255 756 OFFCURVE",
"248 763 CURVE",
"232 776 OFFCURVE",
"216 792 OFFCURVE",
"204 792 CURVE",
"197 791 OFFCURVE",
"190 785 OFFCURVE",
"182 774 CURVE",
"151 735 OFFCURVE",
"118 687 OFFCURVE",
"90 640 CURVE SMOOTH",
"61 593 OFFCURVE",
"36 549 OFFCURVE",
"20 517 CURVE SMOOTH",
"1 482 OFFCURVE",
"27 450 OFFCURVE",
"38 434 CURVE SMOOTH",
"49 418 OFFCURVE",
"64 397 OFFCURVE",
"73 397 CURVE SMOOTH",
"79 397 OFFCURVE",
"84 401 OFFCURVE",
"89 410 CURVE",
"120 461 OFFCURVE",
"157 523 OFFCURVE",
"200 584 CURVE",
"215 512 OFFCURVE",
"228 445 OFFCURVE",
"240 402 CURVE",
"247 381 OFFCURVE",
"259 367 OFFCURVE",
"275 362 CURVE SMOOTH",
"295 355 OFFCURVE",
"312 354 OFFCURVE",
"328 353 CURVE SMOOTH"
);
}
);
width = 447;
}
);
note = asciicircum;
unicode = 005E;
},
{
glyphname = underscore;
layers = (
{
layerId = "A436FB16-7E3F-4A25-90BC-0079C9B35420";
name = Regular;
paths = (
{
closed = 1;
nodes = (
"2 -220 LINE SMOOTH",
"-17 -220 OFFCURVE",
"-25 -211 OFFCURVE",
"-20 -187 CURVE",
"-17 -168 OFFCURVE",
"-15 -150 OFFCURVE",
"-10 -130 CURVE",
"-5 -106 OFFCURVE",
"4 -98 OFFCURVE",
"24 -98 CURVE SMOOTH",
"470 -98 LINE",
"487 -97 OFFCURVE",
"495 -103 OFFCURVE",
"496 -115 CURVE",
"497 -121 OFFCURVE",
"496 -128 OFFCURVE",
"495 -135 CURVE",
"491 -151 OFFCURVE",
"489 -165 OFFCURVE",
"486 -180 CURVE SMOOTH",
"483 -196 OFFCURVE",
"477 -209 OFFCURVE",
"468 -216 CURVE SMOOTH",
"463 -220 OFFCURVE",
"457 -221 OFFCURVE",
"449 -220 CURVE"
);
}
);
width = 430;
}
);
note = underscore;
unicode = 005F;
},
{
glyphname = grave;
layers = (
{
layerId = "A436FB16-7E3F-4A25-90BC-0079C9B35420";
name = Regular;
paths = (
{
closed = 1;
nodes = (
"108 953 OFFCURVE",
"140 930 OFFCURVE",
"176 907 CURVE SMOOTH",
"211 884 OFFCURVE",
"250 861 OFFCURVE",
"286 845 CURVE",
"301 837 OFFCURVE",
"320 842 OFFCURVE",
"343 859 CURVE",
"343 858 OFFCURVE",
"344 859 OFFCURVE",
"347 862 CURVE",
"351 867 OFFCURVE",
"355 877 OFFCURVE",
"354 889 CURVE",
"353 894 OFFCURVE",
"350 900 OFFCURVE",
"343 905 CURVE",
"282 941 OFFCURVE",
"214 984 OFFCURVE",
"166 1032 CURVE SMOOTH",
"153 1045 OFFCURVE",
"137 1046 OFFCURVE",
"110 1027 CURVE",
"95 1018 OFFCURVE",
"90 1000 OFFCURVE",
"87 972 CURVE"
);
}
);
width = 395;
}
);
note = grave;
unicode = 0060;
},
{
glyphname = a;
layers = (
{
layerId = "A436FB16-7E3F-4A25-90BC-0079C9B35420";
name = Regular;
paths = (
{
closed = 1;
nodes = (
"278 134 OFFCURVE",
"282 89 OFFCURVE",
"286 50 CURVE SMOOTH",
"290 13 OFFCURVE",
"297 2 OFFCURVE",
"318 -7 CURVE",
"339 -18 OFFCURVE",
"358 -18 OFFCURVE",
"381 -18 CURVE SMOOTH",
"404 -18 OFFCURVE",
"408 -10 OFFCURVE",
"407 14 CURVE SMOOTH",
"402 126 OFFCURVE",
"397 253 OFFCURVE",
"394 372 CURVE SMOOTH",
"390 491 OFFCURVE",
"390 601 OFFCURVE",
"391 677 CURVE SMOOTH",
"392 708 OFFCURVE",
"387 726 OFFCURVE",
"362 737 CURVE",
"327 750 OFFCURVE",
"294 766 OFFCURVE",
"231 770 CURVE",
"195 774 OFFCURVE",
"179 754 OFFCURVE",
"167 726 CURVE SMOOTH",
"134 646 OFFCURVE",
"92 532 OFFCURVE",
"53 417 CURVE SMOOTH",
"14 301 OFFCURVE",
"-23 185 OFFCURVE",
"-47 97 CURVE",
"-51 78 OFFCURVE",
"-53 64 OFFCURVE",
"-52 56 CURVE",
"-51 40 OFFCURVE",
"-40 27 OFFCURVE",
"-27 16 CURVE",
"-20 11 OFFCURVE",
"-13 6 OFFCURVE",
"-6 2 CURVE",
"8 -7 OFFCURVE",
"25 -19 OFFCURVE",
"35 -15 CURVE SMOOTH",
"40 -13 OFFCURVE",
"44 -6 OFFCURVE",
"48 5 CURVE",
"61 48 OFFCURVE",
"74 91 OFFCURVE",
"93 142 CURVE",
"118 151 OFFCURVE",
"146 159 OFFCURVE",
"179 166 CURVE SMOOTH",
"211 173 OFFCURVE",
"243 179 OFFCURVE",
"275 186 CURVE"
);
},
{
closed = 1;
nodes = (
"191 428 OFFCURVE",
"230 532 OFFCURVE",
"261 612 CURVE",
"261 568 OFFCURVE",
"262 523 OFFCURVE",
"263 476 CURVE SMOOTH",
"264 429 OFFCURVE",
"266 382 OFFCURVE",
"267 334 CURVE",
"228 330 OFFCURVE",
"190 324 OFFCURVE",
"152 316 CURVE"
);
}
);
width = 479;
}
);
note = a;
unicode = 0061;
},
{
glyphname = b;
layers = (
{
layerId = "A436FB16-7E3F-4A25-90BC-0079C9B35420";
name = Regular;
paths = (
{
closed = 1;
nodes = (
"340 385 OFFCURVE",
"359 407 OFFCURVE",
"378 428 CURVE",
"413 471 OFFCURVE",
"439 528 OFFCURVE",
"428 592 CURVE SMOOTH",
"417 649 OFFCURVE",
"396 689 OFFCURVE",
"368 726 CURVE SMOOTH",
"336 766 OFFCURVE",
"275 775 OFFCURVE",
"211 767 CURVE SMOOTH",
"147 758 OFFCURVE",
"79 730 OFFCURVE",
"34 698 CURVE",
"30 615 OFFCURVE",
"19 516 OFFCURVE",
"8 418 CURVE SMOOTH",
"3 369 OFFCURVE",
"-3 321 OFFCURVE",
"-8 274 CURVE SMOOTH",
"-13 227 OFFCURVE",
"-17 184 OFFCURVE",
"-20 145 CURVE",
"-23 121 OFFCURVE",
"-22 106 OFFCURVE",
"-18 94 CURVE",
"-16 87 OFFCURVE",
"-13 81 OFFCURVE",
"-9 76 CURVE",
"-6 70 OFFCURVE",
"-2 63 OFFCURVE",
"3 55 CURVE",
"28 24 OFFCURVE",
"44 7 OFFCURVE",
"71 -10 CURVE",
"84 -22 OFFCURVE",
"94 -28 OFFCURVE",
"106 -29 CURVE SMOOTH",
"117 -30 OFFCURVE",
"128 -27 OFFCURVE",
"145 -20 CURVE SMOOTH",
"177 -8 OFFCURVE",
"213 10 OFFCURVE",
"248 33 CURVE SMOOTH",
"283 56 OFFCURVE",
"314 83 OFFCURVE",
"337 114 CURVE SMOOTH",
"368 153 OFFCURVE",
"383 190 OFFCURVE",
"376 246 CURVE SMOOTH",
"369 293 OFFCURVE",
"346 340 OFFCURVE",
"313 364 CURVE"
);
},
{
closed = 1;
nodes = (
"154 457 OFFCURVE",
"159 485 OFFCURVE",
"164 512 CURVE SMOOTH",
"169 539 OFFCURVE",
"174 564 OFFCURVE",
"179 587 CURVE",
"213 608 OFFCURVE",
"242 620 OFFCURVE",
"266 621 CURVE SMOOTH",
"314 623 OFFCURVE",
"313 595 OFFCURVE",
"301 566 CURVE SMOOTH",
"288 537 OFFCURVE",
"259 502 OFFCURVE",
"219 470 CURVE SMOOTH",
"198 453 OFFCURVE",
"175 439 OFFCURVE",
"149 427 CURVE"
);
},
{
closed = 1;
nodes = (
"156 294 OFFCURVE",
"185 299 OFFCURVE",
"206 296 CURVE",
"227 292 OFFCURVE",
"240 282 OFFCURVE",
"244 269 CURVE",
"248 248 OFFCURVE",
"234 222 OFFCURVE",
"209 196 CURVE SMOOTH",
"184 170 OFFCURVE",
"145 145 OFFCURVE",
"100 128 CURVE",
"103 153 OFFCURVE",
"107 178 OFFCURVE",
"111 203 CURVE SMOOTH",
"115 228 OFFCURVE",
"119 253 OFFCURVE",
"123 278 CURVE"
);
}
);
width = 463;
}
);
note = b;
unicode = 0062;
},
{
glyphname = c;
layers = (
{
layerId = "A436FB16-7E3F-4A25-90BC-0079C9B35420";
name = Regular;
paths = (
{
closed = 1;
nodes = (
"270 223 OFFCURVE",
"237 212 OFFCURVE",
"212 174 CURVE SMOOTH",
"177 119 OFFCURVE",
"151 97 OFFCURVE",
"133 106 CURVE",
"114 114 OFFCURVE",
"106 151 OFFCURVE",
"105 203 CURVE SMOOTH",
"104 254 OFFCURVE",
"110 318 OFFCURVE",
"122 378 CURVE SMOOTH",
"134 434 OFFCURVE",
"155 501 OFFCURVE",
"178 553 CURVE SMOOTH",
"189 579 OFFCURVE",
"200 600 OFFCURVE",
"211 616 CURVE SMOOTH",
"232 648 OFFCURVE",
"250 636 OFFCURVE",
"254 608 CURVE",
"255 593 OFFCURVE",
"256 577 OFFCURVE",
"256 560 CURVE SMOOTH",
"256 549 OFFCURVE",
"257 539 OFFCURVE",
"258 528 CURVE",
"266 472 OFFCURVE",
"287 441 OFFCURVE",
"340 426 CURVE SMOOTH",
"368 418 OFFCURVE",
"370 432 OFFCURVE",
"375 451 CURVE",
"383 491 OFFCURVE",
"386 557 OFFCURVE",
"383 606 CURVE SMOOTH",
"380 649 OFFCURVE",
"372 680 OFFCURVE",
"340 713 CURVE",
"309 740 OFFCURVE",
"259 767 OFFCURVE",
"215 772 CURVE SMOOTH",
"186 775 OFFCURVE",
"151 767 OFFCURVE",
"118 730 CURVE SMOOTH",
"77 682 OFFCURVE",
"41 614 OFFCURVE",
"16 538 CURVE SMOOTH",
"-9 461 OFFCURVE",
"-26 377 OFFCURVE",
"-30 298 CURVE SMOOTH",
"-35 218 OFFCURVE",
"-29 146 OFFCURVE",
"-9 91 CURVE",
"3 54 OFFCURVE",
"29 25 OFFCURVE",
"52 10 CURVE",
"79 -3 OFFCURVE",
"113 -22 OFFCURVE",
"154 -27 CURVE SMOOTH",
"194 -32 OFFCURVE",
"239 -14 OFFCURVE",
"264 11 CURVE",
"288 38 OFFCURVE",
"314 79 OFFCURVE",
"329 126 CURVE SMOOTH",
"342 166 OFFCURVE",
"344 193 OFFCURVE",
"311 206 CURVE SMOOTH"
);
}
);
width = 428;
}
);
note = c;
unicode = 0063;
},
{
glyphname = d;
layers = (
{
layerId = "A436FB16-7E3F-4A25-90BC-0079C9B35420";
name = Regular;
paths = (
{
closed = 1;
nodes = (
"-22 155 LINE SMOOTH",
"-26 123 OFFCURVE",
"-24 104 OFFCURVE",
"-19 89 CURVE",
"-17 82 OFFCURVE",
"-14 75 OFFCURVE",
"-10 70 CURVE",
"-6 64 OFFCURVE",
"-2 58 OFFCURVE",
"2 52 CURVE",
"25 25 OFFCURVE",
"40 10 OFFCURVE",
"65 -9 CURVE SMOOTH",
"89 -28 OFFCURVE",
"113 -31 OFFCURVE",
"136 -18 CURVE",
"224 19 OFFCURVE",
"292 82 OFFCURVE",
"340 155 CURVE SMOOTH",
"387 228 OFFCURVE",
"416 312 OFFCURVE",
"425 393 CURVE SMOOTH",
"434 473 OFFCURVE",
"426 551 OFFCURVE",
"401 611 CURVE SMOOTH",
"373 682 OFFCURVE",
"333 723 OFFCURVE",
"289 744 CURVE SMOOTH",
"244 765 OFFCURVE",
"195 767 OFFCURVE",
"151 758 CURVE SMOOTH",
"106 749 OFFCURVE",
"63 727 OFFCURVE",
"34 706 CURVE"
);
},
{
closed = 1;
nodes = (
"126 299 OFFCURVE",
"150 451 OFFCURVE",
"179 596 CURVE",
"230 619 OFFCURVE",
"268 595 OFFCURVE",
"283 558 CURVE SMOOTH",
"290 539 OFFCURVE",
"294 513 OFFCURVE",
"293 478 CURVE SMOOTH",
"292 427 OFFCURVE",
"278 363 OFFCURVE",
"248 302 CURVE SMOOTH",
"218 241 OFFCURVE",
"171 181 OFFCURVE",
"103 138 CURVE"
);
}
);
width = 489;
}
);
note = d;
unicode = 0064;
},
{
glyphname = e;
layers = (
{
layerId = "A436FB16-7E3F-4A25-90BC-0079C9B35420";
name = Regular;
paths = (
{
closed = 1;
nodes = (
"-31 132 LINE",
"-34 97 OFFCURVE",
"-26 73 OFFCURVE",
"-11 54 CURVE",
"6 30 OFFCURVE",
"18 17 OFFCURVE",
"33 2 CURVE SMOOTH",
"46 -11 OFFCURVE",
"61 -22 OFFCURVE",
"97 -9 CURVE",
"124 -2 OFFCURVE",
"152 6 OFFCURVE",
"181 15 CURVE SMOOTH",
"210 24 OFFCURVE",
"239 32 OFFCURVE",
"267 40 CURVE SMOOTH",
"290 47 OFFCURVE",
"292 53 OFFCURVE",
"287 80 CURVE",
"280 104 OFFCURVE",
"275 126 OFFCURVE",
"264 151 CURVE",
"255 174 OFFCURVE",
"242 181 OFFCURVE",
"219 178 CURVE",
"176 174 OFFCURVE",
"141 169 OFFCURVE",
"101 158 CURVE",
"108 193 OFFCURVE",
"114 229 OFFCURVE",
"121 268 CURVE",
"146 275 OFFCURVE",
"171 282 OFFCURVE",
"198 289 CURVE SMOOTH",
"224 295 OFFCURVE",
"250 301 OFFCURVE",
"275 308 CURVE SMOOTH",
"298 315 OFFCURVE",
"302 320 OFFCURVE",
"295 348 CURVE",
"290 372 OFFCURVE",
"285 394 OFFCURVE",
"274 418 CURVE",
"265 441 OFFCURVE",
"253 446 OFFCURVE",
"230 445 CURVE SMOOTH",
"203 444 OFFCURVE",
"179 442 OFFCURVE",
"154 437 CURVE",
"161 467 OFFCURVE",
"167 496 OFFCURVE",
"172 523 CURVE SMOOTH",
"177 550 OFFCURVE",
"183 576 OFFCURVE",
"188 601 CURVE",
"244 612 OFFCURVE",
"295 619 OFFCURVE",
"342 626 CURVE SMOOTH",
"365 630 OFFCURVE",
"369 637 OFFCURVE",
"365 665 CURVE",
"360 689 OFFCURVE",
"357 707 OFFCURVE",
"346 732 CURVE",
"339 756 OFFCURVE",
"325 767 OFFCURVE",
"303 766 CURVE SMOOTH",
"210 761 OFFCURVE",
"113 734 OFFCURVE",
"45 710 CURVE"
);
}
);
width = 385;
}
);
note = e;
unicode = 0065;
},
{
glyphname = f;
layers = (
{
layerId = "A436FB16-7E3F-4A25-90BC-0079C9B35420";
name = Regular;
paths = (
{
closed = 1;
nodes = (
"364 630 OFFCURVE",
"367 636 OFFCURVE",
"363 664 CURVE SMOOTH",
"360 687 OFFCURVE",
"353 710 OFFCURVE",
"342 733 CURVE",
"327 761 OFFCURVE",
"319 767 OFFCURVE",
"296 766 CURVE SMOOTH",
"249 763 OFFCURVE",
"202 758 OFFCURVE",
"156 751 CURVE SMOOTH",
"110 743 OFFCURVE",
"67 733 OFFCURVE",
"34 721 CURVE",
"35 669 OFFCURVE",
"29 594 OFFCURVE",
"20 511 CURVE SMOOTH",
"15 470 OFFCURVE",
"10 428 OFFCURVE",
"4 385 CURVE SMOOTH",
"-8 300 OFFCURVE",
"-19 221 OFFCURVE",
"-27 158 CURVE SMOOTH",
"-31 127 OFFCURVE",
"-34 102 OFFCURVE",
"-35 84 CURVE SMOOTH",
"-36 49 OFFCURVE",
"-35 34 OFFCURVE",
"-14 18 CURVE",
"3 7 OFFCURVE",
"27 -7 OFFCURVE",
"47 -12 CURVE SMOOTH",
"67 -17 OFFCURVE",
"84 -14 OFFCURVE",
"85 10 CURVE",
"96 82 OFFCURVE",
"110 175 OFFCURVE",
"127 271 CURVE",
"174 286 OFFCURVE",
"225 299 OFFCURVE",
"272 310 CURVE",
"295 314 OFFCURVE",
"300 322 OFFCURVE",
"293 349 CURVE",
"288 372 OFFCURVE",
"283 395 OFFCURVE",
"272 419 CURVE SMOOTH",
"253 459 OFFCURVE",
"215 446 OFFCURVE",
"191 443 CURVE",
"179 442 OFFCURVE",
"167 440 OFFCURVE",
"155 438 CURVE",
"162 469 OFFCURVE",
"167 498 OFFCURVE",
"172 526 CURVE SMOOTH",
"176 553 OFFCURVE",
"181 578 OFFCURVE",
"186 600 CURVE",
"214 605 OFFCURVE",
"241 610 OFFCURVE",
"267 614 CURVE SMOOTH",
"293 618 OFFCURVE",
"318 622 OFFCURVE",
"341 626 CURVE SMOOTH"
);
}
);
width = 380;
}
);
note = f;
unicode = 0066;
},
{
glyphname = g;
layers = (
{
layerId = "A436FB16-7E3F-4A25-90BC-0079C9B35420";
name = Regular;
paths = (
{
closed = 1;
nodes = (
"382 467 OFFCURVE",
"384 495 OFFCURVE",
"385 524 CURVE SMOOTH",
"385 552 OFFCURVE",
"385 583 OFFCURVE",
"382 606 CURVE SMOOTH",
"377 649 OFFCURVE",
"366 682 OFFCURVE",
"339 710 CURVE SMOOTH",
"311 741 OFFCURVE",
"265 762 OFFCURVE",
"225 769 CURVE SMOOTH",
"197 774 OFFCURVE",
"159 772 OFFCURVE",
"131 744 CURVE SMOOTH",
"86 700 OFFCURVE",
"48 634 OFFCURVE",
"20 559 CURVE SMOOTH",
"-8 483 OFFCURVE",
"-26 400 OFFCURVE",
"-33 320 CURVE SMOOTH",
"-40 240 OFFCURVE",
"-34 165 OFFCURVE",
"-14 108 CURVE",
"-3 71 OFFCURVE",
"20 38 OFFCURVE",
"43 19 CURVE",
"74 -2 OFFCURVE",
"107 -16 OFFCURVE",
"142 -23 CURVE",
"221 -42 OFFCURVE",
"275 17 OFFCURVE",
"315 97 CURVE SMOOTH",
"335 137 OFFCURVE",
"352 185 OFFCURVE",
"366 242 CURVE SMOOTH",
"373 275 OFFCURVE",
"373 292 OFFCURVE",
"358 320 CURVE SMOOTH",
"354 327 OFFCURVE",
"350 335 OFFCURVE",
"345 344 CURVE SMOOTH",
"336 361 OFFCURVE",
"324 383 OFFCURVE",
"306 390 CURVE",
"297 393 OFFCURVE",
"285 394 OFFCURVE",
"271 391 CURVE SMOOTH",
"259 388 OFFCURVE",
"245 386 OFFCURVE",
"228 383 CURVE SMOOTH",
"211 380 OFFCURVE",
"195 376 OFFCURVE",
"180 371 CURVE",
"148 364 OFFCURVE",
"124 362 OFFCURVE",
"131 331 CURVE SMOOTH",
"146 263 OFFCURVE",
"171 234 OFFCURVE",
"222 238 CURVE",
"209 197 OFFCURVE",
"193 158 OFFCURVE",
"177 133 CURVE SMOOTH",
"160 108 OFFCURVE",
"143 94 OFFCURVE",
"127 102 CURVE SMOOTH",
"108 111 OFFCURVE",
"99 153 OFFCURVE",
"98 207 CURVE SMOOTH",
"97 261 OFFCURVE",
"104 327 OFFCURVE",
"119 384 CURVE SMOOTH",
"135 453 OFFCURVE",
"158 519 OFFCURVE",
"181 565 CURVE SMOOTH",
"192 588 OFFCURVE",
"204 605 OFFCURVE",
"215 618 CURVE SMOOTH",
"226 631 OFFCURVE",
"235 635 OFFCURVE",
"243 632 CURVE SMOOTH",
"251 629 OFFCURVE",
"253 613 OFFCURVE",
"256 593 CURVE",
"257 582 OFFCURVE",
"258 571 OFFCURVE",
"258 559 CURVE SMOOTH",
"258 547 OFFCURVE",
"259 537 OFFCURVE",
"260 526 CURVE SMOOTH",
"265 469 OFFCURVE",
"291 432 OFFCURVE",
"348 421 CURVE",
"369 418 OFFCURVE",
"374 425 OFFCURVE",
"379 448 CURVE"
);
}
);
width = 442;
}
);
note = g;
unicode = 0067;
},
{
glyphname = h;
layers = (
{
layerId = "A436FB16-7E3F-4A25-90BC-0079C9B35420";
name = Regular;
paths = (
{
closed = 1;
nodes = (
"433 691 OFFCURVE",
"430 702 OFFCURVE",
"409 721 CURVE",
"386 740 OFFCURVE",
"361 756 OFFCURVE",
"338 764 CURVE SMOOTH",
"314 773 OFFCURVE",
"303 772 OFFCURVE",
"296 739 CURVE SMOOTH",
"288 695 OFFCURVE",
"280 644 OFFCURVE",
"271 587 CURVE SMOOTH",
"262 530 OFFCURVE",
"253 471 OFFCURVE",
"244 410 CURVE",
"213 407 OFFCURVE",
"179 403 OFFCURVE",
"144 398 CURVE",
"153 448 OFFCURVE",
"161 495 OFFCURVE",
"168 538 CURVE SMOOTH",
"175 581 OFFCURVE",
"182 618 OFFCURVE",
"189 649 CURVE",
"194 677 OFFCURVE",
"192 688 OFFCURVE",
"169 707 CURVE",
"148 726 OFFCURVE",
"117 743 OFFCURVE",
"93 752 CURVE",
"70 763 OFFCURVE",
"60 760 OFFCURVE",
"53 727 CURVE",
"47 682 OFFCURVE",
"41 632 OFFCURVE",
"34 576 CURVE SMOOTH",
"21 463 OFFCURVE",
"7 344 OFFCURVE",
"-8 233 CURVE SMOOTH",
"-15 177 OFFCURVE",
"-23 127 OFFCURVE",
"-31 83 CURVE SMOOTH",
"-38 48 OFFCURVE",
"-29 32 OFFCURVE",
"-9 17 CURVE",
"-1 10 OFFCURVE",
"9 4 OFFCURVE",
"21 -1 CURVE SMOOTH",
"44 -10 OFFCURVE",
"69 -23 OFFCURVE",
"77 -16 CURVE",
"81 -13 OFFCURVE",
"84 -5 OFFCURVE",
"86 6 CURVE SMOOTH",
"91 38 OFFCURVE",
"96 74 OFFCURVE",
"101 113 CURVE SMOOTH",
"106 152 OFFCURVE",
"112 194 OFFCURVE",
"119 238 CURVE",
"136 242 OFFCURVE",
"154 246 OFFCURVE",
"172 249 CURVE SMOOTH",
"189 252 OFFCURVE",
"207 256 OFFCURVE",
"224 260 CURVE",
"215 188 OFFCURVE",
"208 127 OFFCURVE",
"205 80 CURVE",
"197 32 OFFCURVE",
"221 13 OFFCURVE",
"257 -3 CURVE SMOOTH",
"274 -10 OFFCURVE",
"291 -17 OFFCURVE",
"303 -18 CURVE SMOOTH",
"314 -19 OFFCURVE",
"321 -14 OFFCURVE",
"321 5 CURVE",
"336 113 OFFCURVE",
"354 237 OFFCURVE",
"374 354 CURVE SMOOTH",
"393 471 OFFCURVE",
"412 581 OFFCURVE",
"428 664 CURVE SMOOTH"
);
}
);
width = 452;
}
);
note = h;
unicode = 0068;
},
{
glyphname = i;
layers = (
{
layerId = "A436FB16-7E3F-4A25-90BC-0079C9B35420";
name = Regular;
paths = (
{
closed = 1;
nodes = (
"139 726 OFFCURVE",
"108 744 OFFCURVE",
"84 752 CURVE",
"60 761 OFFCURVE",
"50 756 OFFCURVE",
"43 727 CURVE",
"34 678 OFFCURVE",
"22 604 OFFCURVE",
"11 524 CURVE SMOOTH",
"-1 444 OFFCURVE",
"-12 356 OFFCURVE",
"-21 277 CURVE SMOOTH",
"-30 198 OFFCURVE",
"-37 128 OFFCURVE",
"-40 83 CURVE SMOOTH",
"-43 48 OFFCURVE",
"-38 32 OFFCURVE",
"-18 17 CURVE SMOOTH",
"1 2 OFFCURVE",
"22 -6 OFFCURVE",
"45 -15 CURVE",
"68 -23 OFFCURVE",
"73 -17 OFFCURVE",
"77 6 CURVE",
"85 65 OFFCURVE",
"95 139 OFFCURVE",
"107 218 CURVE SMOOTH",
"119 297 OFFCURVE",
"132 380 OFFCURVE",
"145 456 CURVE SMOOTH",
"157 531 OFFCURVE",
"169 600 OFFCURVE",
"180 649 CURVE",
"185 677 OFFCURVE",
"183 688 OFFCURVE",
"160 707 CURVE"
);
}
);
width = 208;
}
);
note = i;
unicode = 0069;
},
{
glyphname = j;
layers = (
{
layerId = "A436FB16-7E3F-4A25-90BC-0079C9B35420";
name = Regular;
paths = (
{
closed = 1;
nodes = (
"159 -37 OFFCURVE",
"199 -18 OFFCURVE",
"230 10 CURVE SMOOTH",
"269 47 OFFCURVE",
"299 127 OFFCURVE",
"324 239 CURVE SMOOTH",
"348 351 OFFCURVE",
"366 494 OFFCURVE",
"381 661 CURVE SMOOTH",
"384 689 OFFCURVE",
"382 698 OFFCURVE",
"359 718 CURVE SMOOTH",
"336 737 OFFCURVE",
"304 751 OFFCURVE",
"281 760 CURVE",
"257 768 OFFCURVE",
"245 764 OFFCURVE",
"241 733 CURVE SMOOTH",
"234 666 OFFCURVE",
"225 574 OFFCURVE",
"213 480 CURVE SMOOTH",
"201 386 OFFCURVE",
"187 292 OFFCURVE",
"171 221 CURVE SMOOTH",
"163 185 OFFCURVE",
"155 156 OFFCURVE",
"146 135 CURVE SMOOTH",
"129 92 OFFCURVE",
"105 100 OFFCURVE",
"101 129 CURVE",
"98 143 OFFCURVE",
"96 166 OFFCURVE",
"95 198 CURVE SMOOTH",
"94 247 OFFCURVE",
"69 286 OFFCURVE",
"21 314 CURVE",
"-8 333 OFFCURVE",
"-19 309 OFFCURVE",
"-26 266 CURVE",
"-33 209 OFFCURVE",
"-33 167 OFFCURVE",
"-21 124 CURVE SMOOTH",
"-6 64 OFFCURVE",
"23 11 OFFCURVE",
"92 -13 CURVE SMOOTH"
);
}
);
width = 418;
}
);
note = j;
unicode = 006A;
},
{
glyphname = k;
layers = (
{
layerId = "A436FB16-7E3F-4A25-90BC-0079C9B35420";
name = Regular;
paths = (
{
closed = 1;
nodes = (
"237 252 OFFCURVE",
"260 206 OFFCURVE",
"280 166 CURVE SMOOTH",
"300 125 OFFCURVE",
"319 89 OFFCURVE",
"334 65 CURVE SMOOTH",
"349 42 OFFCURVE",
"346 30 OFFCURVE",
"327 17 CURVE",
"316 8 OFFCURVE",
"299 1 OFFCURVE",
"284 -2 CURVE",
"261 -11 OFFCURVE",
"237 -11 OFFCURVE",
"213 28 CURVE SMOOTH",
"208 36 OFFCURVE",
"202 47 OFFCURVE",
"194 61 CURVE SMOOTH",
"177 89 OFFCURVE",
"156 124 OFFCURVE",
"136 164 CURVE",
"125 183 OFFCURVE",
"116 203 OFFCURVE",
"107 222 CURVE",
"101 181 OFFCURVE",
"96 142 OFFCURVE",
"91 106 CURVE SMOOTH",
"86 69 OFFCURVE",
"81 36 OFFCURVE",
"76 6 CURVE",
"76 -14 OFFCURVE",
"69 -21 OFFCURVE",
"58 -20 CURVE",
"52 -19 OFFCURVE",
"45 -17 OFFCURVE",
"37 -13 CURVE",
"29 -10 OFFCURVE",
"20 -6 OFFCURVE",
"10 -2 CURVE SMOOTH",
"-29 14 OFFCURVE",
"-46 34 OFFCURVE",
"-42 83 CURVE SMOOTH",
"-39 128 OFFCURVE",
"-31 200 OFFCURVE",
"-21 281 CURVE SMOOTH",
"-11 361 OFFCURVE",
"0 451 OFFCURVE",
"12 533 CURVE SMOOTH",
"23 615 OFFCURVE",
"35 689 OFFCURVE",
"44 738 CURVE",
"51 767 OFFCURVE",
"62 772 OFFCURVE",
"85 763 CURVE",
"109 755 OFFCURVE",
"140 737 OFFCURVE",
"161 718 CURVE SMOOTH",
"184 698 OFFCURVE",
"188 689 OFFCURVE",
"181 661 CURVE SMOOTH",
"169 606 OFFCURVE",
"157 533 OFFCURVE",
"142 445 CURVE",
"159 471 OFFCURVE",
"178 498 OFFCURVE",
"198 527 CURVE SMOOTH",
"217 556 OFFCURVE",
"236 584 OFFCURVE",
"254 612 CURVE SMOOTH",
"272 640 OFFCURVE",
"289 666 OFFCURVE",
"305 691 CURVE SMOOTH",
"320 715 OFFCURVE",
"333 735 OFFCURVE",
"342 752 CURVE SMOOTH",
"348 763 OFFCURVE",
"354 769 OFFCURVE",
"360 769 CURVE SMOOTH",
"375 769 OFFCURVE",
"393 747 OFFCURVE",
"406 723 CURVE SMOOTH",
"418 699 OFFCURVE",
"429 673 OFFCURVE",
"428 650 CURVE",
"427 639 OFFCURVE",
"424 625 OFFCURVE",
"417 608 CURVE SMOOTH",
"400 565 OFFCURVE",
"369 512 OFFCURVE",
"333 456 CURVE SMOOTH",
"297 400 OFFCURVE",
"256 341 OFFCURVE",
"220 292 CURVE"
);
}
);
width = 443;
}
);
note = k;
unicode = 006B;
},
{
glyphname = l;
layers = (
{
layerId = "A436FB16-7E3F-4A25-90BC-0079C9B35420";
name = Regular;
paths = (
{
closed = 1;
nodes = (
"282 49 OFFCURVE",
"281 54 OFFCURVE",
"274 82 CURVE",
"270 105 OFFCURVE",
"263 129 OFFCURVE",
"252 152 CURVE SMOOTH",
"241 176 OFFCURVE",
"230 182 OFFCURVE",
"207 179 CURVE SMOOTH",
"167 175 OFFCURVE",
"134 170 OFFCURVE",
"95 161 CURVE",
"108 246 OFFCURVE",
"125 339 OFFCURVE",
"141 427 CURVE SMOOTH",
"157 515 OFFCURVE",
"173 599 OFFCURVE",
"188 664 CURVE SMOOTH",
"195 691 OFFCURVE",
"191 702 OFFCURVE",
"170 721 CURVE SMOOTH",
"149 740 OFFCURVE",
"118 756 OFFCURVE",
"94 764 CURVE",
"71 773 OFFCURVE",
"60 769 OFFCURVE",
"52 740 CURVE",
"40 685 OFFCURVE",
"27 617 OFFCURVE",
"15 542 CURVE SMOOTH",
"2 467 OFFCURVE",
"-10 388 OFFCURVE",
"-20 316 CURVE SMOOTH",
"-30 243 OFFCURVE",
"-38 176 OFFCURVE",
"-42 127 CURVE",
"-46 95 OFFCURVE",
"-38 73 OFFCURVE",
"-23 54 CURVE SMOOTH",
"-13 42 OFFCURVE",
"-5 32 OFFCURVE",
"1 25 CURVE",
"13 9 OFFCURVE",
"26 -5 OFFCURVE",
"43 -13 CURVE",
"52 -18 OFFCURVE",
"66 -16 OFFCURVE",
"85 -8 CURVE",
"112 0 OFFCURVE",
"140 8 OFFCURVE",
"169 17 CURVE SMOOTH",
"198 25 OFFCURVE",
"227 33 OFFCURVE",
"255 41 CURVE SMOOTH"
);
}
);
width = 355;
}
);
note = l;
unicode = 006C;
},
{
glyphname = m;
layers = (
{
layerId = "A436FB16-7E3F-4A25-90BC-0079C9B35420";
name = Regular;
paths = (
{
closed = 1;
nodes = (
"146 340 OFFCURVE",
"160 220 OFFCURVE",
"175 128 CURVE SMOOTH",
"179 105 OFFCURVE",
"183 91 OFFCURVE",
"188 82 CURVE SMOOTH",
"193 73 OFFCURVE",
"200 67 OFFCURVE",
"209 62 CURVE",
"224 55 OFFCURVE",
"239 49 OFFCURVE",
"255 44 CURVE SMOOTH",
"279 37 OFFCURVE",
"280 44 OFFCURVE",
"289 72 CURVE SMOOTH",
"302 117 OFFCURVE",
"326 187 OFFCURVE",
"352 260 CURVE SMOOTH",
"378 332 OFFCURVE",
"405 410 OFFCURVE",
"428 470 CURVE",
"416 401 OFFCURVE",
"405 322 OFFCURVE",
"397 251 CURVE SMOOTH",
"388 180 OFFCURVE",
"382 118 OFFCURVE",
"379 79 CURVE",
"375 46 OFFCURVE",
"381 28 OFFCURVE",
"402 13 CURVE",
"418 0 OFFCURVE",
"441 -9 OFFCURVE",
"462 -16 CURVE SMOOTH",
"485 -24 OFFCURVE",
"490 -12 OFFCURVE",
"495 12 CURVE",
"500 59 OFFCURVE",
"509 128 OFFCURVE",
"521 205 CURVE SMOOTH",
"526 243 OFFCURVE",
"532 283 OFFCURVE",
"538 325 CURVE SMOOTH",
"550 408 OFFCURVE",
"563 488 OFFCURVE",
"575 558 CURVE SMOOTH",
"580 593 OFFCURVE",
"585 623 OFFCURVE",
"590 649 CURVE SMOOTH",
"597 684 OFFCURVE",
"591 700 OFFCURVE",
"567 715 CURVE SMOOTH",
"532 736 OFFCURVE",
"494 751 OFFCURVE",
"462 762 CURVE",
"435 773 OFFCURVE",
"419 771 OFFCURVE",
"406 755 CURVE SMOOTH",
"393 739 OFFCURVE",
"381 709 OFFCURVE",
"364 661 CURVE",
"347 618 OFFCURVE",
"327 567 OFFCURVE",
"309 516 CURVE SMOOTH",
"291 465 OFFCURVE",
"272 414 OFFCURVE",
"259 373 CURVE",
"253 431 OFFCURVE",
"248 477 OFFCURVE",
"245 511 CURVE SMOOTH",
"241 544 OFFCURVE",
"238 570 OFFCURVE",
"236 588 CURVE SMOOTH",
"234 606 OFFCURVE",
"233 618 OFFCURVE",
"233 625 CURVE",
"232 638 OFFCURVE",
"231 653 OFFCURVE",
"228 669 CURVE SMOOTH",
"225 685 OFFCURVE",
"220 698 OFFCURVE",
"209 709 CURVE SMOOTH",
"204 714 OFFCURVE",
"196 719 OFFCURVE",
"187 724 CURVE SMOOTH",
"158 739 OFFCURVE",
"132 749 OFFCURVE",
"91 757 CURVE SMOOTH",
"64 762 OFFCURVE",
"53 756 OFFCURVE",
"45 721 CURVE",
"36 672 OFFCURVE",
"24 600 OFFCURVE",
"13 521 CURVE SMOOTH",
"1 442 OFFCURVE",
"-12 357 OFFCURVE",
"-21 278 CURVE SMOOTH",
"-30 199 OFFCURVE",
"-37 127 OFFCURVE",
"-40 78 CURVE SMOOTH",
"-43 43 OFFCURVE",
"-37 28 OFFCURVE",
"-16 12 CURVE SMOOTH",
"1 -1 OFFCURVE",
"23 -11 OFFCURVE",
"43 -18 CURVE SMOOTH",
"64 -25 OFFCURVE",
"70 -18 OFFCURVE",
"74 6 CURVE",
"79 62 OFFCURVE",
"88 135 OFFCURVE",
"100 214 CURVE SMOOTH",
"111 293 OFFCURVE",
"124 377 OFFCURVE",
"137 457 CURVE"
);
}
);
width = 616;
}
);
note = m;
unicode = 006D;
},
{
glyphname = n;
layers = (
{
layerId = "A436FB16-7E3F-4A25-90BC-0079C9B35420";
name = Regular;
paths = (
{
closed = 1;
nodes = (
"253 344 OFFCURVE",
"249 375 OFFCURVE",
"244 408 CURVE SMOOTH",
"239 440 OFFCURVE",
"235 471 OFFCURVE",
"231 501 CURVE SMOOTH",
"222 560 OFFCURVE",
"215 612 OFFCURVE",
"211 643 CURVE SMOOTH",
"206 683 OFFCURVE",
"198 701 OFFCURVE",
"174 714 CURVE",
"145 733 OFFCURVE",
"118 743 OFFCURVE",
"90 754 CURVE",
"67 762 OFFCURVE",
"53 756 OFFCURVE",
"46 725 CURVE SMOOTH",
"35 669 OFFCURVE",
"23 592 OFFCURVE",
"12 509 CURVE SMOOTH",
"0 425 OFFCURVE",
"-12 338 OFFCURVE",
"-20 262 CURVE SMOOTH",
"-29 186 OFFCURVE",
"-36 123 OFFCURVE",
"-39 88 CURVE SMOOTH",
"-43 53 OFFCURVE",
"-38 37 OFFCURVE",
"-19 22 CURVE",
"0 3 OFFCURVE",
"23 -3 OFFCURVE",
"44 -11 CURVE SMOOTH",
"67 -20 OFFCURVE",
"73 -15 OFFCURVE",
"76 8 CURVE SMOOTH",
"81 56 OFFCURVE",
"91 120 OFFCURVE",
"101 191 CURVE SMOOTH",
"106 226 OFFCURVE",
"111 263 OFFCURVE",
"117 302 CURVE SMOOTH",
"122 340 OFFCURVE",
"128 378 OFFCURVE",
"133 415 CURVE",
"144 352 OFFCURVE",
"156 289 OFFCURVE",
"168 230 CURVE SMOOTH",
"180 170 OFFCURVE",
"193 117 OFFCURVE",
"205 77 CURVE SMOOTH",
"213 48 OFFCURVE",
"227 28 OFFCURVE",
"246 17 CURVE",
"267 6 OFFCURVE",
"288 -2 OFFCURVE",
"309 -9 CURVE SMOOTH",
"333 -17 OFFCURVE",
"346 -8 OFFCURVE",
"348 17 CURVE",
"360 109 OFFCURVE",
"376 228 OFFCURVE",
"392 344 CURVE SMOOTH",
"408 460 OFFCURVE",
"425 574 OFFCURVE",
"440 655 CURVE SMOOTH",
"445 683 OFFCURVE",
"444 700 OFFCURVE",
"421 719 CURVE SMOOTH",
"393 742 OFFCURVE",
"382 746 OFFCURVE",
"358 754 CURVE SMOOTH",
"334 762 OFFCURVE",
"322 756 OFFCURVE",
"317 727 CURVE SMOOTH",
"297 614 OFFCURVE",
"273 467 OFFCURVE",
"258 314 CURVE"
);
}
);
width = 468;
}
);
note = n;
unicode = 006E;
},
{
glyphname = o;
layers = (
{
layerId = "A436FB16-7E3F-4A25-90BC-0079C9B35420";
name = Regular;
paths = (
{
closed = 1;
nodes = (
"313 732 OFFCURVE",
"270 752 OFFCURVE",
"226 761 CURVE SMOOTH",
"193 768 OFFCURVE",
"151 752 OFFCURVE",
"124 724 CURVE SMOOTH",
"60 653 OFFCURVE",
"17 543 OFFCURVE",
"-3 429 CURVE SMOOTH",
"-24 315 OFFCURVE",
"-22 197 OFFCURVE",
"6 109 CURVE SMOOTH",
"18 72 OFFCURVE",
"43 42 OFFCURVE",
"66 23 CURVE SMOOTH",
"95 0 OFFCURVE",
"133 -10 OFFCURVE",
"166 -15 CURVE SMOOTH",
"217 -23 OFFCURVE",
"254 -10 OFFCURVE",
"289 31 CURVE",
"338 99 OFFCURVE",
"370 198 OFFCURVE",
"387 300 CURVE SMOOTH",
"403 402 OFFCURVE",
"404 506 OFFCURVE",
"392 589 CURVE SMOOTH",
"384 636 OFFCURVE",
"371 672 OFFCURVE",
"340 704 CURVE SMOOTH"
);
},
{
closed = 1;
nodes = (
"255 622 OFFCURVE",
"261 610 OFFCURVE",
"265 590 CURVE SMOOTH",
"273 550 OFFCURVE",
"273 492 OFFCURVE",
"268 428 CURVE SMOOTH",
"263 364 OFFCURVE",
"251 300 OFFCURVE",
"234 240 CURVE SMOOTH",
"217 180 OFFCURVE",
"197 137 OFFCURVE",
"177 117 CURVE SMOOTH",
"156 97 OFFCURVE",
"135 106 OFFCURVE",
"126 145 CURVE SMOOTH",
"117 184 OFFCURVE",
"116 239 OFFCURVE",
"122 302 CURVE SMOOTH",
"128 365 OFFCURVE",
"139 417 OFFCURVE",
"158 476 CURVE SMOOTH",
"177 535 OFFCURVE",
"198 582 OFFCURVE",
"219 610 CURVE",
"230 623 OFFCURVE",
"239 628 OFFCURVE",
"247 625 CURVE SMOOTH"
);
}
);
width = 463;
}
);
note = o;
unicode = 006F;
},
{
glyphname = p;
layers = (
{
layerId = "A436FB16-7E3F-4A25-90BC-0079C9B35420";
name = Regular;
paths = (
{
closed = 1;
nodes = (
"179 230 OFFCURVE",
"231 259 OFFCURVE",
"278 293 CURVE SMOOTH",
"325 327 OFFCURVE",
"365 366 OFFCURVE",
"392 406 CURVE SMOOTH",
"424 454 OFFCURVE",
"449 506 OFFCURVE",
"434 574 CURVE SMOOTH",
"419 642 OFFCURVE",
"393 685 OFFCURVE",
"365 724 CURVE",
"330 768 OFFCURVE",
"276 769 OFFCURVE",
"219 753 CURVE SMOOTH",
"162 736 OFFCURVE",
"101 700 OFFCURVE",
"56 668 CURVE SMOOTH",
"52 665 OFFCURVE",
"48 651 OFFCURVE",
"45 626 CURVE SMOOTH",
"37 574 OFFCURVE",
"29 494 OFFCURVE",
"21 403 CURVE SMOOTH",
"13 311 OFFCURVE",
"5 222 OFFCURVE",
"-3 154 CURVE SMOOTH",
"-8 119 OFFCURVE",
"-12 94 OFFCURVE",
"-17 79 CURVE",
"-24 44 OFFCURVE",
"-15 25 OFFCURVE",
"1 11 CURVE SMOOTH",
"9 4 OFFCURVE",
"19 -2 OFFCURVE",
"30 -6 CURVE",
"52 -15 OFFCURVE",
"78 -27 OFFCURVE",
"86 -20 CURVE",
"90 -17 OFFCURVE",
"93 -10 OFFCURVE",
"96 1 CURVE",
"104 69 OFFCURVE",
"115 138 OFFCURVE",
"127 210 CURVE"
);
},
{
closed = 1;
nodes = (
"169 455 OFFCURVE",
"181 521 OFFCURVE",
"194 581 CURVE",
"223 598 OFFCURVE",
"253 607 OFFCURVE",
"276 608 CURVE",
"299 608 OFFCURVE",
"314 601 OFFCURVE",
"317 588 CURVE",
"324 564 OFFCURVE",
"313 526 OFFCURVE",
"286 487 CURVE SMOOTH",
"258 448 OFFCURVE",
"215 409 OFFCURVE",
"156 382 CURVE"
);
}
);
width = 472;
}
);
note = p;
unicode = 0070;
},
{
glyphname = q;
layers = (
{
layerId = "A436FB16-7E3F-4A25-90BC-0079C9B35420";
name = Regular;
paths = (
{
closed = 1;
nodes = (
"360 48 OFFCURVE",
"354 58 OFFCURVE",
"349 69 CURVE SMOOTH",
"344 80 OFFCURVE",
"337 91 OFFCURVE",
"330 102 CURVE",
"363 171 OFFCURVE",
"384 259 OFFCURVE",
"394 347 CURVE SMOOTH",
"404 434 OFFCURVE",
"402 521 OFFCURVE",
"391 589 CURVE SMOOTH",
"383 636 OFFCURVE",
"371 672 OFFCURVE",
"340 704 CURVE SMOOTH",
"313 732 OFFCURVE",
"270 752 OFFCURVE",
"226 761 CURVE SMOOTH",
"193 768 OFFCURVE",
"151 752 OFFCURVE",
"124 724 CURVE SMOOTH",
"60 653 OFFCURVE",
"17 543 OFFCURVE",
"-3 429 CURVE SMOOTH",
"-24 315 OFFCURVE",
"-22 197 OFFCURVE",
"6 109 CURVE SMOOTH",
"18 72 OFFCURVE",
"43 42 OFFCURVE",
"66 23 CURVE SMOOTH",
"95 0 OFFCURVE",
"131 -11 OFFCURVE",
"166 -15 CURVE SMOOTH",
"198 -18 OFFCURVE",
"228 -17 OFFCURVE",
"253 0 CURVE",
"257 -4 OFFCURVE",
"260 -7 OFFCURVE",
"265 -14 CURVE",
"280 -33 OFFCURVE",
"297 -39 OFFCURVE",
"317 -34 CURVE",
"333 -29 OFFCURVE",
"349 -21 OFFCURVE",
"364 -8 CURVE",
"381 4 OFFCURVE",
"382 15 OFFCURVE",
"367 38 CURVE SMOOTH"
);
},
{
closed = 1;
nodes = (
"157 95 OFFCURVE",
"139 109 OFFCURVE",
"130 133 CURVE SMOOTH",
"121 157 OFFCURVE",
"117 192 OFFCURVE",
"118 235 CURVE SMOOTH",
"118 256 OFFCURVE",
"119 279 OFFCURVE",
"121 302 CURVE",
"132 391 OFFCURVE",
"154 482 OFFCURVE",
"187 554 CURVE SMOOTH",
"203 590 OFFCURVE",
"220 615 OFFCURVE",
"234 623 CURVE SMOOTH",
"241 627 OFFCURVE",
"247 627 OFFCURVE",
"253 622 CURVE",
"264 612 OFFCURVE",
"269 579 OFFCURVE",
"271 539 CURVE SMOOTH",
"273 498 OFFCURVE",
"270 451 OFFCURVE",
"265 404 CURVE SMOOTH",
"260 357 OFFCURVE",
"252 313 OFFCURVE",
"243 272 CURVE SMOOTH",
"238 251 OFFCURVE",
"233 232 OFFCURVE",
"226 215 CURVE",
"202 208 OFFCURVE",
"183 201 OFFCURVE",
"168 190 CURVE SMOOTH",
"153 179 OFFCURVE",
"150 164 OFFCURVE",
"161 146 CURVE SMOOTH",
"164 141 OFFCURVE",
"166 137 OFFCURVE",
"169 132 CURVE",
"171 127 OFFCURVE",
"174 123 OFFCURVE",
"177 118 CURVE"
);
}
);
width = 462;
}
);
note = q;
unicode = 0071;
},
{
glyphname = r;
layers = (
{
layerId = "A436FB16-7E3F-4A25-90BC-0079C9B35420";
name = Regular;
paths = (
{
closed = 1;
nodes = (
"147 188 OFFCURVE",
"175 146 OFFCURVE",
"203 109 CURVE SMOOTH",
"231 72 OFFCURVE",
"259 38 OFFCURVE",
"279 17 CURVE",
"310 -11 OFFCURVE",
"333 -11 OFFCURVE",
"352 -3 CURVE",
"368 1 OFFCURVE",
"377 0 OFFCURVE",
"392 19 CURVE",
"405 34 OFFCURVE",
"409 44 OFFCURVE",
"390 67 CURVE SMOOTH",
"367 94 OFFCURVE",
"342 130 OFFCURVE",
"316 167 CURVE SMOOTH",
"290 203 OFFCURVE",
"265 242 OFFCURVE",
"245 274 CURVE",
"338 334 OFFCURVE",
"407 402 OFFCURVE",
"432 482 CURVE",
"449 529 OFFCURVE",
"429 613 OFFCURVE",
"405 660 CURVE SMOOTH",
"380 707 OFFCURVE",
"351 755 OFFCURVE",
"305 765 CURVE SMOOTH",
"259 775 OFFCURVE",
"207 761 OFFCURVE",
"155 734 CURVE SMOOTH",
"102 706 OFFCURVE",
"71 698 OFFCURVE",
"58 644 CURVE SMOOTH",
"45 590 OFFCURVE",
"31 508 OFFCURVE",
"20 416 CURVE SMOOTH",
"8 323 OFFCURVE",
"-1 233 OFFCURVE",
"-8 161 CURVE SMOOTH",
"-12 125 OFFCURVE",
"-15 98 OFFCURVE",
"-17 79 CURVE SMOOTH",
"-20 44 OFFCURVE",
"-15 26 OFFCURVE",
"1 11 CURVE SMOOTH",
"9 4 OFFCURVE",
"18 0 OFFCURVE",
"27 -3 CURVE SMOOTH",
"36 -6 OFFCURVE",
"47 -9 OFFCURVE",
"58 -14 CURVE",
"79 -21 OFFCURVE",
"85 -14 OFFCURVE",
"89 7 CURVE",
"100 79 OFFCURVE",
"111 151 OFFCURVE",
"124 228 CURVE"
);
},
{
closed = 1;
nodes = (
"225 604 OFFCURVE",
"253 611 OFFCURVE",
"276 611 CURVE SMOOTH",
"323 611 OFFCURVE",
"326 583 OFFCURVE",
"314 548 CURVE SMOOTH",
"301 513 OFFCURVE",
"272 474 OFFCURVE",
"228 435 CURVE SMOOTH",
"206 416 OFFCURVE",
"181 399 OFFCURVE",
"153 386 CURVE",
"161 424 OFFCURVE",
"168 460 OFFCURVE",
"175 493 CURVE SMOOTH",
"181 526 OFFCURVE",
"187 556 OFFCURVE",
"194 584 CURVE"
);
}
);
width = 485;
}
);
note = r;
unicode = 0072;
},
{
glyphname = s;
layers = (
{
layerId = "A436FB16-7E3F-4A25-90BC-0079C9B35420";
name = Regular;
paths = (
{
closed = 1;
nodes = (
"-57 191 OFFCURVE",
"-61 182 OFFCURVE",
"-61 170 CURVE SMOOTH",
"-61 158 OFFCURVE",
"-52 140 OFFCURVE",
"-33 115 CURVE",
"35 15 OFFCURVE",
"101 -23 OFFCURVE",
"173 -20 CURVE SMOOTH",
"226 -19 OFFCURVE",
"264 2 OFFCURVE",
"289 30 CURVE SMOOTH",
"314 58 OFFCURVE",
"329 92 OFFCURVE",
"337 120 CURVE",
"356 177 OFFCURVE",
"330 222 OFFCURVE",
"291 264 CURVE SMOOTH",
"271 285 OFFCURVE",
"249 306 OFFCURVE",
"225 327 CURVE SMOOTH",
"176 369 OFFCURVE",
"139 411 OFFCURVE",
"140 459 CURVE SMOOTH",
"141 506 OFFCURVE",
"159 553 OFFCURVE",
"184 590 CURVE SMOOTH",
"197 608 OFFCURVE",
"208 621 OFFCURVE",
"218 628 CURVE",
"233 643 OFFCURVE",
"239 639 OFFCURVE",
"240 625 CURVE SMOOTH",
"241 611 OFFCURVE",
"238 586 OFFCURVE",
"234 561 CURVE SMOOTH",
"230 536 OFFCURVE",
"225 508 OFFCURVE",
"224 488 CURVE SMOOTH",
"220 439 OFFCURVE",
"247 401 OFFCURVE",
"304 373 CURVE",
"325 361 OFFCURVE",
"333 368 OFFCURVE",
"342 391 CURVE",
"350 416 OFFCURVE",
"358 454 OFFCURVE",
"364 492 CURVE SMOOTH",
"370 530 OFFCURVE",
"375 569 OFFCURVE",
"376 597 CURVE",
"375 630 OFFCURVE",
"374 672 OFFCURVE",
"341 711 CURVE SMOOTH",
"316 740 OFFCURVE",
"277 766 OFFCURVE",
"242 782 CURVE",
"219 791 OFFCURVE",
"198 792 OFFCURVE",
"179 788 CURVE SMOOTH",
"160 784 OFFCURVE",
"145 774 OFFCURVE",
"136 765 CURVE",
"108 742 OFFCURVE",
"78 706 OFFCURVE",
"54 666 CURVE SMOOTH",
"30 626 OFFCURVE",
"11 583 OFFCURVE",
"3 543 CURVE",
"-21 451 OFFCURVE",
"4 370 OFFCURVE",
"49 317 CURVE SMOOTH",
"65 298 OFFCURVE",
"83 279 OFFCURVE",
"104 260 CURVE SMOOTH",
"145 223 OFFCURVE",
"183 189 OFFCURVE",
"201 163 CURVE SMOOTH",
"210 150 OFFCURVE",
"210 139 OFFCURVE",
"203 132 CURVE",
"191 117 OFFCURVE",
"171 115 OFFCURVE",
"144 125 CURVE SMOOTH",
"117 134 OFFCURVE",
"85 156 OFFCURVE",
"49 190 CURVE SMOOTH",
"24 214 OFFCURVE",
"-17 218 OFFCURVE",
"-48 198 CURVE"
);
}
);
width = 401;
}
);
note = s;
unicode = 0073;
},
{
glyphname = t;
layers = (
{
layerId = "A436FB16-7E3F-4A25-90BC-0079C9B35420";
name = Regular;
paths = (
{
closed = 1;
nodes = (
"429 637 OFFCURVE",
"430 643 OFFCURVE",
"425 668 CURVE",
"418 695 OFFCURVE",
"407 724 OFFCURVE",
"391 748 CURVE",
"383 761 OFFCURVE",
"374 767 OFFCURVE",
"351 767 CURVE",
"306 764 OFFCURVE",
"245 759 OFFCURVE",
"185 751 CURVE SMOOTH",
"125 743 OFFCURVE",
"64 732 OFFCURVE",
"19 720 CURVE",
"4 715 OFFCURVE",
"-2 710 OFFCURVE",
"6 686 CURVE SMOOTH",
"14 663 OFFCURVE",
"27 623 OFFCURVE",
"43 600 CURVE SMOOTH",
"58 577 OFFCURVE",
"68 574 OFFCURVE",
"88 581 CURVE",
"95 584 OFFCURVE",
"105 586 OFFCURVE",
"116 588 CURVE SMOOTH",
"127 590 OFFCURVE",
"138 592 OFFCURVE",
"149 595 CURVE",
"136 519 OFFCURVE",
"121 421 OFFCURVE",
"109 328 CURVE SMOOTH",
"97 235 OFFCURVE",
"87 143 OFFCURVE",
"83 82 CURVE",
"75 31 OFFCURVE",
"100 12 OFFCURVE",
"137 -4 CURVE SMOOTH",
"146 -8 OFFCURVE",
"155 -12 OFFCURVE",
"163 -15 CURVE",
"178 -22 OFFCURVE",
"189 -24 OFFCURVE",
"196 -17 CURVE SMOOTH",
"199 -14 OFFCURVE",
"201 -7 OFFCURVE",
"202 2 CURVE SMOOTH",
"214 97 OFFCURVE",
"230 204 OFFCURVE",
"247 312 CURVE SMOOTH",
"264 419 OFFCURVE",
"282 525 OFFCURVE",
"298 620 CURVE",
"317 623 OFFCURVE",
"336 625 OFFCURVE",
"355 628 CURVE",
"373 630 OFFCURVE",
"390 632 OFFCURVE",
"405 634 CURVE SMOOTH"
);
}
);
width = 443;
}
);
note = t;
unicode = 0074;
},
{
glyphname = u;
layers = (
{
layerId = "A436FB16-7E3F-4A25-90BC-0079C9B35420";
name = Regular;
paths = (
{
closed = 1;
nodes = (
"13 65 OFFCURVE",
"33 41 OFFCURVE",
"54 22 CURVE",
"79 1 OFFCURVE",
"112 -12 OFFCURVE",
"152 -16 CURVE SMOOTH",
"192 -20 OFFCURVE",
"221 -12 OFFCURVE",
"252 11 CURVE",
"295 48 OFFCURVE",
"327 129 OFFCURVE",
"353 241 CURVE SMOOTH",
"379 352 OFFCURVE",
"397 493 OFFCURVE",
"416 656 CURVE SMOOTH",
"420 684 OFFCURVE",
"419 694 OFFCURVE",
"396 713 CURVE",
"375 729 OFFCURVE",
"348 748 OFFCURVE",
"325 756 CURVE SMOOTH",
"302 764 OFFCURVE",
"285 759 OFFCURVE",
"284 730 CURVE",
"276 663 OFFCURVE",
"265 569 OFFCURVE",
"250 474 CURVE SMOOTH",
"235 379 OFFCURVE",
"218 283 OFFCURVE",
"199 214 CURVE SMOOTH",
"189 179 OFFCURVE",
"179 152 OFFCURVE",
"168 133 CURVE SMOOTH",
"146 93 OFFCURVE",
"121 107 OFFCURVE",
"114 145 CURVE SMOOTH",
"107 183 OFFCURVE",
"111 240 OFFCURVE",
"120 311 CURVE SMOOTH",
"129 382 OFFCURVE",
"143 455 OFFCURVE",
"159 526 CURVE SMOOTH",
"166 561 OFFCURVE",
"173 593 OFFCURVE",
"180 622 CURVE SMOOTH",
"187 654 OFFCURVE",
"180 681 OFFCURVE",
"159 702 CURVE SMOOTH",
"139 721 OFFCURVE",
"118 736 OFFCURVE",
"95 745 CURVE",
"71 756 OFFCURVE",
"60 751 OFFCURVE",
"53 722 CURVE SMOOTH",
"29 619 OFFCURVE",
"3 498 OFFCURVE",
"-10 386 CURVE SMOOTH",
"-23 273 OFFCURVE",
"-25 169 OFFCURVE",
"0 102 CURVE SMOOTH"
);
}
);
width = 451;
}
);
note = u;
unicode = 0075;
},
{
glyphname = v;
layers = (
{
layerId = "A436FB16-7E3F-4A25-90BC-0079C9B35420";
name = Regular;
paths = (
{
closed = 1;
nodes = (
"453 694 OFFCURVE",
"432 717 OFFCURVE",
"400 740 CURVE",
"385 752 OFFCURVE",
"370 763 OFFCURVE",
"358 765 CURVE SMOOTH",
"345 767 OFFCURVE",
"334 761 OFFCURVE",
"329 742 CURVE SMOOTH",
"306 659 OFFCURVE",
"281 571 OFFCURVE",
"256 479 CURVE SMOOTH",
"231 387 OFFCURVE",
"204 297 OFFCURVE",
"176 209 CURVE",
"168 298 OFFCURVE",
"162 387 OFFCURVE",
"156 467 CURVE SMOOTH",
"153 507 OFFCURVE",
"150 544 OFFCURVE",
"148 579 CURVE SMOOTH",
"143 647 OFFCURVE",
"148 715 OFFCURVE",
"99 739 CURVE SMOOTH",
"78 750 OFFCURVE",
"61 754 OFFCURVE",
"38 754 CURVE SMOOTH",
"15 754 OFFCURVE",
"13 744 OFFCURVE",
"13 716 CURVE",
"21 495 OFFCURVE",
"36 290 OFFCURVE",
"60 119 CURVE SMOOTH",
"65 88 OFFCURVE",
"80 45 OFFCURVE",
"112 22 CURVE SMOOTH",
"141 1 OFFCURVE",
"166 -11 OFFCURVE",
"197 -24 CURVE SMOOTH",
"228 -37 OFFCURVE",
"242 -29 OFFCURVE",
"255 4 CURVE",
"274 59 OFFCURVE",
"297 132 OFFCURVE",
"322 212 CURVE SMOOTH",
"346 291 OFFCURVE",
"371 376 OFFCURVE",
"392 453 CURVE SMOOTH",
"413 530 OFFCURVE",
"431 599 OFFCURVE",
"440 647 CURVE"
);
}
);
width = 466;
}
);
note = v;
unicode = 0076;
},
{
glyphname = w;
layers = (
{
layerId = "A436FB16-7E3F-4A25-90BC-0079C9B35420";
name = Regular;
paths = (
{
closed = 1;
nodes = (
"121 326 OFFCURVE",
"125 407 OFFCURVE",
"130 478 CURVE SMOOTH",
"132 513 OFFCURVE",
"134 545 OFFCURVE",
"136 573 CURVE SMOOTH",
"140 629 OFFCURVE",
"143 650 OFFCURVE",
"139 683 CURVE SMOOTH",
"134 715 OFFCURVE",
"109 731 OFFCURVE",
"86 740 CURVE",
"63 748 OFFCURVE",
"32 759 OFFCURVE",
"23 750 CURVE SMOOTH",
"18 745 OFFCURVE",
"15 735 OFFCURVE",
"14 719 CURVE SMOOTH",
"10 659 OFFCURVE",
"7 584 OFFCURVE",
"5 505 CURVE SMOOTH",
"3 426 OFFCURVE",
"1 344 OFFCURVE",
"1 267 CURVE SMOOTH",
"1 191 OFFCURVE",
"3 120 OFFCURVE",
"6 67 CURVE SMOOTH",
"7 30 OFFCURVE",
"14 15 OFFCURVE",
"35 4 CURVE",
"58 -7 OFFCURVE",
"83 -17 OFFCURVE",
"110 -24 CURVE SMOOTH",
"130 -29 OFFCURVE",
"141 -28 OFFCURVE",
"152 0 CURVE",
"163 33 OFFCURVE",
"180 86 OFFCURVE",
"200 143 CURVE SMOOTH",
"220 200 OFFCURVE",
"242 263 OFFCURVE",
"262 318 CURVE",
"262 275 OFFCURVE",
"265 227 OFFCURVE",
"269 183 CURVE SMOOTH",
"272 138 OFFCURVE",
"275 97 OFFCURVE",
"278 70 CURVE SMOOTH",
"281 42 OFFCURVE",
"290 17 OFFCURVE",
"315 4 CURVE",
"328 -1 OFFCURVE",
"338 -5 OFFCURVE",
"347 -9 CURVE SMOOTH",
"364 -17 OFFCURVE",
"402 -30 OFFCURVE",
"418 -22 CURVE",
"425 -19 OFFCURVE",
"431 -11 OFFCURVE",
"435 2 CURVE",
"442 29 OFFCURVE",
"451 60 OFFCURVE",
"461 95 CURVE SMOOTH",
"470 130 OFFCURVE",
"480 166 OFFCURVE",
"491 205 CURVE SMOOTH",
"512 281 OFFCURVE",
"536 363 OFFCURVE",
"559 439 CURVE SMOOTH",
"582 514 OFFCURVE",
"603 584 OFFCURVE",
"620 635 CURVE SMOOTH",
"628 662 OFFCURVE",
"629 690 OFFCURVE",
"610 713 CURVE",
"593 730 OFFCURVE",
"575 744 OFFCURVE",
"556 755 CURVE",
"531 768 OFFCURVE",
"523 768 OFFCURVE",
"512 736 CURVE SMOOTH",
"500 700 OFFCURVE",
"476 626 OFFCURVE",
"449 539 CURVE SMOOTH",
"422 451 OFFCURVE",
"391 350 OFFCURVE",
"366 262 CURVE",
"367 297 OFFCURVE",
"369 333 OFFCURVE",
"370 370 CURVE SMOOTH",
"373 442 OFFCURVE",
"376 506 OFFCURVE",
"378 553 CURVE SMOOTH",
"379 576 OFFCURVE",
"379 593 OFFCURVE",
"379 602 CURVE SMOOTH",
"379 635 OFFCURVE",
"379 646 OFFCURVE",
"356 659 CURVE",
"345 664 OFFCURVE",
"336 669 OFFCURVE",
"329 673 CURVE",
"313 681 OFFCURVE",
"286 691 OFFCURVE",
"275 684 CURVE",
"269 681 OFFCURVE",
"264 673 OFFCURVE",
"259 662 CURVE SMOOTH",
"246 634 OFFCURVE",
"223 569 OFFCURVE",
"197 493 CURVE SMOOTH",
"184 454 OFFCURVE",
"170 414 OFFCURVE",
"157 372 CURVE SMOOTH",
"143 330 OFFCURVE",
"130 291 OFFCURVE",
"118 254 CURVE"
);
}
);
width = 641;
}
);
note = w;
unicode = 0077;
},
{
glyphname = x;
layers = (
{
layerId = "A436FB16-7E3F-4A25-90BC-0079C9B35420";
name = Regular;
paths = (
{
closed = 1;
nodes = (
"249 632 OFFCURVE",
"290 706 OFFCURVE",
"321 754 CURVE SMOOTH",
"328 765 OFFCURVE",
"336 771 OFFCURVE",
"344 771 CURVE SMOOTH",
"352 771 OFFCURVE",
"361 767 OFFCURVE",
"370 760 CURVE",
"389 741 OFFCURVE",
"408 712 OFFCURVE",
"420 689 CURVE SMOOTH",
"435 661 OFFCURVE",
"430 637 OFFCURVE",
"417 614 CURVE SMOOTH",
"377 546 OFFCURVE",
"321 451 OFFCURVE",
"261 348 CURVE",
"280 287 OFFCURVE",
"298 229 OFFCURVE",
"315 174 CURVE SMOOTH",
"332 119 OFFCURVE",
"347 69 OFFCURVE",
"361 25 CURVE",
"372 0 OFFCURVE",
"368 -12 OFFCURVE",
"348 -16 CURVE",
"326 -19 OFFCURVE",
"303 -19 OFFCURVE",
"278 -16 CURVE",
"254 -12 OFFCURVE",
"244 0 OFFCURVE",
"229 32 CURVE SMOOTH",
"224 43 OFFCURVE",
"216 64 OFFCURVE",
"206 95 CURVE SMOOTH",
"195 126 OFFCURVE",
"183 163 OFFCURVE",
"169 206 CURVE",
"146 165 OFFCURVE",
"124 125 OFFCURVE",
"104 87 CURVE SMOOTH",
"84 48 OFFCURVE",
"66 15 OFFCURVE",
"51 -12 CURVE SMOOTH",
"28 -52 OFFCURVE",
"-1 -11 OFFCURVE",
"-17 12 CURVE SMOOTH",
"-34 35 OFFCURVE",
"-52 58 OFFCURVE",
"-52 77 CURVE SMOOTH",
"-52 86 OFFCURVE",
"-49 98 OFFCURVE",
"-42 113 CURVE SMOOTH",
"-9 185 OFFCURVE",
"47 293 OFFCURVE",
"108 400 CURVE",
"89 459 OFFCURVE",
"71 518 OFFCURVE",
"55 571 CURVE SMOOTH",
"39 623 OFFCURVE",
"25 670 OFFCURVE",
"16 703 CURVE SMOOTH",
"8 736 OFFCURVE",
"12 745 OFFCURVE",
"35 749 CURVE SMOOTH",
"40 750 OFFCURVE",
"46 750 OFFCURVE",
"52 750 CURVE SMOOTH",
"58 750 OFFCURVE",
"64 750 OFFCURVE",
"69 750 CURVE SMOOTH",
"80 750 OFFCURVE",
"93 749 OFFCURVE",
"106 748 CURVE",
"133 744 OFFCURVE",
"145 724 OFFCURVE",
"156 695 CURVE",
"168 652 OFFCURVE",
"184 601 OFFCURVE",
"201 545 CURVE"
);
}
);
width = 472;
}
);
note = x;
unicode = 0078;
},
{
glyphname = y;
layers = (
{
layerId = "A436FB16-7E3F-4A25-90BC-0079C9B35420";
name = Regular;
paths = (
{
closed = 1;
nodes = (
"415 677 OFFCURVE",
"414 691 OFFCURVE",
"399 714 CURVE",
"386 730 OFFCURVE",
"367 751 OFFCURVE",
"349 763 CURVE SMOOTH",
"331 775 OFFCURVE",
"314 776 OFFCURVE",
"307 751 CURVE",
"268 655 OFFCURVE",
"227 556 OFFCURVE",
"184 460 CURVE",
"163 556 OFFCURVE",
"143 642 OFFCURVE",
"126 706 CURVE",
"115 739 OFFCURVE",
"108 753 OFFCURVE",
"85 760 CURVE SMOOTH",
"62 767 OFFCURVE",
"40 764 OFFCURVE",
"17 761 CURVE",
"-4 757 OFFCURVE",
"-7 750 OFFCURVE",
"0 722 CURVE",
"12 663 OFFCURVE",
"28 590 OFFCURVE",
"45 514 CURVE SMOOTH",
"62 438 OFFCURVE",
"80 360 OFFCURVE",
"96 288 CURVE",
"91 246 OFFCURVE",
"86 207 OFFCURVE",
"83 171 CURVE SMOOTH",
"79 134 OFFCURVE",
"75 102 OFFCURVE",
"72 74 CURVE SMOOTH",
"69 39 OFFCURVE",
"74 26 OFFCURVE",
"93 7 CURVE",
"112 -5 OFFCURVE",
"137 -17 OFFCURVE",
"158 -26 CURVE",
"181 -34 OFFCURVE",
"186 -30 OFFCURVE",
"191 -3 CURVE",
"200 69 OFFCURVE",
"210 143 OFFCURVE",
"225 227 CURVE",
"261 303 OFFCURVE",
"300 387 OFFCURVE",
"333 462 CURVE SMOOTH",
"365 537 OFFCURVE",
"392 603 OFFCURVE",
"404 644 CURVE"
);
}
);
width = 434;
}
);
note = y;
unicode = 0079;
},
{
glyphname = z;
layers = (
{
layerId = "A436FB16-7E3F-4A25-90BC-0079C9B35420";
name = Regular;
paths = (
{
closed = 1;
nodes = (
"151 521 OFFCURVE",
"101 426 OFFCURVE",
"57 338 CURVE SMOOTH",
"13 250 OFFCURVE",
"-26 168 OFFCURVE",
"-47 116 CURVE SMOOTH",
"-60 85 OFFCURVE",
"-45 62 OFFCURVE",
"-33 43 CURVE",
"-14 19 OFFCURVE",
"-3 5 OFFCURVE",
"12 -11 CURVE SMOOTH",
"27 -26 OFFCURVE",
"40 -36 OFFCURVE",
"76 -23 CURVE SMOOTH",
"103 -14 OFFCURVE",
"132 -5 OFFCURVE",
"164 4 CURVE SMOOTH",
"195 12 OFFCURVE",
"225 20 OFFCURVE",
"253 28 CURVE",
"276 32 OFFCURVE",
"282 40 OFFCURVE",
"275 67 CURVE",
"271 90 OFFCURVE",
"263 113 OFFCURVE",
"252 138 CURVE SMOOTH",
"233 181 OFFCURVE",
"185 161 OFFCURVE",
"153 154 CURVE SMOOTH",
"137 150 OFFCURVE",
"121 145 OFFCURVE",
"105 140 CURVE",
"186 293 OFFCURVE",
"275 454 OFFCURVE",
"355 595 CURVE SMOOTH",
"370 620 OFFCURVE",
"369 641 OFFCURVE",
"362 665 CURVE",
"359 674 OFFCURVE",
"357 684 OFFCURVE",
"354 695 CURVE SMOOTH",
"349 716 OFFCURVE",
"338 747 OFFCURVE",
"327 756 CURVE SMOOTH",
"321 761 OFFCURVE",
"312 763 OFFCURVE",
"301 762 CURVE SMOOTH",
"258 759 OFFCURVE",
"210 755 OFFCURVE",
"163 748 CURVE SMOOTH",
"115 741 OFFCURVE",
"70 732 OFFCURVE",
"34 721 CURVE",
"19 714 OFFCURVE",
"14 709 OFFCURVE",
"21 685 CURVE",
"29 661 OFFCURVE",
"45 624 OFFCURVE",
"53 605 CURVE",
"68 581 OFFCURVE",
"86 576 OFFCURVE",
"107 581 CURVE",
"121 585 OFFCURVE",
"135 588 OFFCURVE",
"150 591 CURVE SMOOTH",
"165 594 OFFCURVE",
"181 597 OFFCURVE",
"198 601 CURVE"
);
}
);
width = 375;
}
);
note = z;
unicode = 007A;
},
{
glyphname = braceleft;
layers = (
{
layerId = "A436FB16-7E3F-4A25-90BC-0079C9B35420";
name = Regular;
paths = (
{
closed = 1;
nodes = (
"252 10 OFFCURVE",
"247 0 OFFCURVE",
"224 0 CURVE",
"196 -7 OFFCURVE",
"162 -15 OFFCURVE",
"131 -23 CURVE",
"103 -32 OFFCURVE",
"89 -23 OFFCURVE",
"74 -8 CURVE SMOOTH",
"68 -2 OFFCURVE",
"62 5 OFFCURVE",
"56 12 CURVE SMOOTH",
"50 19 OFFCURVE",
"44 27 OFFCURVE",
"37 34 CURVE",
"20 54 OFFCURVE",
"15 73 OFFCURVE",
"19 112 CURVE SMOOTH",
"22 137 OFFCURVE",
"26 164 OFFCURVE",
"30 193 CURVE SMOOTH",
"33 222 OFFCURVE",
"37 253 OFFCURVE",
"42 287 CURVE",
"31 288 OFFCURVE",
"27 294 OFFCURVE",
"16 310 CURVE",
"3 333 OFFCURVE",
"-7 367 OFFCURVE",
"-14 391 CURVE SMOOTH",
"-25 434 OFFCURVE",
"6 434 OFFCURVE",
"29 438 CURVE SMOOTH",
"40 440 OFFCURVE",
"53 442 OFFCURVE",
"66 445 CURVE",
"83 546 OFFCURVE",
"99 640 OFFCURVE",
"114 716 CURVE",
"119 737 OFFCURVE",
"127 749 OFFCURVE",
"150 752 CURVE",
"185 759 OFFCURVE",
"225 761 OFFCURVE",
"257 762 CURVE SMOOTH",
"297 763 OFFCURVE",
"307 715 OFFCURVE",
"312 695 CURVE SMOOTH",
"317 675 OFFCURVE",
"327 645 OFFCURVE",
"321 636 CURVE",
"318 631 OFFCURVE",
"310 628 OFFCURVE",
"299 626 CURVE",
"288 625 OFFCURVE",
"276 623 OFFCURVE",
"263 621 CURVE SMOOTH",
"250 619 OFFCURVE",
"236 617 OFFCURVE",
"222 616 CURVE",
"207 545 OFFCURVE",
"192 460 OFFCURVE",
"177 374 CURVE SMOOTH",
"162 288 OFFCURVE",
"149 200 OFFCURVE",
"138 124 CURVE",
"145 125 OFFCURVE",
"153 125 OFFCURVE",
"160 126 CURVE SMOOTH",
"167 127 OFFCURVE",
"174 127 OFFCURVE",
"181 128 CURVE",
"220 135 OFFCURVE",
"231 89 OFFCURVE",
"237 68 CURVE SMOOTH",
"240 57 OFFCURVE",
"242 46 OFFCURVE",
"245 35 CURVE SMOOTH"
);
}
);
width = 339;
}
);
note = braceleft;
unicode = 007B;
},
{
glyphname = bar;
layers = (
{
layerId = "A436FB16-7E3F-4A25-90BC-0079C9B35420";
name = Regular;
paths = (
{
closed = 1;
nodes = (
"212 793 OFFCURVE",
"191 801 OFFCURVE",
"170 812 CURVE",
"147 823 OFFCURVE",
"136 817 OFFCURVE",
"129 788 CURVE",
"120 737 OFFCURVE",
"107 652 OFFCURVE",
"93 554 CURVE SMOOTH",
"79 456 OFFCURVE",
"63 346 OFFCURVE",
"51 250 CURVE SMOOTH",
"39 154 OFFCURVE",
"29 69 OFFCURVE",
"25 24 CURVE SMOOTH",
"22 -8 OFFCURVE",
"26 -24 OFFCURVE",
"46 -39 CURVE",
"62 -50 OFFCURVE",
"78 -59 OFFCURVE",
"99 -68 CURVE",
"122 -76 OFFCURVE",
"126 -69 OFFCURVE",
"131 -44 CURVE",
"138 12 OFFCURVE",
"150 98 OFFCURVE",
"165 194 CURVE SMOOTH",
"172 242 OFFCURVE",
"180 292 OFFCURVE",
"189 343 CURVE SMOOTH",
"197 394 OFFCURVE",
"205 443 OFFCURVE",
"213 490 CURVE SMOOTH",
"228 584 OFFCURVE",
"243 667 OFFCURVE",
"252 716 CURVE",
"259 744 OFFCURVE",
"256 755 OFFCURVE",
"233 774 CURVE"
);
}
);
width = 358;
}
);
note = bar;
unicode = 007C;
},
{
glyphname = braceright;
layers = (
{
layerId = "A436FB16-7E3F-4A25-90BC-0079C9B35420";
name = Regular;
paths = (
{
closed = 1;
nodes = (
"265 655 OFFCURVE",
"265 668 OFFCURVE",
"250 691 CURVE",
"239 710 OFFCURVE",
"229 724 OFFCURVE",
"218 739 CURVE SMOOTH",
"205 758 OFFCURVE",
"195 764 OFFCURVE",
"172 761 CURVE",
"128 757 OFFCURVE",
"88 752 OFFCURVE",
"57 744 CURVE SMOOTH",
"41 740 OFFCURVE",
"27 729 OFFCURVE",
"34 706 CURVE SMOOTH",
"41 683 OFFCURVE",
"46 663 OFFCURVE",
"57 640 CURVE SMOOTH",
"68 616 OFFCURVE",
"77 610 OFFCURVE",
"101 613 CURVE",
"106 614 OFFCURVE",
"112 615 OFFCURVE",
"117 616 CURVE SMOOTH",
"122 617 OFFCURVE",
"128 617 OFFCURVE",
"133 618 CURVE",
"120 546 OFFCURVE",
"105 460 OFFCURVE",
"90 373 CURVE SMOOTH",
"75 285 OFFCURVE",
"61 197 OFFCURVE",
"52 125 CURVE",
"11 117 OFFCURVE",
"-36 107 OFFCURVE",
"-41 88 CURVE",
"-44 80 OFFCURVE",
"-38 62 OFFCURVE",
"-31 45 CURVE SMOOTH",
"-24 28 OFFCURVE",
"-15 10 OFFCURVE",
"-10 1 CURVE",
"1 -15 OFFCURVE",
"10 -23 OFFCURVE",
"33 -18 CURVE SMOOTH",
"47 -15 OFFCURVE",
"62 -12 OFFCURVE",
"77 -9 CURVE SMOOTH",
"92 -6 OFFCURVE",
"107 -3 OFFCURVE",
"122 0 CURVE",
"151 1 OFFCURVE",
"157 15 OFFCURVE",
"160 34 CURVE SMOOTH",
"169 102 OFFCURVE",
"182 186 OFFCURVE",
"197 278 CURVE",
"208 282 OFFCURVE",
"220 285 OFFCURVE",
"233 286 CURVE SMOOTH",
"257 288 OFFCURVE",
"278 290 OFFCURVE",
"287 301 CURVE SMOOTH",
"291 306 OFFCURVE",
"291 316 OFFCURVE",
"286 329 CURVE",
"283 341 OFFCURVE",
"280 353 OFFCURVE",
"277 366 CURVE SMOOTH",
"271 391 OFFCURVE",
"262 436 OFFCURVE",
"223 436 CURVE",
"238 508 OFFCURVE",
"250 575 OFFCURVE",
"261 631 CURVE SMOOTH"
);
}
);
width = 377;
}
);
note = braceright;
unicode = 007D;
},
{
glyphname = asciitilde;
layers = (
{
layerId = "A436FB16-7E3F-4A25-90BC-0079C9B35420";
name = Regular;
paths = (
{
closed = 1;
nodes = (
"379 511 OFFCURVE",
"476 603 OFFCURVE",
"476 655 CURVE SMOOTH",
"476 680 OFFCURVE",
"447 697 OFFCURVE",
"424 697 CURVE SMOOTH",
"411 697 OFFCURVE",
"397 690 OFFCURVE",
"384 677 CURVE",
"380 672 OFFCURVE",
"370 658 OFFCURVE",
"360 646 CURVE SMOOTH",
"350 634 OFFCURVE",
"339 623 OFFCURVE",
"334 624 CURVE",
"317 625 OFFCURVE",
"299 636 OFFCURVE",
"282 646 CURVE SMOOTH",
"273 651 OFFCURVE",
"265 656 OFFCURVE",
"257 661 CURVE",
"248 666 OFFCURVE",
"240 670 OFFCURVE",
"232 673 CURVE",
"204 686 OFFCURVE",
"178 693 OFFCURVE",
"155 693 CURVE SMOOTH",
"134 693 OFFCURVE",
"99 677 OFFCURVE",
"68 656 CURVE SMOOTH",
"37 635 OFFCURVE",
"9 610 OFFCURVE",
"0 590 CURVE SMOOTH",
"-6 577 OFFCURVE",
"-9 565 OFFCURVE",
"-9 554 CURVE SMOOTH",
"-9 527 OFFCURVE",
"6 514 OFFCURVE",
"35 514 CURVE SMOOTH",
"51 514 OFFCURVE",
"65 519 OFFCURVE",
"77 529 CURVE",
"78 529 OFFCURVE",
"80 531 OFFCURVE",
"85 536 CURVE SMOOTH",
"94 545 OFFCURVE",
"107 559 OFFCURVE",
"120 568 CURVE",
"126 573 OFFCURVE",
"132 575 OFFCURVE",
"137 575 CURVE SMOOTH",
"149 575 OFFCURVE",
"169 571 OFFCURVE",
"189 564 CURVE SMOOTH",
"208 557 OFFCURVE",
"226 549 OFFCURVE",
"235 540 CURVE SMOOTH",
"254 521 OFFCURVE",
"285 511 OFFCURVE",
"327 511 CURVE SMOOTH"
);
}
);
width = 495;
}
);
note = asciitilde;
unicode = 007E;
},
{
glyphname = quotesinglbase;
layers = (
{
layerId = "A436FB16-7E3F-4A25-90BC-0079C9B35420";
name = Regular;
paths = (
{
closed = 1;
nodes = (
"155 -80 OFFCURVE",
"162 -48 OFFCURVE",
"169 -15 CURVE SMOOTH",
"176 18 OFFCURVE",
"181 55 OFFCURVE",
"184 83 CURVE",
"185 111 OFFCURVE",
"185 126 OFFCURVE",
"166 146 CURVE SMOOTH",
"153 159 OFFCURVE",
"136 171 OFFCURVE",
"119 180 CURVE SMOOTH",
"99 191 OFFCURVE",
"88 189 OFFCURVE",
"85 161 CURVE SMOOTH",
"81 124 OFFCURVE",
"75 71 OFFCURVE",
"68 20 CURVE SMOOTH",
"64 -6 OFFCURVE",
"60 -31 OFFCURVE",
"57 -54 CURVE SMOOTH",
"54 -78 OFFCURVE",
"51 -98 OFFCURVE",
"48 -114 CURVE SMOOTH",
"40 -159 OFFCURVE",
"93 -149 OFFCURVE",
"116 -140 CURVE",
"131 -133 OFFCURVE",
"139 -123 OFFCURVE",
"148 -100 CURVE"
);
}
);
width = 232;
}
);
note = quotesinglbase;
unicode = 201A;
},
{
glyphname = florin;
layers = (
{
layerId = "A436FB16-7E3F-4A25-90BC-0079C9B35420";
name = Regular;
paths = (
{
closed = 1;
nodes = (
"5 430 OFFCURVE",
"43 376 OFFCURVE",
"82 328 CURVE SMOOTH",
"102 305 OFFCURVE",
"120 300 OFFCURVE",
"149 305 CURVE",
"158 306 OFFCURVE",
"166 308 OFFCURVE",
"175 309 CURVE SMOOTH",
"183 310 OFFCURVE",
"191 312 OFFCURVE",
"200 313 CURVE",
"199 302 OFFCURVE",
"198 292 OFFCURVE",
"197 281 CURVE",
"196 260 OFFCURVE",
"195 251 OFFCURVE",
"191 227 CURVE SMOOTH",
"189 214 OFFCURVE",
"187 201 OFFCURVE",
"185 187 CURVE",
"182 172 OFFCURVE",
"180 159 OFFCURVE",
"178 147 CURVE SMOOTH",
"176 134 OFFCURVE",
"175 127 OFFCURVE",
"175 126 CURVE",
"164 83 OFFCURVE",
"152 48 OFFCURVE",
"141 21 CURVE SMOOTH",
"118 -33 OFFCURVE",
"93 -23 OFFCURVE",
"89 6 CURVE",
"86 20 OFFCURVE",
"84 43 OFFCURVE",
"83 75 CURVE SMOOTH",
"82 124 OFFCURVE",
"57 163 OFFCURVE",
"9 191 CURVE",
"-20 210 OFFCURVE",
"-31 186 OFFCURVE",
"-38 143 CURVE",
"-45 86 OFFCURVE",
"-45 44 OFFCURVE",
"-33 1 CURVE SMOOTH",
"-18 -59 OFFCURVE",
"11 -112 OFFCURVE",
"80 -136 CURVE SMOOTH",
"147 -160 OFFCURVE",
"187 -141 OFFCURVE",
"218 -113 CURVE SMOOTH",
"253 -80 OFFCURVE",
"276 -33 OFFCURVE",
"296 37 CURVE SMOOTH",
"315 107 OFFCURVE",
"329 199 OFFCURVE",
"345 330 CURVE",
"390 333 OFFCURVE",
"435 335 OFFCURVE",
"478 338 CURVE",
"509 339 OFFCURVE",
"520 345 OFFCURVE",
"512 369 CURVE SMOOTH",
"509 378 OFFCURVE",
"505 389 OFFCURVE",
"502 400 CURVE SMOOTH",
"499 411 OFFCURVE",
"493 422 OFFCURVE",
"486 434 CURVE",
"475 455 OFFCURVE",
"455 465 OFFCURVE",
"426 465 CURVE SMOOTH",
"415 465 OFFCURVE",
"404 465 OFFCURVE",
"393 465 CURVE SMOOTH",
"382 465 OFFCURVE",
"371 465 OFFCURVE",
"360 464 CURVE",
"361 474 OFFCURVE",
"363 484 OFFCURVE",
"364 495 CURVE SMOOTH",
"366 515 OFFCURVE",
"368 534 OFFCURVE",
"369 546 CURVE",
"370 552 OFFCURVE",
"370 555 OFFCURVE",
"370 556 CURVE",
"381 600 OFFCURVE",
"393 636 OFFCURVE",
"404 664 CURVE SMOOTH",
"427 719 OFFCURVE",
"452 708 OFFCURVE",
"457 680 CURVE",
"459 665 OFFCURVE",
"461 642 OFFCURVE",
"462 610 CURVE SMOOTH",
"463 561 OFFCURVE",
"488 522 OFFCURVE",
"536 494 CURVE",
"565 475 OFFCURVE",
"576 499 OFFCURVE",
"583 542 CURVE",
"590 599 OFFCURVE",
"590 641 OFFCURVE",
"578 684 CURVE SMOOTH",
"563 744 OFFCURVE",
"534 797 OFFCURVE",
"465 821 CURVE SMOOTH",
"398 845 OFFCURVE",
"358 826 OFFCURVE",
"327 798 CURVE SMOOTH",
"298 770 OFFCURVE",
"276 732 OFFCURVE",
"258 677 CURVE SMOOTH",
"240 621 OFFCURVE",
"227 550 OFFCURVE",
"215 455 CURVE",
"158 450 OFFCURVE",
"107 445 OFFCURVE",
"68 438 CURVE"
);
}
);
width = 623;
}
);
note = florin;
unicode = 0192;
},
{
glyphname = quotedblbase;
layers = (
{
layerId = "A436FB16-7E3F-4A25-90BC-0079C9B35420";
name = Regular;
paths = (
{
closed = 1;
nodes = (
"155 -76 OFFCURVE",
"162 -44 OFFCURVE",
"169 -11 CURVE SMOOTH",
"176 22 OFFCURVE",
"181 59 OFFCURVE",
"184 87 CURVE",
"185 115 OFFCURVE",
"185 130 OFFCURVE",
"166 150 CURVE SMOOTH",
"153 163 OFFCURVE",
"136 175 OFFCURVE",
"119 184 CURVE SMOOTH",
"99 195 OFFCURVE",
"88 193 OFFCURVE",
"85 165 CURVE SMOOTH",
"81 128 OFFCURVE",
"75 75 OFFCURVE",
"68 24 CURVE SMOOTH",
"64 -2 OFFCURVE",
"60 -27 OFFCURVE",
"57 -50 CURVE SMOOTH",
"54 -74 OFFCURVE",
"51 -94 OFFCURVE",
"48 -110 CURVE SMOOTH",
"40 -155 OFFCURVE",
"96 -145 OFFCURVE",
"116 -136 CURVE SMOOTH",
"131 -129 OFFCURVE",
"139 -119 OFFCURVE",
"148 -96 CURVE"
);
},
{
closed = 1;
nodes = (
"304 -87 OFFCURVE",
"319 -44 OFFCURVE",
"331 -3 CURVE SMOOTH",
"342 38 OFFCURVE",
"349 79 OFFCURVE",
"348 99 CURVE SMOOTH",
"347 119 OFFCURVE",
"330 138 OFFCURVE",
"315 151 CURVE",
"299 163 OFFCURVE",
"265 205 OFFCURVE",
"254 156 CURVE SMOOTH",
"247 119 OFFCURVE",
"236 68 OFFCURVE",
"224 19 CURVE SMOOTH",
"212 -30 OFFCURVE",
"199 -79 OFFCURVE",
"191 -108 CURVE",
"184 -130 OFFCURVE",
"190 -142 OFFCURVE",
"210 -144 CURVE",
"227 -148 OFFCURVE",
"243 -148 OFFCURVE",
"256 -143 CURVE",
"272 -140 OFFCURVE",
"281 -129 OFFCURVE",
"292 -108 CURVE"
);
}
);
width = 384;
}
);
note = quotedblbase;
unicode = 201E;
},
{
glyphname = ellipsis;
layers = (
{
layerId = "A436FB16-7E3F-4A25-90BC-0079C9B35420";
name = Regular;
paths = (
{
closed = 1;
nodes = (
"506 12 OFFCURVE",
"543 -28 OFFCURVE",
"583 -25 CURVE",
"603 -25 OFFCURVE",
"619 -13 OFFCURVE",
"630 1 CURVE SMOOTH",
"641 15 OFFCURVE",
"648 32 OFFCURVE",
"651 44 CURVE SMOOTH",
"653 53 OFFCURVE",
"654 62 OFFCURVE",
"654 73 CURVE SMOOTH",
"654 94 OFFCURVE",
"647 116 OFFCURVE",
"632 133 CURVE SMOOTH",
"617 150 OFFCURVE",
"589 163 OFFCURVE",
"567 158 CURVE SMOOTH",
"545 153 OFFCURVE",
"528 136 OFFCURVE",
"518 112 CURVE SMOOTH",
"513 100 OFFCURVE",
"510 87 OFFCURVE",
"509 73 CURVE SMOOTH"
);
},
{
closed = 1;
nodes = (
"241 12 OFFCURVE",
"278 -28 OFFCURVE",
"318 -25 CURVE",
"338 -25 OFFCURVE",
"354 -13 OFFCURVE",
"365 1 CURVE SMOOTH",
"376 15 OFFCURVE",
"383 32 OFFCURVE",
"386 44 CURVE SMOOTH",
"388 53 OFFCURVE",
"389 62 OFFCURVE",
"389 73 CURVE SMOOTH",
"389 94 OFFCURVE",
"382 116 OFFCURVE",
"367 133 CURVE SMOOTH",
"352 150 OFFCURVE",
"324 163 OFFCURVE",
"302 158 CURVE SMOOTH",
"280 153 OFFCURVE",
"263 136 OFFCURVE",
"253 112 CURVE SMOOTH",
"248 100 OFFCURVE",
"245 87 OFFCURVE",
"244 73 CURVE SMOOTH"
);
},
{
closed = 1;
nodes = (
"-22 12 OFFCURVE",
"12 -28 OFFCURVE",
"53 -25 CURVE",
"73 -25 OFFCURVE",
"89 -13 OFFCURVE",
"100 1 CURVE SMOOTH",
"111 15 OFFCURVE",
"118 32 OFFCURVE",
"121 44 CURVE SMOOTH",
"123 53 OFFCURVE",
"124 62 OFFCURVE",
"124 73 CURVE SMOOTH",
"124 94 OFFCURVE",
"117 116 OFFCURVE",
"102 133 CURVE SMOOTH",
"87 150 OFFCURVE",
"59 163 OFFCURVE",
"37 158 CURVE SMOOTH",
"15 153 OFFCURVE",
"-2 136 OFFCURVE",
"-11 112 CURVE SMOOTH",
"-16 99 OFFCURVE",
"-18 86 OFFCURVE",
"-19 73 CURVE SMOOTH"
);
}
);
width = 751;
}
);
note = ellipsis;
unicode = 2026;
},
{
glyphname = dagger;
layers = (
{
layerId = "A436FB16-7E3F-4A25-90BC-0079C9B35420";
name = Regular;
paths = (
{
closed = 1;
nodes = (
"-72 541 OFFCURVE",
"-34 487 OFFCURVE",
"5 439 CURVE SMOOTH",
"25 416 OFFCURVE",
"43 411 OFFCURVE",
"72 416 CURVE SMOOTH",
"78 417 OFFCURVE",
"84 418 OFFCURVE",
"91 419 CURVE SMOOTH",
"97 420 OFFCURVE",
"103 421 OFFCURVE",
"109 422 CURVE",
"105 389 OFFCURVE",
"101 356 OFFCURVE",
"97 323 CURVE SMOOTH",
"89 258 OFFCURVE",
"82 198 OFFCURVE",
"77 148 CURVE SMOOTH",
"72 98 OFFCURVE",
"69 62 OFFCURVE",
"75 43 CURVE SMOOTH",
"81 23 OFFCURVE",
"103 8 OFFCURVE",
"124 -1 CURVE SMOOTH",
"145 -10 OFFCURVE",
"172 -23 OFFCURVE",
"180 -16 CURVE",
"184 -13 OFFCURVE",
"187 -5 OFFCURVE",
"189 6 CURVE",
"193 34 OFFCURVE",
"197 66 OFFCURVE",
"202 101 CURVE SMOOTH",
"211 171 OFFCURVE",
"223 247 OFFCURVE",
"235 325 CURVE SMOOTH",
"241 364 OFFCURVE",
"247 402 OFFCURVE",
"253 439 CURVE",
"278 442 OFFCURVE",
"303 444 OFFCURVE",
"328 445 CURVE SMOOTH",
"353 446 OFFCURVE",
"377 448 OFFCURVE",
"401 449 CURVE SMOOTH",
"432 450 OFFCURVE",
"443 456 OFFCURVE",
"435 480 CURVE SMOOTH",
"432 489 OFFCURVE",
"428 500 OFFCURVE",
"425 511 CURVE SMOOTH",
"422 522 OFFCURVE",
"416 533 OFFCURVE",
"409 545 CURVE",
"398 566 OFFCURVE",
"378 576 OFFCURVE",
"349 576 CURVE SMOOTH",
"326 576 OFFCURVE",
"302 575 OFFCURVE",
"277 574 CURVE",
"282 602 OFFCURVE",
"287 627 OFFCURVE",
"292 649 CURVE",
"297 677 OFFCURVE",
"295 688 OFFCURVE",
"272 707 CURVE",
"251 726 OFFCURVE",
"220 744 OFFCURVE",
"196 752 CURVE",
"172 761 OFFCURVE",
"162 756 OFFCURVE",
"155 727 CURVE",
"151 706 OFFCURVE",
"147 682 OFFCURVE",
"143 655 CURVE SMOOTH",
"138 627 OFFCURVE",
"133 597 OFFCURVE",
"128 565 CURVE",
"75 560 OFFCURVE",
"27 554 OFFCURVE",
"-9 549 CURVE SMOOTH"
);
}
);
width = 440;
}
);
note = dagger;
unicode = 2020;
},
{
glyphname = daggerdbl;
layers = (
{
layerId = "A436FB16-7E3F-4A25-90BC-0079C9B35420";
name = Regular;
paths = (
{
closed = 1;
nodes = (
"-68 269 OFFCURVE",
"-30 215 OFFCURVE",
"9 167 CURVE SMOOTH",
"29 144 OFFCURVE",
"47 139 OFFCURVE",
"76 144 CURVE SMOOTH",
"82 145 OFFCURVE",
"88 146 OFFCURVE",
"95 147 CURVE SMOOTH",
"101 148 OFFCURVE",
"107 149 OFFCURVE",
"114 150 CURVE",
"113 137 OFFCURVE",
"112 125 OFFCURVE",
"111 114 CURVE SMOOTH",
"110 103 OFFCURVE",
"110 92 OFFCURVE",
"109 83 CURVE SMOOTH",
"106 48 OFFCURVE",
"111 32 OFFCURVE",
"131 17 CURVE SMOOTH",
"150 2 OFFCURVE",
"171 -6 OFFCURVE",
"194 -15 CURVE",
"217 -23 OFFCURVE",
"222 -17 OFFCURVE",
"226 6 CURVE SMOOTH",
"233 51 OFFCURVE",
"240 107 OFFCURVE",
"248 167 CURVE",
"301 171 OFFCURVE",
"354 174 OFFCURVE",
"405 177 CURVE SMOOTH",
"436 178 OFFCURVE",
"447 184 OFFCURVE",
"439 208 CURVE SMOOTH",
"436 217 OFFCURVE",
"432 228 OFFCURVE",
"429 239 CURVE SMOOTH",
"426 250 OFFCURVE",
"420 261 OFFCURVE",
"413 273 CURVE",
"402 294 OFFCURVE",
"382 304 OFFCURVE",
"353 304 CURVE SMOOTH",
"326 304 OFFCURVE",
"297 303 OFFCURVE",
"268 302 CURVE",
"271 325 OFFCURVE",
"275 349 OFFCURVE",
"279 372 CURVE SMOOTH",
"283 395 OFFCURVE",
"287 417 OFFCURVE",
"290 439 CURVE",
"315 442 OFFCURVE",
"340 444 OFFCURVE",
"365 445 CURVE SMOOTH",
"390 446 OFFCURVE",
"414 448 OFFCURVE",
"438 449 CURVE SMOOTH",
"469 450 OFFCURVE",
"480 456 OFFCURVE",
"472 480 CURVE SMOOTH",
"469 489 OFFCURVE",
"465 500 OFFCURVE",
"462 511 CURVE SMOOTH",
"459 522 OFFCURVE",
"453 533 OFFCURVE",
"446 545 CURVE",
"435 566 OFFCURVE",
"415 576 OFFCURVE",
"386 576 CURVE SMOOTH",
"363 576 OFFCURVE",
"339 575 OFFCURVE",
"314 574 CURVE",
"319 602 OFFCURVE",
"324 627 OFFCURVE",
"329 649 CURVE",
"334 677 OFFCURVE",
"332 688 OFFCURVE",
"309 707 CURVE",
"288 726 OFFCURVE",
"257 744 OFFCURVE",
"233 752 CURVE",
"209 761 OFFCURVE",
"199 756 OFFCURVE",
"192 727 CURVE",
"188 706 OFFCURVE",
"184 682 OFFCURVE",
"180 655 CURVE SMOOTH",
"175 627 OFFCURVE",
"170 597 OFFCURVE",
"165 565 CURVE",
"112 560 OFFCURVE",
"64 554 OFFCURVE",
"28 549 CURVE SMOOTH",
"-35 541 OFFCURVE",
"3 487 OFFCURVE",
"42 439 CURVE SMOOTH",
"62 416 OFFCURVE",
"80 411 OFFCURVE",
"109 416 CURVE SMOOTH",
"115 417 OFFCURVE",
"121 418 OFFCURVE",
"128 419 CURVE SMOOTH",
"134 420 OFFCURVE",
"140 421 OFFCURVE",
"146 422 CURVE",
"143 400 OFFCURVE",
"140 378 OFFCURVE",
"138 357 CURVE",
"135 335 OFFCURVE",
"133 314 OFFCURVE",
"130 293 CURVE",
"77 288 OFFCURVE",
"30 282 OFFCURVE",
"-5 277 CURVE SMOOTH"
);
}
);
width = 489;
}
);
note = daggerdbl;
unicode = 2021;
},
{
glyphname = circumflex;
layers = (
{
layerId = "A436FB16-7E3F-4A25-90BC-0079C9B35420";
name = Regular;
paths = (
{
closed = 1;
nodes = (
"340 830 OFFCURVE",
"345 837 OFFCURVE",
"342 850 CURVE SMOOTH",
"339 863 OFFCURVE",
"336 877 OFFCURVE",
"333 893 CURVE",
"325 925 OFFCURVE",
"319 962 OFFCURVE",
"312 999 CURVE SMOOTH",
"309 1017 OFFCURVE",
"306 1034 OFFCURVE",
"304 1051 CURVE SMOOTH",
"301 1072 OFFCURVE",
"298 1078 OFFCURVE",
"290 1090 CURVE",
"285 1095 OFFCURVE",
"281 1100 OFFCURVE",
"276 1104 CURVE SMOOTH",
"271 1108 OFFCURVE",
"265 1113 OFFCURVE",
"260 1118 CURVE",
"249 1126 OFFCURVE",
"243 1127 OFFCURVE",
"232 1112 CURVE SMOOTH",
"211 1085 OFFCURVE",
"189 1054 OFFCURVE",
"170 1023 CURVE SMOOTH",
"151 991 OFFCURVE",
"134 961 OFFCURVE",
"123 940 CURVE SMOOTH",
"111 917 OFFCURVE",
"128 896 OFFCURVE",
"136 885 CURVE",
"143 874 OFFCURVE",
"152 860 OFFCURVE",
"159 860 CURVE SMOOTH",
"162 860 OFFCURVE",
"166 863 OFFCURVE",
"169 869 CURVE",
"190 904 OFFCURVE",
"215 944 OFFCURVE",
"244 985 CURVE",
"249 961 OFFCURVE",
"254 938 OFFCURVE",
"258 917 CURVE SMOOTH",
"266 874 OFFCURVE",
"273 842 OFFCURVE",
"294 837 CURVE",
"307 832 OFFCURVE",
"318 831 OFFCURVE",
"329 831 CURVE"
);
}
);
width = 447;
}
);
note = circumflex;
unicode = 02C6;
},
{
glyphname = perthousand;
layers = (
{
layerId = "A436FB16-7E3F-4A25-90BC-0079C9B35420";
name = Regular;
paths = (
{
closed = 1;
nodes = (
"482 649 OFFCURVE",
"474 687 OFFCURVE",
"451 722 CURVE",
"439 742 OFFCURVE",
"427 743 OFFCURVE",
"416 726 CURVE SMOOTH",
"395 694 OFFCURVE",
"369 671 OFFCURVE",
"343 656 CURVE SMOOTH",
"317 640 OFFCURVE",
"292 633 OFFCURVE",
"273 636 CURVE",
"250 638 OFFCURVE",
"232 650 OFFCURVE",
"220 673 CURVE SMOOTH",
"211 690 OFFCURVE",
"203 703 OFFCURVE",
"196 714 CURVE",
"181 730 OFFCURVE",
"162 741 OFFCURVE",
"138 748 CURVE SMOOTH",
"123 752 OFFCURVE",
"101 746 OFFCURVE",
"86 733 CURVE",
"54 701 OFFCURVE",
"31 648 OFFCURVE",
"19 593 CURVE SMOOTH",
"7 537 OFFCURVE",
"8 479 OFFCURVE",
"24 436 CURVE",
"33 417 OFFCURVE",
"45 397 OFFCURVE",
"57 386 CURVE SMOOTH",
"72 373 OFFCURVE",
"93 365 OFFCURVE",
"110 360 CURVE",
"161 351 OFFCURVE",
"189 390 OFFCURVE",
"203 421 CURVE SMOOTH",
"217 452 OFFCURVE",
"225 488 OFFCURVE",
"229 526 CURVE SMOOTH",
"231 545 OFFCURVE",
"232 563 OFFCURVE",
"232 581 CURVE",
"265 566 OFFCURVE",
"303 571 OFFCURVE",
"335 595 CURVE",
"288 516 OFFCURVE",
"236 424 OFFCURVE",
"189 337 CURVE SMOOTH",
"142 249 OFFCURVE",
"101 170 OFFCURVE",
"77 119 CURVE SMOOTH",
"54 67 OFFCURVE",
"65 37 OFFCURVE",
"89 8 CURVE",
"104 -5 OFFCURVE",
"109 -9 OFFCURVE",
"120 8 CURVE",
"141 53 OFFCURVE",
"177 121 OFFCURVE",
"218 196 CURVE SMOOTH",
"259 271 OFFCURVE",
"305 353 OFFCURVE",
"349 427 CURVE SMOOTH",
"392 501 OFFCURVE",
"431 567 OFFCURVE",
"458 610 CURVE SMOOTH"
);
},
{
closed = 1;
nodes = (
"494 305 OFFCURVE",
"485 329 OFFCURVE",
"468 348 CURVE SMOOTH",
"456 361 OFFCURVE",
"433 375 OFFCURVE",
"412 382 CURVE",
"396 386 OFFCURVE",
"373 380 OFFCURVE",
"358 367 CURVE",
"315 327 OFFCURVE",
"290 255 OFFCURVE",
"283 185 CURVE SMOOTH",
"275 115 OFFCURVE",
"288 48 OFFCURVE",
"323 20 CURVE",
"338 7 OFFCURVE",
"357 0 OFFCURVE",
"376 -4 CURVE SMOOTH",
"425 -16 OFFCURVE",
"453 25 OFFCURVE",
"468 55 CURVE SMOOTH",
"483 85 OFFCURVE",
"493 120 OFFCURVE",
"498 157 CURVE SMOOTH",
"500 176 OFFCURVE",
"501 194 OFFCURVE",
"501 212 CURVE SMOOTH",
"501 237 OFFCURVE",
"500 260 OFFCURVE",
"497 281 CURVE SMOOTH"
);
},
{
closed = 1;
nodes = (
"749 304 OFFCURVE",
"740 328 OFFCURVE",
"723 347 CURVE SMOOTH",
"711 360 OFFCURVE",
"688 374 OFFCURVE",
"667 381 CURVE",
"651 385 OFFCURVE",
"628 379 OFFCURVE",
"613 366 CURVE",
"570 326 OFFCURVE",
"545 254 OFFCURVE",
"538 184 CURVE SMOOTH",
"530 114 OFFCURVE",
"543 47 OFFCURVE",
"578 19 CURVE",
"593 6 OFFCURVE",
"612 -1 OFFCURVE",
"631 -5 CURVE SMOOTH",
"680 -17 OFFCURVE",
"708 24 OFFCURVE",
"723 54 CURVE SMOOTH",
"738 84 OFFCURVE",
"748 119 OFFCURVE",
"753 156 CURVE SMOOTH",
"755 175 OFFCURVE",
"756 193 OFFCURVE",
"756 211 CURVE SMOOTH",
"756 236 OFFCURVE",
"755 259 OFFCURVE",
"752 280 CURVE SMOOTH"
);
},
{
closed = 1;
nodes = (
"679 304 OFFCURVE",
"681 298 OFFCURVE",
"683 289 CURVE",
"686 270 OFFCURVE",
"685 243 OFFCURVE",
"682 212 CURVE SMOOTH",
"680 196 OFFCURVE",
"677 181 OFFCURVE",
"674 167 CURVE SMOOTH",
"667 130 OFFCURVE",
"658 103 OFFCURVE",
"648 84 CURVE SMOOTH",
"628 47 OFFCURVE",
"608 57 OFFCURVE",
"608 108 CURVE SMOOTH",
"608 136 OFFCURVE",
"612 167 OFFCURVE",
"621 201 CURVE",
"626 226 OFFCURVE",
"636 255 OFFCURVE",
"647 276 CURVE",
"652 287 OFFCURVE",
"658 295 OFFCURVE",
"663 301 CURVE",
"668 306 OFFCURVE",
"673 308 OFFCURVE",
"676 306 CURVE SMOOTH"
);
},
{
closed = 1;
nodes = (
"424 305 OFFCURVE",
"426 299 OFFCURVE",
"428 290 CURVE",
"431 271 OFFCURVE",
"430 244 OFFCURVE",
"427 213 CURVE SMOOTH",
"425 197 OFFCURVE",
"422 182 OFFCURVE",
"419 168 CURVE SMOOTH",
"412 131 OFFCURVE",
"403 104 OFFCURVE",
"393 85 CURVE SMOOTH",
"373 48 OFFCURVE",
"353 58 OFFCURVE",
"353 109 CURVE SMOOTH",
"353 137 OFFCURVE",
"357 168 OFFCURVE",
"366 202 CURVE",
"371 227 OFFCURVE",
"381 256 OFFCURVE",
"392 277 CURVE",
"397 288 OFFCURVE",
"403 296 OFFCURVE",
"408 302 CURVE",
"413 307 OFFCURVE",
"418 309 OFFCURVE",
"421 307 CURVE SMOOTH"
);
},
{
closed = 1;
nodes = (
"153 671 OFFCURVE",
"156 666 OFFCURVE",
"157 657 CURVE SMOOTH",
"158 648 OFFCURVE",
"159 637 OFFCURVE",
"159 624 CURVE SMOOTH",
"159 599 OFFCURVE",
"155 567 OFFCURVE",
"151 535 CURVE",
"144 497 OFFCURVE",
"136 469 OFFCURVE",
"127 451 CURVE SMOOTH",
"108 415 OFFCURVE",
"87 424 OFFCURVE",
"87 476 CURVE",
"86 501 OFFCURVE",
"89 532 OFFCURVE",
"96 568 CURVE SMOOTH",
"101 593 OFFCURVE",
"112 622 OFFCURVE",
"122 643 CURVE SMOOTH",
"127 653 OFFCURVE",
"132 661 OFFCURVE",
"137 667 CURVE SMOOTH",
"142 673 OFFCURVE",
"146 675 OFFCURVE",
"149 673 CURVE"
);
}
);
width = 825;
}
);
note = perthousand;
unicode = 2030;
},
{
glyphname = Scaron;
layers = (
{
layerId = "A436FB16-7E3F-4A25-90BC-0079C9B35420";
name = Regular;
paths = (
{
closed = 1;
nodes = (
"-57 188 OFFCURVE",
"-61 179 OFFCURVE",
"-61 167 CURVE SMOOTH",
"-61 156 OFFCURVE",
"-52 138 OFFCURVE",
"-34 113 CURVE SMOOTH",
"34 13 OFFCURVE",
"99 -23 OFFCURVE",
"171 -20 CURVE SMOOTH",
"224 -19 OFFCURVE",
"262 2 OFFCURVE",
"287 30 CURVE SMOOTH",
"312 57 OFFCURVE",
"327 90 OFFCURVE",
"335 118 CURVE",
"354 174 OFFCURVE",
"328 218 OFFCURVE",
"289 259 CURVE SMOOTH",
"269 280 OFFCURVE",
"247 300 OFFCURVE",
"223 321 CURVE SMOOTH",
"174 362 OFFCURVE",
"138 403 OFFCURVE",
"139 450 CURVE SMOOTH",
"140 497 OFFCURVE",
"158 543 OFFCURVE",
"183 579 CURVE SMOOTH",
"195 597 OFFCURVE",
"206 610 OFFCURVE",
"216 617 CURVE",
"227 628 OFFCURVE",
"233 629 OFFCURVE",
"236 622 CURVE",
"240 607 OFFCURVE",
"236 572 OFFCURVE",
"229 532 CURVE SMOOTH",
"225 511 OFFCURVE",
"223 494 OFFCURVE",
"222 480 CURVE SMOOTH",
"218 432 OFFCURVE",
"245 394 OFFCURVE",
"302 366 CURVE",
"322 355 OFFCURVE",
"331 361 OFFCURVE",
"339 385 CURVE SMOOTH",
"347 410 OFFCURVE",
"355 447 OFFCURVE",
"361 484 CURVE SMOOTH",
"367 520 OFFCURVE",
"372 558 OFFCURVE",
"373 587 CURVE",
"372 620 OFFCURVE",
"371 660 OFFCURVE",
"338 699 CURVE SMOOTH",
"314 728 OFFCURVE",
"275 753 OFFCURVE",
"240 769 CURVE",
"217 778 OFFCURVE",
"196 779 OFFCURVE",
"178 775 CURVE SMOOTH",
"160 771 OFFCURVE",
"144 761 OFFCURVE",
"135 752 CURVE",
"107 729 OFFCURVE",
"78 694 OFFCURVE",
"54 655 CURVE SMOOTH",
"30 615 OFFCURVE",
"11 571 OFFCURVE",
"3 534 CURVE",
"-21 442 OFFCURVE",
"4 363 OFFCURVE",
"49 311 CURVE",
"64 292 OFFCURVE",
"82 274 OFFCURVE",
"103 255 CURVE SMOOTH",
"144 218 OFFCURVE",
"180 184 OFFCURVE",
"199 159 CURVE",
"208 146 OFFCURVE",
"209 136 OFFCURVE",
"202 129 CURVE",
"190 115 OFFCURVE",
"171 113 OFFCURVE",
"144 123 CURVE SMOOTH",
"117 132 OFFCURVE",
"85 153 OFFCURVE",
"49 186 CURVE SMOOTH",
"24 210 OFFCURVE",
"-17 214 OFFCURVE",
"-48 195 CURVE"
);
},
{
closed = 1;
nodes = (
"122 1124 OFFCURVE",
"117 1117 OFFCURVE",
"120 1104 CURVE SMOOTH",
"125 1079 OFFCURVE",
"132 1046 OFFCURVE",
"140 1010 CURVE SMOOTH",
"147 974 OFFCURVE",
"154 936 OFFCURVE",
"158 903 CURVE SMOOTH",
"161 882 OFFCURVE",
"164 876 OFFCURVE",
"172 864 CURVE",
"177 859 OFFCURVE",
"182 854 OFFCURVE",
"187 850 CURVE SMOOTH",
"192 846 OFFCURVE",
"197 841 OFFCURVE",
"202 836 CURVE",
"213 828 OFFCURVE",
"219 827 OFFCURVE",
"230 842 CURVE",
"251 867 OFFCURVE",
"273 900 OFFCURVE",
"292 932 CURVE SMOOTH",
"311 963 OFFCURVE",
"328 993 OFFCURVE",
"339 1014 CURVE SMOOTH",
"351 1037 OFFCURVE",
"334 1058 OFFCURVE",
"327 1069 CURVE",
"319 1080 OFFCURVE",
"308 1094 OFFCURVE",
"303 1094 CURVE SMOOTH",
"299 1094 OFFCURVE",
"296 1091 OFFCURVE",
"293 1085 CURVE",
"272 1050 OFFCURVE",
"247 1010 OFFCURVE",
"218 969 CURVE",
"213 993 OFFCURVE",
"208 1016 OFFCURVE",
"204 1037 CURVE SMOOTH",
"196 1080 OFFCURVE",
"189 1112 OFFCURVE",
"168 1117 CURVE",
"155 1122 OFFCURVE",
"144 1123 OFFCURVE",
"133 1123 CURVE"
);
}
);
width = 401;
}
);
note = Scaron;
unicode = 0160;
},
{
glyphname = guilsinglleft;
layers = (
{
layerId = "A436FB16-7E3F-4A25-90BC-0079C9B35420";
name = Regular;
paths = (
{
closed = 1;
nodes = (
"277 458 OFFCURVE",
"279 468 OFFCURVE",
"266 488 CURVE",
"256 505 OFFCURVE",
"244 522 OFFCURVE",
"230 539 CURVE SMOOTH",
"219 552 OFFCURVE",
"210 557 OFFCURVE",
"199 555 CURVE SMOOTH",
"193 554 OFFCURVE",
"186 551 OFFCURVE",
"179 548 CURVE",
"171 544 OFFCURVE",
"161 539 OFFCURVE",
"150 534 CURVE",
"109 511 OFFCURVE",
"57 480 OFFCURVE",
"25 456 CURVE",
"10 448 OFFCURVE",
"4 432 OFFCURVE",
"0 413 CURVE SMOOTH",
"-2 403 OFFCURVE",
"-3 393 OFFCURVE",
"-4 383 CURVE SMOOTH",
"-5 372 OFFCURVE",
"-6 362 OFFCURVE",
"-7 353 CURVE",
"-11 341 OFFCURVE",
"-9 316 OFFCURVE",
"3 308 CURVE",
"71 271 OFFCURVE",
"140 233 OFFCURVE",
"200 190 CURVE",
"219 175 OFFCURVE",
"225 179 OFFCURVE",
"232 202 CURVE SMOOTH",
"236 217 OFFCURVE",
"239 236 OFFCURVE",
"241 260 CURVE",
"242 283 OFFCURVE",
"235 295 OFFCURVE",
"219 308 CURVE SMOOTH",
"194 327 OFFCURVE",
"160 348 OFFCURVE",
"121 371 CURVE",
"168 400 OFFCURVE",
"213 427 OFFCURVE",
"258 450 CURVE"
);
}
);
width = 348;
}
);
note = guilsinglleft;
unicode = 2039;
},
{
glyphname = OE;
layers = (
{
layerId = "A436FB16-7E3F-4A25-90BC-0079C9B35420";
name = Regular;
paths = (
{
closed = 1;
nodes = (
"193 768 OFFCURVE",
"151 752 OFFCURVE",
"124 724 CURVE SMOOTH",
"60 653 OFFCURVE",
"17 543 OFFCURVE",
"-3 429 CURVE SMOOTH",
"-24 315 OFFCURVE",
"-22 197 OFFCURVE",
"6 109 CURVE SMOOTH",
"18 72 OFFCURVE",
"43 42 OFFCURVE",
"66 23 CURVE SMOOTH",
"95 0 OFFCURVE",
"133 -10 OFFCURVE",
"166 -15 CURVE SMOOTH",
"213 -22 OFFCURVE",
"247 -12 OFFCURVE",
"280 21 CURVE",
"282 18 OFFCURVE",
"284 16 OFFCURVE",
"287 14 CURVE",
"289 12 OFFCURVE",
"291 10 OFFCURVE",
"294 7 CURVE SMOOTH",
"307 -6 OFFCURVE",
"322 -17 OFFCURVE",
"358 -4 CURVE",
"385 3 OFFCURVE",
"413 11 OFFCURVE",
"442 20 CURVE SMOOTH",
"471 29 OFFCURVE",
"500 37 OFFCURVE",
"528 45 CURVE SMOOTH",
"551 52 OFFCURVE",
"553 58 OFFCURVE",
"548 85 CURVE",
"541 109 OFFCURVE",
"536 131 OFFCURVE",
"525 156 CURVE",
"516 179 OFFCURVE",
"503 186 OFFCURVE",
"480 183 CURVE",
"437 179 OFFCURVE",
"402 174 OFFCURVE",
"362 163 CURVE",
"369 198 OFFCURVE",
"375 234 OFFCURVE",
"382 273 CURVE",
"407 280 OFFCURVE",
"432 287 OFFCURVE",
"459 294 CURVE SMOOTH",
"485 300 OFFCURVE",
"511 306 OFFCURVE",
"536 313 CURVE SMOOTH",
"559 320 OFFCURVE",
"563 325 OFFCURVE",
"556 353 CURVE",
"551 377 OFFCURVE",
"546 399 OFFCURVE",
"535 423 CURVE",
"526 446 OFFCURVE",
"514 451 OFFCURVE",
"491 450 CURVE SMOOTH",
"464 449 OFFCURVE",
"440 447 OFFCURVE",
"415 442 CURVE",
"422 472 OFFCURVE",
"428 501 OFFCURVE",
"433 528 CURVE SMOOTH",
"438 555 OFFCURVE",
"444 581 OFFCURVE",
"449 606 CURVE",
"505 617 OFFCURVE",
"556 624 OFFCURVE",
"603 631 CURVE SMOOTH",
"626 635 OFFCURVE",
"630 642 OFFCURVE",
"626 670 CURVE",
"621 694 OFFCURVE",
"618 712 OFFCURVE",
"607 737 CURVE",
"600 760 OFFCURVE",
"586 772 OFFCURVE",
"564 771 CURVE SMOOTH",
"477 766 OFFCURVE",
"389 743 OFFCURVE",
"321 720 CURVE",
"294 740 OFFCURVE",
"261 754 OFFCURVE",
"226 761 CURVE SMOOTH"
);
},
{
closed = 1;
nodes = (
"253 622 OFFCURVE",
"258 615 OFFCURVE",
"262 603 CURVE",
"269 578 OFFCURVE",
"272 540 OFFCURVE",
"271 494 CURVE SMOOTH",
"270 471 OFFCURVE",
"269 447 OFFCURVE",
"267 423 CURVE",
"257 347 LINE",
"257 346 OFFCURVE",
"257 344 OFFCURVE",
"257 343 CURVE",
"256 341 OFFCURVE",
"256 339 OFFCURVE",
"256 338 CURVE",
"244 267 OFFCURVE",
"226 206 OFFCURVE",
"207 164 CURVE SMOOTH",
"197 143 OFFCURVE",
"187 127 OFFCURVE",
"177 117 CURVE SMOOTH",
"156 97 OFFCURVE",
"135 106 OFFCURVE",
"126 145 CURVE SMOOTH",
"117 184 OFFCURVE",
"116 239 OFFCURVE",
"122 302 CURVE SMOOTH",
"128 365 OFFCURVE",
"139 417 OFFCURVE",
"158 476 CURVE SMOOTH",
"177 535 OFFCURVE",
"198 582 OFFCURVE",
"219 610 CURVE",
"230 623 OFFCURVE",
"239 628 OFFCURVE",
"247 625 CURVE"
);
}
);
width = 643;
}
);
note = OE;
unicode = 0152;
},
{
glyphname = quoteleft;
layers = (
{
layerId = "A436FB16-7E3F-4A25-90BC-0079C9B35420";
name = Regular;
paths = (
{
closed = 1;
nodes = (
"100 581 OFFCURVE",
"112 566 OFFCURVE",
"127 558 CURVE SMOOTH",
"140 551 OFFCURVE",
"158 547 OFFCURVE",
"173 544 CURVE",
"192 541 OFFCURVE",
"199 552 OFFCURVE",
"192 575 CURVE SMOOTH",
"183 608 OFFCURVE",
"170 659 OFFCURVE",
"158 712 CURVE SMOOTH",
"145 764 OFFCURVE",
"132 818 OFFCURVE",
"124 857 CURVE SMOOTH",
"119 880 OFFCURVE",
"107 888 OFFCURVE",
"87 881 CURVE",
"79 876 OFFCURVE",
"71 872 OFFCURVE",
"64 868 CURVE SMOOTH",
"48 859 OFFCURVE",
"36 845 OFFCURVE",
"33 832 CURVE",
"29 819 OFFCURVE",
"31 804 OFFCURVE",
"36 784 CURVE",
"38 773 OFFCURVE",
"40 760 OFFCURVE",
"42 745 CURVE",
"55 693 OFFCURVE",
"75 633 OFFCURVE",
"91 602 CURVE"
);
}
);
width = 262;
}
);
note = quoteleft;
unicode = 2018;
},
{
glyphname = quoteright;
layers = (
{
layerId = "A436FB16-7E3F-4A25-90BC-0079C9B35420";
name = Regular;
paths = (
{
closed = 1;
nodes = (
"155 624 OFFCURVE",
"162 656 OFFCURVE",
"169 689 CURVE SMOOTH",
"176 722 OFFCURVE",
"181 759 OFFCURVE",
"184 787 CURVE",
"185 815 OFFCURVE",
"185 830 OFFCURVE",
"166 850 CURVE SMOOTH",
"153 863 OFFCURVE",
"136 875 OFFCURVE",
"119 884 CURVE SMOOTH",
"99 895 OFFCURVE",
"88 893 OFFCURVE",
"85 865 CURVE SMOOTH",
"81 828 OFFCURVE",
"75 775 OFFCURVE",
"68 724 CURVE SMOOTH",
"64 698 OFFCURVE",
"60 673 OFFCURVE",
"57 650 CURVE SMOOTH",
"54 626 OFFCURVE",
"51 606 OFFCURVE",
"48 590 CURVE SMOOTH",
"40 545 OFFCURVE",
"92 555 OFFCURVE",
"116 564 CURVE",
"131 571 OFFCURVE",
"139 581 OFFCURVE",
"148 604 CURVE"
);
}
);
width = 232;
}
);
note = quoteright;
unicode = 2019;
},
{
glyphname = quotedblleft;
layers = (
{
layerId = "A436FB16-7E3F-4A25-90BC-0079C9B35420";
name = Regular;
paths = (
{
closed = 1;
nodes = (
"239 579 OFFCURVE",
"248 566 OFFCURVE",
"264 558 CURVE SMOOTH",
"277 551 OFFCURVE",
"295 547 OFFCURVE",
"310 544 CURVE",
"329 541 OFFCURVE",
"336 552 OFFCURVE",
"329 575 CURVE SMOOTH",
"320 608 OFFCURVE",
"307 659 OFFCURVE",
"295 712 CURVE SMOOTH",
"282 764 OFFCURVE",
"269 818 OFFCURVE",
"261 857 CURVE SMOOTH",
"256 880 OFFCURVE",
"244 888 OFFCURVE",
"224 881 CURVE",
"216 876 OFFCURVE",
"208 872 OFFCURVE",
"201 868 CURVE SMOOTH",
"185 859 OFFCURVE",
"169 843 OFFCURVE",
"167 827 CURVE SMOOTH",
"165 810 OFFCURVE",
"171 781 OFFCURVE",
"180 745 CURVE SMOOTH",
"188 709 OFFCURVE",
"199 673 OFFCURVE",
"211 641 CURVE SMOOTH",
"217 625 OFFCURVE",
"223 612 OFFCURVE",
"228 602 CURVE SMOOTH"
);
},
{
closed = 1;
nodes = (
"96 588 OFFCURVE",
"106 578 OFFCURVE",
"123 571 CURVE",
"138 566 OFFCURVE",
"154 564 OFFCURVE",
"170 563 CURVE SMOOTH",
"188 562 OFFCURVE",
"193 573 OFFCURVE",
"184 596 CURVE",
"179 612 OFFCURVE",
"172 632 OFFCURVE",
"164 656 CURVE SMOOTH",
"147 703 OFFCURVE",
"128 756 OFFCURVE",
"112 806 CURVE",
"103 831 OFFCURVE",
"96 852 OFFCURVE",
"91 871 CURVE SMOOTH",
"78 920 OFFCURVE",
"35 882 OFFCURVE",
"14 857 CURVE",
"-5 832 OFFCURVE",
"4 800 OFFCURVE",
"23 747 CURVE SMOOTH",
"42 696 OFFCURVE",
"64 642 OFFCURVE",
"83 611 CURVE"
);
}
);
width = 388;
}
);
note = quotedblleft;
unicode = 201C;
},
{
glyphname = quotedblright;
layers = (
{
layerId = "A436FB16-7E3F-4A25-90BC-0079C9B35420";
name = Regular;
paths = (
{
closed = 1;
nodes = (
"155 624 OFFCURVE",
"162 656 OFFCURVE",
"169 689 CURVE SMOOTH",
"176 722 OFFCURVE",
"181 759 OFFCURVE",
"184 787 CURVE",
"185 815 OFFCURVE",
"185 830 OFFCURVE",
"166 850 CURVE SMOOTH",
"153 863 OFFCURVE",
"136 875 OFFCURVE",
"119 884 CURVE SMOOTH",
"99 895 OFFCURVE",
"88 893 OFFCURVE",
"85 865 CURVE SMOOTH",
"81 828 OFFCURVE",
"75 775 OFFCURVE",
"68 724 CURVE SMOOTH",
"64 698 OFFCURVE",
"60 673 OFFCURVE",
"57 650 CURVE SMOOTH",
"54 626 OFFCURVE",
"51 606 OFFCURVE",
"48 590 CURVE SMOOTH",
"40 545 OFFCURVE",
"96 555 OFFCURVE",
"116 564 CURVE SMOOTH",
"131 571 OFFCURVE",
"139 581 OFFCURVE",
"148 604 CURVE"
);
},
{
closed = 1;
nodes = (
"304 613 OFFCURVE",
"319 656 OFFCURVE",
"331 697 CURVE SMOOTH",
"342 738 OFFCURVE",
"349 779 OFFCURVE",
"348 799 CURVE SMOOTH",
"347 819 OFFCURVE",
"330 838 OFFCURVE",
"315 851 CURVE",
"299 863 OFFCURVE",
"265 905 OFFCURVE",
"254 856 CURVE SMOOTH",
"247 819 OFFCURVE",
"236 768 OFFCURVE",
"224 719 CURVE SMOOTH",
"212 670 OFFCURVE",
"199 621 OFFCURVE",
"191 592 CURVE",
"184 570 OFFCURVE",
"190 558 OFFCURVE",
"210 556 CURVE",
"227 552 OFFCURVE",
"243 552 OFFCURVE",
"256 557 CURVE",
"272 560 OFFCURVE",
"281 571 OFFCURVE",
"292 592 CURVE"
);
}
);
width = 384;
}
);
note = quotedblright;
unicode = 201D;
},
{
glyphname = bullet;
layers = (
{
layerId = "A436FB16-7E3F-4A25-90BC-0079C9B35420";
name = Regular;
paths = (
{
closed = 1;
nodes = (
"20 320 OFFCURVE",
"34 277 OFFCURVE",
"58 246 CURVE SMOOTH",
"81 215 OFFCURVE",
"114 199 OFFCURVE",
"150 202 CURVE",
"185 202 OFFCURVE",
"213 222 OFFCURVE",
"233 247 CURVE SMOOTH",
"253 272 OFFCURVE",
"266 303 OFFCURVE",
"270 324 CURVE SMOOTH",
"273 340 OFFCURVE",
"275 355 OFFCURVE",
"275 375 CURVE SMOOTH",
"275 402 OFFCURVE",
"268 431 OFFCURVE",
"253 456 CURVE SMOOTH",
"238 481 OFFCURVE",
"216 502 OFFCURVE",
"185 517 CURVE",
"138 536 OFFCURVE",
"99 524 OFFCURVE",
"71 496 CURVE SMOOTH",
"43 467 OFFCURVE",
"26 423 OFFCURVE",
"23 375 CURVE SMOOTH"
);
}
);
width = 324;
}
);
note = bullet;
unicode = 2022;
},
{
glyphname = endash;
layers = (
{
layerId = "A436FB16-7E3F-4A25-90BC-0079C9B35420";
name = Regular;
paths = (
{
closed = 1;
nodes = (
"59 417 OFFCURVE",
"119 424 OFFCURVE",
"183 429 CURVE SMOOTH",
"247 433 OFFCURVE",
"316 437 OFFCURVE",
"376 437 CURVE SMOOTH",
"405 437 OFFCURVE",
"425 427 OFFCURVE",
"436 406 CURVE",
"443 394 OFFCURVE",
"449 383 OFFCURVE",
"452 372 CURVE SMOOTH",
"455 361 OFFCURVE",
"459 350 OFFCURVE",
"462 341 CURVE SMOOTH",
"470 317 OFFCURVE",
"459 311 OFFCURVE",
"428 310 CURVE SMOOTH",
"320 305 OFFCURVE",
"200 296 OFFCURVE",
"99 277 CURVE SMOOTH",
"70 272 OFFCURVE",
"52 277 OFFCURVE",
"32 300 CURVE SMOOTH",
"-5 345 OFFCURVE",
"-45 402 OFFCURVE",
"18 410 CURVE"
);
}
);
width = 555;
}
);
note = endash;
unicode = 2013;
},
{
glyphname = emdash;
layers = (
{
layerId = "A436FB16-7E3F-4A25-90BC-0079C9B35420";
name = Regular;
paths = (
{
closed = 1;
nodes = (
"-45 402 OFFCURVE",
"-7 348 OFFCURVE",
"32 300 CURVE SMOOTH",
"52 277 OFFCURVE",
"70 272 OFFCURVE",
"99 277 CURVE",
"132 284 OFFCURVE",
"206 288 OFFCURVE",
"293 292 CURVE SMOOTH",
"380 296 OFFCURVE",
"479 299 OFFCURVE",
"567 302 CURVE SMOOTH",
"610 303 OFFCURVE",
"650 305 OFFCURVE",
"685 306 CURVE SMOOTH",
"720 307 OFFCURVE",
"747 307 OFFCURVE",
"765 308 CURVE SMOOTH",
"796 309 OFFCURVE",
"807 315 OFFCURVE",
"799 339 CURVE SMOOTH",
"796 348 OFFCURVE",
"792 359 OFFCURVE",
"789 370 CURVE SMOOTH",
"786 381 OFFCURVE",
"780 392 OFFCURVE",
"773 404 CURVE",
"762 425 OFFCURVE",
"742 435 OFFCURVE",
"713 435 CURVE SMOOTH",
"673 435 OFFCURVE",
"591 434 OFFCURVE",
"498 432 CURVE SMOOTH",
"405 430 OFFCURVE",
"299 426 OFFCURVE",
"209 422 CURVE SMOOTH",
"119 418 OFFCURVE",
"46 414 OFFCURVE",
"18 410 CURVE SMOOTH"
);
}
);
width = 844;
}
);
note = emdash;
unicode = 2014;
},
{
glyphname = tilde;
layers = (
{
layerId = "A436FB16-7E3F-4A25-90BC-0079C9B35420";
name = Regular;
paths = (
{
closed = 1;
nodes = (
"356 852 OFFCURVE",
"378 864 OFFCURVE",
"403 889 CURVE",
"429 913 OFFCURVE",
"442 935 OFFCURVE",
"442 954 CURVE SMOOTH",
"442 971 OFFCURVE",
"422 984 OFFCURVE",
"405 984 CURVE SMOOTH",
"396 984 OFFCURVE",
"386 979 OFFCURVE",
"377 970 CURVE",
"376 968 OFFCURVE",
"373 965 OFFCURVE",
"370 961 CURVE SMOOTH",
"367 957 OFFCURVE",
"363 953 OFFCURVE",
"360 948 CURVE",
"352 939 OFFCURVE",
"345 932 OFFCURVE",
"341 932 CURVE",
"328 933 OFFCURVE",
"316 938 OFFCURVE",
"304 947 CURVE SMOOTH",
"280 964 OFFCURVE",
"258 973 OFFCURVE",
"241 978 CURVE",
"232 980 OFFCURVE",
"223 981 OFFCURVE",
"214 981 CURVE SMOOTH",
"198 981 OFFCURVE",
"174 970 OFFCURVE",
"152 955 CURVE SMOOTH",
"130 940 OFFCURVE",
"110 921 OFFCURVE",
"103 908 CURVE",
"99 899 OFFCURVE",
"97 890 OFFCURVE",
"97 882 CURVE SMOOTH",
"97 863 OFFCURVE",
"107 854 OFFCURVE",
"128 854 CURVE SMOOTH",
"141 854 OFFCURVE",
"151 857 OFFCURVE",
"158 864 CURVE",
"159 864 OFFCURVE",
"161 866 OFFCURVE",
"164 869 CURVE SMOOTH",
"167 872 OFFCURVE",
"171 876 OFFCURVE",
"175 881 CURVE",
"183 889 OFFCURVE",
"193 897 OFFCURVE",
"201 897 CURVE SMOOTH",
"210 897 OFFCURVE",
"225 894 OFFCURVE",
"238 890 CURVE",
"251 885 OFFCURVE",
"264 879 OFFCURVE",
"271 872 CURVE SMOOTH",
"284 859 OFFCURVE",
"306 852 OFFCURVE",
"336 852 CURVE SMOOTH"
);
}
);
width = 495;
}
);
note = tilde;
unicode = 02DC;
},
